<?xml version="1.0" encoding="UTF-8"?>
<!DOCTYPE svg PUBLIC "-//W3C//DTD SVG 1.1//EN" "http://www.w3.org/Graphics/SVG/1.1/DTD/svg11.dtd">
<!-- Creator: CorelDRAW -->
<svg xmlns="http://www.w3.org/2000/svg" xml:space="preserve" width="35px" height="35px" style="shape-rendering:geometricPrecision; text-rendering:geometricPrecision; image-rendering:optimizeQuality; fill-rule:evenodd; clip-rule:evenodd"
viewBox="0 0 0.297402 0.297402"
 xmlns:xlink="http://www.w3.org/1999/xlink">
 <defs>
  <style type="text/css">
   <![CDATA[
    .fil1 {fill:white;fill-rule:nonzero}
    .fil0 {fill:white;fill-rule:nonzero;fill-opacity:0.400000}
   ]]>
  </style>
 </defs>
 <g id="Layer_x0020_1">
  <metadata id="CorelCorpID_0Corel-Layer"/>
  <g id="_210241080">
   <path id="_210241104" class="fil0" d="M0.148701 0.297402c0.08214,0 0.148701,-0.0665801 0.148701,-0.148701 0,-0.0821184 -0.0665608,-0.148701 -0.148701,-0.148701 -0.082128,0 -0.148701,0.0665825 -0.148701,0.148701 0,0.0821208 0.0665729,0.148701 0.148701,0.148701z"/>
   <path id="_210241176" class="fil1" d="M0.110463 0.212429l-0.0254908 0 0 -0.0849726 0.0254908 0 0 0.0849726zm-0.0124311 -0.101966l0 0 -0.000207145 0c-0.0101983,0 -0.0168028,-0.00610836 -0.0168028,-0.0148373 0,-0.00889517 0.00680446,-0.0152613 0.0172099,-0.0152613 0.0103885,0 0.0167787,0.0061493 0.0169786,0.0150445 0,0.00873138 -0.00659009,0.0150541 -0.0171785,0.0150541zm0.12751 0.102994l0 0 -0.0319484 0 0 -0.0466509c0,-0.0122143 -0.00498592,-0.0205458 -0.0159814,-0.0205458 -0.00839658,0 -0.0130694,0.00562662 -0.0152516,0.0110533 -0.000814126,0.00194138 -0.00068165,0.0046463 -0.00068165,0.00736808l0 0.0487753 -0.0316474 0c0,0 0.000414289,-0.0826314 0,-0.0901488l0.0316474 0 0 0.0141485c0.00186912,-0.00618302 0.0119758,-0.0150108 0.0281139,-0.0150108 0.0200159,0 0.0357493,0.012961 0.0357493,0.0408821l0 0.050129z"/>
  </g>
 </g>
</svg>
