<?xml version="1.0" encoding="UTF-8"?>
<!DOCTYPE svg PUBLIC "-//W3C//DTD SVG 1.1//EN" "http://www.w3.org/Graphics/SVG/1.1/DTD/svg11.dtd">
<!-- Creator: CorelDRAW -->
<svg xmlns="http://www.w3.org/2000/svg" xml:space="preserve" width="40px" height="40px" style="shape-rendering:geometricPrecision; text-rendering:geometricPrecision; image-rendering:optimizeQuality; fill-rule:evenodd; clip-rule:evenodd"
viewBox="0 0 0.405935 0.405932"
 xmlns:xlink="http://www.w3.org/1999/xlink">
 <defs>
  <style type="text/css">
   <![CDATA[
    .fil0 {fill:white;fill-rule:nonzero;fill-opacity:0.400000}
   ]]>
  </style>
 </defs>
 <g id="Layer_x0020_1">
  <metadata id="CorelCorpID_0Corel-Layer"/>
  <path class="fil0" d="M0.202967 0.405932c-0.111636,0 -0.202967,-0.0913283 -0.202967,-0.202967 0,-0.111627 0.0913312,-0.202964 0.202967,-0.202964 0.111627,0 0.202967,0.0913371 0.202967,0.202964 0,0.111639 -0.0913401,0.202967 -0.202967,0.202967zm0 -0.380564l0 0c-0.0976806,0 -0.177596,0.0799248 -0.177596,0.177596 0,0.0976835 0.0799159,0.177596 0.177596,0.177596 0.0976717,0 0.177596,-0.079913 0.177596,-0.177596 0,-0.0976717 -0.0799248,-0.177596 -0.177596,-0.177596zm-0.0156138 0.18697l0 0 0 -0.0220576 0 -0.102847 0.0312276 0 0 0.104086 0.0936768 0 0 0.0208184 -0.0966066 0 -0.0282978 0z"/>
 </g>
</svg>
