<?xml version="1.0" encoding="UTF-8"?>
<!DOCTYPE svg PUBLIC "-//W3C//DTD SVG 1.1//EN" "http://www.w3.org/Graphics/SVG/1.1/DTD/svg11.dtd">
<!-- Creator: CorelDRAW -->
<svg xmlns="http://www.w3.org/2000/svg" xml:space="preserve" width="40px" height="33px" style="shape-rendering:geometricPrecision; text-rendering:geometricPrecision; image-rendering:optimizeQuality; fill-rule:evenodd; clip-rule:evenodd"
viewBox="0 0 0.420317 0.347209"
 xmlns:xlink="http://www.w3.org/1999/xlink">
 <defs>
  <style type="text/css">
   <![CDATA[
    .fil0 {fill:#DAE409;fill-rule:nonzero}
   ]]>
  </style>
 </defs>
 <g id="Layer_x0020_1">
  <metadata id="CorelCorpID_0Corel-Layer"/>
  <g id="_210240288">
   <g>
    <g>
     <path id="_210240360" class="fil0" d="M0.41606 0.0677115l-0.0290671 0 0 -0.0645821c0,-0.00708471 0.000377851,8.53212e-005 -0.00670686,8.53212e-005l-0.322024 0c-0.0268,0 -0.0582622,0.00888865 -0.0582622,0.0357008l0 0.250457c0,0.0268031 0.0314622,0.0578356 0.0582622,0.0578356l0.357798 0c0.00708776,0 0.00318126,-0.0149708 0.00318126,-0.0220586l0 -0.250457c0,-0.00708471 0.00390649,-0.00698111 -0.00318126,-0.00698111zm-0.357798 -0.0429989l0 0 0.296482 0 0 0.0429989 -0.296482 0c-0.0126489,0 -0.0229362,-0.00830359 -0.0229362,-0.0209646 0,-0.0126397 0.0102873,-0.0220342 0.0229362,-0.0220342zm0.339481 0.290245l0 0 -0.339481 0c-0.0126489,0 -0.0367643,-0.0129323 -0.0367643,-0.0255842l0 -0.207614c0.0107505,0.00367186 0.0284699,0.0182039 0.0367643,0.0182039l0.339481 0 0 0.214994z"/>
    </g>
   </g>
   <g>
    <g>
     <path id="_210240480" class="fil0" d="M0.32661 0.169195c-0.0169332,0 -0.0307278,0.0137855 -0.0307278,0.0307187 0,0.0169515 0.0137946,0.030737 0.0307278,0.030737 0.0169424,0 0.0307278,-0.0137855 0.0307278,-0.030737 0,-0.0169332 -0.0137855,-0.0307187 -0.0307278,-0.0307187zm0 0.0357862l0 0c-0.00279427,0 -0.00506138,-0.00227625 -0.00506138,-0.00506747 0,-0.00278208 0.00226711,-0.00505224 0.00506138,-0.00505224 0.00279122,0 0.00505833,0.00227015 0.00505833,0.00505224 0,0.00279122 -0.00226711,0.00506747 -0.00505833,0.00506747z"/>
    </g>
   </g>
  </g>
 </g>
</svg>
