<?xml version="1.0" encoding="UTF-8"?>
<!DOCTYPE svg PUBLIC "-//W3C//DTD SVG 1.1//EN" "http://www.w3.org/Graphics/SVG/1.1/DTD/svg11.dtd">
<!-- Creator: CorelDRAW -->
<svg xmlns="http://www.w3.org/2000/svg" xml:space="preserve" width="79px" height="88px" style="shape-rendering:geometricPrecision; text-rendering:geometricPrecision; image-rendering:optimizeQuality; fill-rule:evenodd; clip-rule:evenodd"
viewBox="0 0 1.34242 1.48977"
 xmlns:xlink="http://www.w3.org/1999/xlink">
 <defs>
  <style type="text/css">
   <![CDATA[
    .str1 {stroke:white;stroke-width:0.0178341}
    .str0 {stroke:white;stroke-width:0.0534972;stroke-linecap:round}
    .fil0 {fill:none;fill-rule:nonzero}
   ]]>
  </style>
 </defs>
 <g id="Layer_x0020_1">
  <metadata id="CorelCorpID_0Corel-Layer"/>
  <g id="_192543400">
   <g>
    <polyline id="_192955960" class="fil0 str0" points="0.277459,1.22656 0.213842,1.46302 0.362409,1.46302 0.403734,1.31177 "/>
    <polyline id="_192955912" class="fil0 str0" points="1.0173,1.23297 1.07909,1.46302 0.930521,1.46302 0.888201,1.30841 "/>
   </g>
   <g>
    <path id="_192955792" class="fil0" d="M1.07244 0.285148c-0.233708,-0.233633 -0.613006,-0.233633 -0.847033,0 -0.233845,0.23384 -0.233445,0.613107 -0.000136485,0.846709 0.234163,0.233804 0.613355,0.234057 0.847169,0.000106155 0.233971,-0.233718 0.233779,-0.612976 0,-0.846815z"/>
    <path id="_192955744" class="fil0 str1" d="M1.07244 0.285148c-0.233708,-0.233633 -0.613006,-0.233633 -0.847033,0 -0.233845,0.23384 -0.233445,0.613107 -0.000136485,0.846709 0.234163,0.233804 0.613355,0.234057 0.847169,0.000106155 0.233971,-0.233718 0.233779,-0.612976 0,-0.846815z"/>
   </g>
   <g>
    <path id="_192955624" class="fil0" d="M0.909867 0.149512c-0.228325,-0.106378 -0.50857,-0.0654169 -0.697207,0.122882 -0.240886,0.240912 -0.240482,0.631553 -0.00014154,0.872197 0.241215,0.240826 0.631816,0.241084 0.872652,0.0001011 0.19388,-0.193663 0.231651,-0.484295 0.113682,-0.715972l-0.288985 -0.279208z"/>
    <path id="_192544912" class="fil0" d="M0.909867 0.149512c-0.228325,-0.106378 -0.50857,-0.0654169 -0.697207,0.122882 -0.240886,0.240912 -0.240482,0.631553 -0.00014154,0.872197 0.241215,0.240826 0.631816,0.241084 0.872652,0.0001011 0.19388,-0.193663 0.231651,-0.484295 0.113682,-0.715972l-0.288985 -0.279208z"/>
   </g>
   <g>
    <path id="_192544792" class="fil0" d="M0.838606 0.281124c-0.171557,-0.0759364 -0.379611,-0.0436551 -0.520327,0.0968389 -0.182612,0.182587 -0.182299,0.478684 -0.000136485,0.661125 0.18282,0.182552 0.478912,0.182708 0.661474,5.05501e-005 0.136202,-0.136035 0.170768,-0.335203 0.103931,-0.503424l-0.244941 -0.254591z"/>
    <path id="_192544744" class="fil0" d="M0.838606 0.281124c-0.171557,-0.0759364 -0.379611,-0.0436551 -0.520327,0.0968389 -0.182612,0.182587 -0.182299,0.478684 -0.000136485,0.661125 0.18282,0.182552 0.478912,0.182708 0.661474,5.05501e-005 0.136202,-0.136035 0.170768,-0.335203 0.103931,-0.503424l-0.244941 -0.254591z"/>
   </g>
   <g>
    <path id="_192544624" class="fil0" d="M1.08355 0.535715c-0.0228133,-0.0574401 -0.0574704,-0.111271 -0.103931,-0.157752 -0.0419212,-0.0419111 -0.0898478,-0.0741873 -0.14101,-0.0968389l0.244941 0.254591z"/>
    <path id="_192544576" class="fil0" d="M1.08355 0.535715c-0.0228133,-0.0574401 -0.0574704,-0.111271 -0.103931,-0.157752 -0.0419212,-0.0419111 -0.0898478,-0.0741873 -0.14101,-0.0968389l0.244941 0.254591z"/>
   </g>
   <g>
    <path id="_192544456" class="fil0" d="M0.75209 0.605509c-0.0568992,-0.0569144 -0.149249,-0.0568992 -0.206229,0 -0.0569498,0.0569194 -0.0568588,0.149269 -3.53851e-005,0.206184 0.0570155,0.0569093 0.14935,0.05697 0.206265,0 0.0569801,-0.0569144 0.0569295,-0.149264 0,-0.206184z"/>
    <path id="_192544408" class="fil0" d="M0.75209 0.605509c-0.0568992,-0.0569144 -0.149249,-0.0568992 -0.206229,0 -0.0569498,0.0569194 -0.0568588,0.149269 -3.53851e-005,0.206184 0.0570155,0.0569093 0.14935,0.05697 0.206265,0 0.0569801,-0.0569144 0.0569295,-0.149264 0,-0.206184z"/>
   </g>
   <g>
    <path id="_192544288" class="fil0 str0" d="M0.909902 0.143608c-0.229897,-0.106004 -0.511375,-0.0643452 -0.701039,0.12496 -0.24301,0.242984 -0.242575,0.637093 -0.00019209,0.879764 0.243374,0.242999 0.637336,0.243181 0.880275,0.00013143 0.194926,-0.194628 0.233466,-0.486474 0.115947,-0.719763"/>
    <path id="_192544216" class="fil0 str0" d="M1.07162 0.517876c0.0769929,0.170637 0.0453839,0.378322 -0.0948927,0.518427 -0.180959,0.181081 -0.474438,0.180924 -0.65566,-8.59352e-005 -0.180575,-0.180808 -0.180889,-0.474367 0.00012132,-0.655397 0.139983,-0.139721 0.347153,-0.171451 0.517542,-0.0951758"/>
    <path id="_192544144" class="fil0 str0" d="M0.747212 0.806886c-0.0542302,0.0542655 -0.142213,0.0542049 -0.196564,-6.06601e-005 -0.0541088,-0.0542049 -0.0541948,-0.142192 3.53851e-005,-0.196407 0.0543161,-0.0542655 0.142299,-0.0542655 0.196529,0 0.0542302,0.054215 0.0543009,0.142203 0,0.196468"/>
    <path id="_192544096" class="fil0 str0" d="M0.785038 0.42228c-0.117711,-0.055873 -0.26281,-0.0351323 -0.360281,0.0622019 -0.123802,0.123742 -0.123615,0.324491 -0.000106155,0.448157 0.123959,0.123792 0.324668,0.123913 0.44847,0.00012132 0.10794,-0.107859 0.12175,-0.274153 0.0416027,-0.397046"/>
   </g>
   <g>
    <g>
     <g>
      <polygon id="_192543976" class="fil0" points="0.955771,0.386653 0.916853,0.269953 1.13727,0.0495239 1.17618,0.166274 "/>
      <polygon id="_192543928" class="fil0 str1" points="0.955771,0.386653 0.916853,0.269953 1.13727,0.0495239 1.17618,0.166274 "/>
     </g>
     <g>
      <polygon id="_192543808" class="fil0" points="0.955771,0.386653 1.07247,0.425581 1.29289,0.205127 1.17618,0.166274 "/>
      <polygon id="_192543760" class="fil0 str1" points="0.955771,0.386653 1.07247,0.425581 1.29289,0.205127 1.17618,0.166274 "/>
     </g>
    </g>
    <g>
     <polygon id="_192543616" class="fil0 str0" points="0.955771,0.386653 0.916853,0.269953 1.13727,0.0495239 1.17618,0.166274 "/>
     <polygon id="_192543568" class="fil0 str0" points="0.955771,0.386653 1.07247,0.425581 1.29289,0.205127 1.17618,0.166274 "/>
    </g>
    <line id="_192543472" class="fil0 str0" x1="0.64143" y1="0.702237" x2="1.20954" y2= "0.134084" />
   </g>
  </g>
 </g>
</svg>
