<?xml version="1.0" encoding="UTF-8"?>
<!DOCTYPE svg PUBLIC "-//W3C//DTD SVG 1.1//EN" "http://www.w3.org/Graphics/SVG/1.1/DTD/svg11.dtd">
<!-- Creator: CorelDRAW -->
<svg xmlns="http://www.w3.org/2000/svg" xml:space="preserve" width="14px" height="14px" style="shape-rendering:geometricPrecision; text-rendering:geometricPrecision; image-rendering:optimizeQuality; fill-rule:evenodd; clip-rule:evenodd"
viewBox="0 0 0.0443201 0.0443201"
 xmlns:xlink="http://www.w3.org/1999/xlink">
 <defs>
  <style type="text/css">
   <![CDATA[
    .fil0 {fill:white;fill-rule:nonzero;fill-opacity:0.400000}
   ]]>
  </style>
 </defs>
 <g id="Layer_x0020_1">
  <metadata id="CorelCorpID_0Corel-Layer"/>
  <path class="fil0" d="M0.0268654 0.0221605l0.0164791 -0.0164782c0.00130029,-0.0012984 0.00130029,-0.00340641 0,-0.0047067 -0.00130123,-0.00130029 -0.00340736,-0.00130029 -0.00470764,0l-0.0164782 0.0164782 -0.0164753 -0.0164782c-0.00130029,-0.00130029 -0.00340736,-0.00130029 -0.00470764,0 -0.00130029,0.00130029 -0.00130029,0.0034083 0,0.0047067l0.0164753 0.0164782 -0.0164753 0.0164772c-0.00130029,0.0012984 -0.00130029,0.0034083 0,0.0047067 0.000650143,0.000650143 0.00150222,0.000975687 0.00235429,0.000975687 0.000851131,0 0.00170321,-0.000325543 0.00235335,-0.000975687l0.0164753 -0.0164763 0.0164782 0.0164763c0.000650143,0.000650143 0.00150222,0.000975687 0.00235335,0.000975687 0.000852075,0 0.00170321,-0.000325543 0.00235429,-0.000975687 0.00130029,-0.0012984 0.00130029,-0.0034083 0,-0.0047067l-0.0164791 -0.0164772z"/>
 </g>
</svg>
