<?xml version="1.0" encoding="UTF-8"?>
<!DOCTYPE svg PUBLIC "-//W3C//DTD SVG 1.1//EN" "http://www.w3.org/Graphics/SVG/1.1/DTD/svg11.dtd">
<!-- Creator: CorelDRAW -->
<svg xmlns="http://www.w3.org/2000/svg" xml:space="preserve" width="35px" height="35px" style="shape-rendering:geometricPrecision; text-rendering:geometricPrecision; image-rendering:optimizeQuality; fill-rule:evenodd; clip-rule:evenodd"
viewBox="0 0 0.282675 0.282675"
 xmlns:xlink="http://www.w3.org/1999/xlink">
 <defs>
  <style type="text/css">
   <![CDATA[
    .fil1 {fill:#161922;fill-rule:nonzero}
    .fil0 {fill:#DAE409;fill-rule:nonzero}
   ]]>
  </style>
 </defs>
 <g id="Layer_x0020_1">
  <metadata id="CorelCorpID_0Corel-Layer"/>
  <path class="fil0" d="M0.141337 0.282675c0.0780565,0 0.141337,-0.063274 0.141337,-0.141337 0,-0.0780519 -0.0632808,-0.141337 -0.141337,-0.141337 -0.0780634,0 -0.141337,0.0632854 -0.141337,0.141337 0,0.0780634 0.063274,0.141337 0.141337,0.141337z"/>
  <path class="fil1" d="M0.104993 0.121145l0.0161539 0 0 -0.0127679c0,-0.0060806 -0.0012065,-0.0154671 0.00320971,-0.0212867 0.00466118,-0.00615386 0.0103755,-0.0103343 0.0213691,-0.0103343 0.0179121,0 0.0251168,0.00255724 0.0251168,0.00255724l-0.00371796 0.0210348c0,0 -0.00584021,-0.00171246 -0.0113622,-0.00171246 -0.00552886,0 -0.0103869,0.00198032 -0.0103869,0.00750002l0 0.0150092 0.0242285 0 0 0.0242308 -0.0242285 0 0 0.0726879 -0.0242285 0 0 -0.0726879 -0.0161539 0 0 -0.0242308z"/>
 </g>
</svg>
