<?xml version="1.0" encoding="UTF-8"?>
<!DOCTYPE svg PUBLIC "-//W3C//DTD SVG 1.1//EN" "http://www.w3.org/Graphics/SVG/1.1/DTD/svg11.dtd">
<!-- Creator: CorelDRAW -->
<svg xmlns="http://www.w3.org/2000/svg" xml:space="preserve" width="88px" height="59px" style="shape-rendering:geometricPrecision; text-rendering:geometricPrecision; image-rendering:optimizeQuality; fill-rule:evenodd; clip-rule:evenodd"
viewBox="0 0 2.02194 1.35562"
 xmlns:xlink="http://www.w3.org/1999/xlink">
 <defs>
  <style type="text/css">
   <![CDATA[
    .str1 {stroke:white;stroke-width:0.022978}
    .str0 {stroke:white;stroke-width:0.0689273}
    .fil0 {fill:none;fill-rule:nonzero}
   ]]>
  </style>
 </defs>
 <g id="Layer_x0020_1">
  <metadata id="CorelCorpID_0Corel-Layer"/>
  <g id="_211312456">
   <g>
    <polygon id="_211312504" class="fil0 str0" points="1.88407,0.264233 0.137861,0.264233 0.137861,0.0344669 1.88407,0.0344669 "/>
    <line id="_211312576" class="fil0 str0" x1="0.218278" y1="0.14935" x2="0.310183" y2= "0.14935" />
    <line id="_211312648" class="fil0 str0" x1="0.356139" y1="0.14935" x2="0.448044" y2= "0.14935" />
    <line id="_211312720" class="fil0 str0" x1="0.493993" y1="0.14935" x2="0.585899" y2= "0.14935" />
   </g>
   <line id="_211312792" class="fil0 str1" x1="0.567994" y1="0.805935" x2="0.238807" y2= "0.984626" />
   <line id="_211312864" class="fil0 str1" x1="1.77823" y1="0.603184" x2="1.31871" y2= "0.993783" />
   <line id="_211312936" class="fil0 str0" x1="0.643344" y1="0.850132" x2="0.643344" y2= "1.33264" />
   <line id="_211313008" class="fil0 str0" x1="1.21775" y1="1.1718" x2="1.21775" y2= "1.30967" />
   <line id="_211313080" class="fil0 str0" x1="1.31312" y1="0.993647" x2="1.76291" y2= "0.603184" />
   <line id="_211313152" class="fil0 str0" x1="0.768543" y1="0.772321" x2="1.10624" y2= "0.996968" />
   <line id="_211313224" class="fil0 str0" x1="0.238807" y1="0.984626" x2="0.567994" y2= "0.805935" />
   <polyline id="_211313296" class="fil0 str0" points="1.88407,0.712277 1.88407,1.32115 0.137861,1.32115 0.137861,1.19478 "/>
   <polyline id="_211313368" class="fil0 str0" points="0.137861,0.965015 0.137861,0.0344669 1.88407,0.0344669 1.88407,0.459533 "/>
   <path id="_211313440" class="fil0 str0" d="M0.264227 1.07415c0,0.0634564 -0.0514268,0.114883 -0.114877,0.114883 -0.0634369,0 -0.114883,-0.0514268 -0.114883,-0.114883 0,-0.0634499 0.0514464,-0.114883 0.114883,-0.114883 0.0634499,0 0.114877,0.0514334 0.114877,0.114883"/>
   <path id="_211313512" class="fil0 str0" d="M0.769716 0.723336c0,0.0634303 -0.0514334,0.114883 -0.114883,0.114883 -0.0634303,0 -0.114883,-0.0514529 -0.114883,-0.114883 0,-0.0634303 0.0514529,-0.114883 0.114883,-0.114883 0.0634499,0 0.114883,0.0514529 0.114883,0.114883"/>
   <path id="_211313584" class="fil0 str0" d="M1.33264 1.04501c0,0.0634303 -0.0514268,0.114883 -0.114883,0.114883 -0.0634303,0 -0.114883,-0.0514529 -0.114883,-0.114883 0,-0.0634303 0.0514529,-0.114883 0.114883,-0.114883 0.0634564,0 0.114883,0.0514529 0.114883,0.114883"/>
   <path id="_211313656" class="fil0 str0" d="M1.98747 0.562504c0,0.0634303 -0.0514268,0.114877 -0.114883,0.114877 -0.0634303,0 -0.114883,-0.0514464 -0.114883,-0.114877 0,-0.0634369 0.0514529,-0.114883 0.114883,-0.114883 0.0634564,0 0.114883,0.0514464 0.114883,0.114883"/>
   <line id="_211313728" class="fil0 str0" x1="0.287205" y1="0.425066" x2="0.700782" y2= "0.425066" />
   <line id="_211313800" class="fil0 str0" x1="0.287205" y1="0.585905" x2="0.425066" y2= "0.585905" />
  </g>
 </g>
</svg>
