<?xml version="1.0" encoding="UTF-8"?>
<!DOCTYPE svg PUBLIC "-//W3C//DTD SVG 1.1//EN" "http://www.w3.org/Graphics/SVG/1.1/DTD/svg11.dtd">
<!-- Creator: CorelDRAW -->
<svg xmlns="http://www.w3.org/2000/svg" xml:space="preserve" width="89px" height="89px" style="shape-rendering:geometricPrecision; text-rendering:geometricPrecision; image-rendering:optimizeQuality; fill-rule:evenodd; clip-rule:evenodd"
viewBox="0 0 2.29374 2.29943"
 xmlns:xlink="http://www.w3.org/1999/xlink">
 <defs>
  <style type="text/css">
   <![CDATA[
    .str1 {stroke:white;stroke-width:0.0538335}
    .str0 {stroke:white;stroke-width:0.0807426}
    .fil0 {fill:none;fill-rule:nonzero}
   ]]>
  </style>
 </defs>
 <g id="Layer_x0020_1">
  <metadata id="CorelCorpID_0Corel-Layer"/>
  <g id="_192958120">
   <g>
    <g>
     <g>
      <line id="_192962920" class="fil0 str0" x1="1.05913" y1="1.22092" x2="2.18875" y2= "1.5859" />
      <path id="_192962848" class="fil0 str0" d="M2.18875 1.5859c0.201547,-0.620199 -0.14129,-1.28634 -0.761443,-1.48781 -0.124009,-0.040253 -0.260516,-0.0577092 -0.368175,-0.0577092"/>
      <line id="_192962800" class="fil0 str0" x1="1.05913" y1="0.0403751" x2="1.05913" y2= "1.22092" />
     </g>
    </g>
   </g>
   <line id="_192962632" class="fil0 str0" x1="1.31822" y1="1.51303" x2="1.76591" y2= "2.1293" />
   <path id="_192962560" class="fil0 str0" d="M1.76591 2.1293c0.138856,-0.100861 0.243044,-0.22616 0.310466,-0.369869"/>
   <line id="_192962488" class="fil0 str0" x1="2.07638" y1="1.75943" x2="1.31822" y2= "1.51303" />
   <line id="_192962416" class="fil0 str0" x1="1.05913" y1="1.22092" x2="2.18875" y2= "1.5859" />
   <path id="_192962344" class="fil0 str0" d="M2.18875 1.5859c0.201547,-0.620199 -0.14129,-1.28634 -0.761443,-1.48781 -0.124009,-0.040253 -0.260516,-0.0577092 -0.368175,-0.0577092"/>
   <line id="_192962272" class="fil0 str0" x1="1.05913" y1="0.0403751" x2="1.05913" y2= "1.22092" />
   <g>
    <polyline id="_192962200" class="fil0 str0" points="1.55813,0.147996 1.05913,0.640287 1.05913,1.00899 1.78469,0.286753 "/>
    <path id="_192962128" class="fil0 str0" d="M1.78469 0.286753c-0.0699927,-0.0540929 -0.143548,-0.100778 -0.226557,-0.138757"/>
    <polyline id="_192962056" class="fil0 str0" points="1.78807,0.286753 1.05913,1.00899 1.05913,1.22092 1.18416,1.2594 1.97527,0.468258 "/>
    <path id="_192961984" class="fil0 str0" d="M1.97527 0.468258c-0.0551457,-0.0666967 -0.1177,-0.127755 -0.187196,-0.181505"/>
    <path id="_192961912" class="fil0 str0" d="M1.43734 0.0980843c-0.052361,-0.0169832 -0.108979,-0.0297015 -0.159021,-0.0389637"/>
    <polyline id="_192961840" class="fil0 str0" points="1.27832,0.0591207 1.05913,0.271571 1.05913,0.640287 1.55813,0.147996 "/>
    <path id="_192961768" class="fil0 str0" d="M1.55813 0.147996c-0.0411075,-0.0187761 -0.0768515,-0.0356372 -0.120797,-0.0499119"/>
    <polyline id="_192961696" class="fil0 str0" points="1.05913,0.0403751 1.05913,0.271571 1.27161,0.0591207 "/>
    <path id="_192961624" class="fil0 str0" d="M1.27161 0.0591207c-0.0684668,-0.0127107 -0.158647,-0.0187456 -0.21248,-0.0187456"/>
    <polyline id="_192961552" class="fil0 str0" points="1.98187,0.468258 1.19076,1.2594 1.46908,1.34984 2.12756,0.691328 "/>
    <path id="_192961480" class="fil0 str0" d="M2.12756 0.691328c-0.0398487,-0.079415 -0.0888451,-0.154222 -0.145692,-0.22307"/>
    <line id="_192961408" class="fil0 str1" x1="1.97905" y1="1.51559" x2="2.19542" y2= "1.5859" />
    <path id="_192961336" class="fil0 str1" d="M2.19542 1.5859c0.0371402,-0.114289 0.0557714,-0.230166 0.0577779,-0.344447"/>
    <line id="_192961264" class="fil0 str1" x1="2.2532" y1="1.24145" x2="1.97905" y2= "1.51559" />
    <polyline id="_192961192" class="fil0 str0" points="2.12756,0.691328 1.46908,1.34984 1.74733,1.44026 2.2246,0.963021 "/>
    <path id="_192961120" class="fil0 str0" d="M2.2246 0.963021c-0.0212328,-0.094468 -0.0538792,-0.185701 -0.0970391,-0.271693"/>
    <polyline id="_192961048" class="fil0 str0" points="2.2246,0.963021 1.74733,1.44026 1.97905,1.51559 2.2532,1.24145 "/>
    <path id="_192961000" class="fil0 str0" d="M2.2532 1.24145c0.00165559,-0.0945443 -0.00820167,-0.187914 -0.0286028,-0.27843"/>
   </g>
   <polyline id="_192960880" class="fil0 str0" points="1.15646,1.72029 1.07766,1.72029 1.15646,1.72029 0.941613,1.38218 0.927948,1.36689 0.870727,1.29278 0.870727,1.20891 0.872536,1.20891 0.870727,1.20891 0.870727,0.993585 0.872536,0.993585 0.870727,0.993585 0.870727,0.805183 0.872536,0.805183 0.870727,0.805183 0.870727,0.64369 0.872536,0.64369 0.870727,0.64369 0.870727,0.455288 0.872536,0.455288 0.870727,0.455288 0.870727,0.286204 "/>
   <path id="_192960808" class="fil0 str0" d="M0.870727 0.286204c-0.215326,0.0244372 -0.39471,0.129838 -0.554624,0.289805 -0.117494,0.11744 -0.189874,0.25609 -0.234591,0.417576"/>
   <polygon id="_192960736" class="fil0 str0" points="0.0815131,0.993585 0.13424,0.993585 "/>
   <path id="_192960664" class="fil0 str0" d="M0.0815131 0.993585c-0.0580068,0.215326 -0.0546422,0.403728 0.00980386,0.619047"/>
   <polygon id="_192960592" class="fil0 str0" points="0.091317,1.61263 0.13424,1.61263 "/>
   <path id="_192960520" class="fil0 str0" d="M0.091317 1.61263c0.0463185,0.134576 0.123933,0.241373 0.233324,0.350764 0.312335,0.312304 0.784453,0.384212 1.15322,0.182161"/>
   <line id="_192960448" class="fil0 str0" x1="1.47786" y1="2.14556" x2="1.15646" y2= "1.72029" />
   <polygon id="_192960376" class="fil0 str1" points="0.0521016,1.38385 0.13424,1.38385 "/>
   <polygon id="_192960304" class="fil0 str1" points="0.0521016,1.19545 0.13424,1.19545 "/>
   <polygon id="_192960232" class="fil0 str1" points="0.257227,1.89524 0.339366,1.89524 "/>
   <polygon id="_192960160" class="fil0 str1" points="0.257227,1.70683 0.339366,1.70683 "/>
   <polygon id="_192960088" class="fil0 str1" points="0.257227,1.51843 0.339366,1.51843 "/>
   <polygon id="_192960016" class="fil0 str1" points="0.257227,1.30311 0.339366,1.30311 "/>
   <polygon id="_192959944" class="fil0 str1" points="0.257227,1.1147 0.339366,1.1147 "/>
   <polygon id="_192959872" class="fil0 str1" points="0.257227,0.899384 0.339366,0.899384 "/>
   <polygon id="_192959800" class="fil0 str1" points="0.257227,0.710982 0.339366,0.710982 "/>
   <polygon id="_192959728" class="fil0 str1" points="0.462345,1.97598 0.544484,1.97598 "/>
   <polygon id="_192959656" class="fil0 str1" points="0.462345,1.76067 0.544484,1.76067 "/>
   <polygon id="_192959584" class="fil0 str1" points="0.462345,1.59917 0.544484,1.59917 "/>
   <polygon id="_192959512" class="fil0 str1" points="0.462345,1.38385 0.544484,1.38385 "/>
   <polygon id="_192959440" class="fil0 str1" points="0.462345,1.19545 0.544484,1.19545 "/>
   <polygon id="_192959368" class="fil0 str1" points="0.462345,0.980126 0.544484,0.980126 "/>
   <polygon id="_192959296" class="fil0 str1" points="0.462345,0.791724 0.544484,0.791724 "/>
   <polygon id="_192959224" class="fil0 str1" points="0.462345,0.630232 0.544484,0.630232 "/>
   <polygon id="_192959152" class="fil0 str1" points="0.667471,2.08364 0.74961,2.08364 "/>
   <polygon id="_192959080" class="fil0 str1" points="0.667471,1.89524 0.74961,1.89524 "/>
   <polygon id="_192959008" class="fil0 str1" points="0.667471,1.70683 0.74961,1.70683 "/>
   <polygon id="_192958936" class="fil0 str1" points="0.667471,1.51843 0.74961,1.51843 "/>
   <polygon id="_192958864" class="fil0 str1" points="0.667471,1.30311 0.74961,1.30311 "/>
   <polygon id="_192958792" class="fil0 str1" points="0.667471,1.1147 0.74961,1.1147 "/>
   <polygon id="_192958720" class="fil0 str1" points="0.667471,0.899384 0.74961,0.899384 "/>
   <polygon id="_192958648" class="fil0 str1" points="0.667471,0.710982 0.74961,0.710982 "/>
   <polygon id="_192958576" class="fil0 str1" points="0.667471,0.549489 0.74961,0.549489 "/>
   <polygon id="_192958504" class="fil0 str1" points="0.872536,2.16439 0.954728,2.16439 "/>
   <polygon id="_192958432" class="fil0 str1" points="0.872536,1.97598 0.954728,1.97598 "/>
   <polygon id="_192958360" class="fil0 str1" points="0.872536,1.76067 0.954728,1.76067 "/>
   <polygon id="_192958288" class="fil0 str1" points="0.872536,1.59917 0.954728,1.59917 "/>
   <polygon id="_192958216" class="fil0 str1" points="1.07766,2.08364 1.15982,2.08364 "/>
   <polygon id="_192958168" class="fil0 str1" points="1.07766,1.89524 1.15982,1.89524 "/>
  </g>
 </g>
</svg>
