<?xml version="1.0" encoding="UTF-8"?>
<!DOCTYPE svg PUBLIC "-//W3C//DTD SVG 1.1//EN" "http://www.w3.org/Graphics/SVG/1.1/DTD/svg11.dtd">
<!-- Creator: CorelDRAW -->
<svg xmlns="http://www.w3.org/2000/svg" xml:space="preserve" width="35px" height="35px" style="shape-rendering:geometricPrecision; text-rendering:geometricPrecision; image-rendering:optimizeQuality; fill-rule:evenodd; clip-rule:evenodd"
viewBox="0 0 0.28994 0.28994"
 xmlns:xlink="http://www.w3.org/1999/xlink">
 <defs>
  <style type="text/css">
   <![CDATA[
    .fil1 {fill:white;fill-rule:nonzero}
    .fil0 {fill:white;fill-rule:nonzero;fill-opacity:0.400000}
   ]]>
  </style>
 </defs>
 <g id="Layer_x0020_1">
  <metadata id="CorelCorpID_0Corel-Layer"/>
  <g id="_184049288">
   <path id="_184049384" class="fil0" d="M0.14497 0.28994c0.0800699,0 0.14497,-0.0649027 0.14497,-0.14497 0,-0.0800581 -0.0649003,-0.14497 -0.14497,-0.14497 -0.0800628,0 -0.14497,0.064912 -0.14497,0.14497 0,0.0800675 0.0649074,0.14497 0.14497,0.14497z"/>
   <path id="_184049336" class="fil1" d="M0.211711 0.112271c-0.00519428,0.00229657 -0.010776,0.00385109 -0.0166325,0.00455321 0.00598563,-0.00358339 0.0105811,-0.00925436 0.0127321,-0.0160102 -0.00559583,0.00331805 -0.0117858,0.00572028 -0.018396,0.00701416 -0.00526473,-0.00562166 -0.0127978,-0.00914165 -0.0211293,-0.00914165 -0.0159867,0 -0.0289466,0.0129693 -0.0289466,0.0289536 0,0.00227308 0.000244216,0.00448277 0.000744388,0.00659382 -0.0240576,-0.00120464 -0.0453912,-0.012725 -0.0596872,-0.0302546 -0.00249147,0.00429491 -0.0039145,0.00926141 -0.0039145,0.0145684 0,0.0100316 0.00511209,0.0188985 0.0128777,0.0240999 -0.00474107,-0.00014559 -0.00920505,-0.00146295 -0.0131219,-0.00361627l0 0.000356931c0,0.0140354 0.00998466,0.0257413 0.0232357,0.0283948 -0.00242807,0.000678638 -0.00498529,0.00101913 -0.00762939,0.00101913 -0.00186919,0 -0.00367967,-0.000178465 -0.00544319,-0.00051661 0.00367967,0.0115016 0.0143665,0.0198754 0.0270422,0.0200938 -0.00990952,0.00777498 -0.0223997,0.012401 -0.0359584,0.012401 -0.00233883,0 -0.00464245,-0.000129153 -0.00690848,-0.000394502 0.0128143,0.00820236 0.0280402,0.0129998 0.0443815,0.0129998 0.0532719,0 0.0823876,-0.0441138 0.0823876,-0.0823782 0,-0.00126335 -2.58305e-005,-0.0025173 -8.2188e-005,-0.00375482 0.00566392,-0.00407887 0.0105811,-0.00918157 0.0144486,-0.0149817z"/>
  </g>
 </g>
</svg>
