<?xml version="1.0" encoding="UTF-8"?>
<!DOCTYPE svg PUBLIC "-//W3C//DTD SVG 1.1//EN" "http://www.w3.org/Graphics/SVG/1.1/DTD/svg11.dtd">
<!-- Creator: CorelDRAW -->
<svg xmlns="http://www.w3.org/2000/svg" xml:space="preserve" width="34px" height="34px" style="shape-rendering:geometricPrecision; text-rendering:geometricPrecision; image-rendering:optimizeQuality; fill-rule:evenodd; clip-rule:evenodd"
viewBox="0 0 0.340329 0.344484"
 xmlns:xlink="http://www.w3.org/1999/xlink">
 <defs>
  <style type="text/css">
   <![CDATA[
    .fil0 {fill:white;fill-rule:nonzero;fill-opacity:0.400000}
   ]]>
  </style>
 </defs>
 <g id="Layer_x0020_1">
  <metadata id="CorelCorpID_0Corel-Layer"/>
  <path class="fil0" d="M0.340329 0.311267l-0.0344232 0.033217 -0.0822164 -0.0822274c-0.0145215,0.0116659 -0.0434223,0.027224 -0.0789478,0.027224 -0.0781765,0 -0.144742,-0.0663109 -0.144742,-0.144476 0,-0.0781573 0.0629848,-0.145004 0.141161,-0.145004 0.0781546,0 0.138672,0.0665844 0.138672,0.144739 0,0.0355365 -0.00976488,0.0682803 -0.0217398,0.0843089l0.0822356 0.0822192zm-0.199168 -0.28232l0 0c-0.0670111,0 -0.112211,0.0488025 -0.112211,0.115792 0,0.0670002 0.0501401,0.117146 0.117148,0.117146 0.066981,0 0.104785,-0.0498829 0.104785,-0.11688 0,-0.0669893 -0.0427439,-0.116057 -0.109722,-0.116057z"/>
 </g>
</svg>
