<?xml version="1.0" encoding="UTF-8"?>
<!DOCTYPE svg PUBLIC "-//W3C//DTD SVG 1.1//EN" "http://www.w3.org/Graphics/SVG/1.1/DTD/svg11.dtd">
<!-- Creator: CorelDRAW -->
<svg xmlns="http://www.w3.org/2000/svg" xml:space="preserve" width="83px" height="72px" style="shape-rendering:geometricPrecision; text-rendering:geometricPrecision; image-rendering:optimizeQuality; fill-rule:evenodd; clip-rule:evenodd"
viewBox="0 0 1.80967 1.56021"
 xmlns:xlink="http://www.w3.org/1999/xlink">
 <defs>
  <style type="text/css">
   <![CDATA[
    .str1 {stroke:white;stroke-width:0.0650818}
    .str2 {stroke:white;stroke-width:0.0650818;stroke-linejoin:round}
    .str0 {stroke:white;stroke-width:0.0650818;stroke-linecap:round;stroke-linejoin:round}
    .fil0 {fill:none;fill-rule:nonzero}
   ]]>
  </style>
 </defs>
 <g id="Layer_x0020_1">
  <metadata id="CorelCorpID_0Corel-Layer"/>
  <g id="_230404216">
   <g>
    <g>
     <polyline id="_230409904" class="fil0 str0" points="0.213676,0.600158 0.0325378,0.46842 0.444184,0.270837 0.872311,0.467995 0.674728,0.583652 "/>
     <path id="_230409832" class="fil0 str0" d="M0.839392 0.46842c0.0375806,0.0188549 0.0343213,0.112244 0.034106,0.145741"/>
     <line id="_230409760" class="fil0 str1" x1="0.865958" y1="0.659883" x2="0.865958" y2= "0.648777" />
     <path id="_230409688" class="fil0 str1" d="M0.865958 0.648777c0,-0.0158661 -0.0167394,-0.0287251 -0.032587,-0.0287251 -0.0157616,0 -0.032501,0.0128589 -0.032501,0.0287251"/>
     <polyline id="_230409616" class="fil0 str1" points="0.80087,0.648777 0.80087,0.659883 0.865958,0.659883 "/>
     <g>
      <path id="_230409544" class="fil0 str0" d="M0.460665 0.476642c-0.0988127,-0.00822209 -0.148176,0.0164811 -0.148176,0.0164811 -0.0823255,0.0411474 -0.0846624,0.0721417 -0.0850805,0.115318 -0.00017219,0.025847 -0.000387429,0.0999566 -0.000510422,0.125779 0,0 0.123344,-0.0505871 0.217323,-0.0516079 0.0938992,-0.000971646 0.21466,0.0536004 0.21466,0.0536004"/>
      <path id="_230409496" class="fil0 str0" d="M0.659902 0.735684c0.000166041,-0.0261668 0.00101469,-0.0964574 0.00118688,-0.122649 7.99456e-005,-0.0431768 0.0136399,-0.0787648 -0.0851666,-0.119912 0,0 -0.0823316,-0.0247032 -0.131738,-0.0164811"/>
     </g>
    </g>
   </g>
   <g>
    <g>
     <polyline id="_230409328" class="fil0 str0" points="0.993834,0.386069 0.75706,0.254331 1.24883,0.0325378 1.75883,0.253956 1.50383,0.369607 "/>
     <path id="_230409256" class="fil0 str0" d="M1.72238 0.254331c0.0416086,0.0189225 0.038011,0.112311 0.0377528,0.145784"/>
     <line id="_230409184" class="fil0 str1" x1="1.77713" y1="0.377847" x2="1.77713" y2= "0.434738" />
     <path id="_230409112" class="fil0 str1" d="M1.77713 0.434738c0,-0.0158477 -0.0150421,-0.0286882 -0.0325809,-0.0286882 -0.0174589,0 -0.032501,0.0128405 -0.032501,0.0286882"/>
     <polyline id="_230409040" class="fil0 str1" points="1.71205,0.434738 1.71205,0.377847 1.77713,0.377847 "/>
     <g>
      <path id="_230408968" class="fil0 str0" d="M1.26705 0.262597c-0.0406738,-0.00614351 -0.163938,0.0164626 -0.163938,0.0164626 -0.0990649,0.0576285 -0.0935978,0.0721417 -0.0941082,0.115398 -0.00017219,0.0258101 -0.000381279,0.099852 -0.00054732,0.125681 0,0 0.136479,-0.0505748 0.240372,-0.0515895 0.103942,-0.00103929 0.2375,0.0536435 0.2375,0.0536435"/>
      <path id="_230408920" class="fil0 str0" d="M1.48743 0.521639c0.00017219,-0.0261607 0.00114384,-0.0965435 0.00131603,-0.122643 7.99456e-005,-0.0431768 0.00927984,-0.078814 -0.0941943,-0.119937 0,0 -0.0911011,-0.0247278 -0.145722,-0.0164626"/>
     </g>
    </g>
   </g>
   <g>
    <path id="_230408752" class="fil0 str0" d="M0.765301 1.21627c-0.0167332,-0.0203431 -0.00540555,-0.0289218 -0.027901,-0.0418423 -0.00343151,-0.00203554 -0.00124838,-0.00256441 -0.00489513,-0.0045569 0,0 -0.00201094,-0.0018203 -0.00391733,-0.0027981 -0.00512882,-0.00253981 -0.00913224,-0.00474139 -0.0145132,-0.00709671"/>
    <polyline id="_230408680" class="fil0 str0" points="0.714074,1.15998 0.70897,1.15759 0.706024,1.15642 0.693755,1.15117 0.69132,1.16439 0.690914,1.16602 "/>
    <path id="_230408608" class="fil0 str0" d="M0.690914 1.16602c-0.000338231,0.00161121 -0.000762558,0.00319782 -0.00122378,0.00479058"/>
    <line id="_230408536" class="fil0 str0" x1="0.68969" y1="1.17081" x2="0.688885" y2= "1.17375" />
    <path id="_230408464" class="fil0 str0" d="M0.688885 1.17375c-0.000682612,0.0026505 -0.00144517,0.00534405 -0.00241682,0.00798841 -0.000596517,0.0017834 -0.00131603,0.00337001 -0.00203554,0.00512882"/>
    <line id="_230408392" class="fil0 str0" x1="0.684433" y1="1.18687" x2="0.68367" y2= "1.1886" />
    <path id="_230408320" class="fil0 str0" d="M0.68367 1.1886c-0.00114384,0.00277965 -0.00228767,0.00551009 -0.0036406,0.00826514 -0.00102084,0.00216468 -0.00225078,0.00425556 -0.0036037,0.00667238 -0.00152512,0.00269355 -0.00305023,0.0053379 -0.00470449,0.00784082 -0.00148207,0.00224463 -0.00296414,0.00438471 -0.0045323,0.00652479 -0.0018203,0.00249676 -0.00373284,0.00501812 -0.00567614,0.00750258 -0.00169731,0.00205399 -0.00351761,0.00415102 -0.0053871,0.00618041 -0.00207244,0.00241682 -0.00427401,0.00472909 -0.00656169,0.00712131 -0.00203554,0.00197404 -0.00398498,0.00389888 -0.00610661,0.00580528 -0.00241067,0.00224463 -0.00495663,0.00442775 -0.00753948,0.00661088 -0.00220158,0.00190639 -0.00448925,0.00372669 -0.00678307,0.0054855 -0.00275505,0.00214008 -0.00550395,0.00413257 -0.00834509,0.00614351 -0.00249676,0.00171576 -0.00499967,0.00347456 -0.00750258,0.00504272 -0.00300718,0.00193099 -0.00614351,0.00379434 -0.00915069,0.00563924 -0.00275505,0.00156201 -0.0053379,0.00308713 -0.00809295,0.00455075 -0.00325932,0.00174035 -0.00661088,0.00341306 -0.00999935,0.00506732"/>
    <line id="_230408248" class="fil0 str0" x1="0.586044" y1="1.28305" x2="0.584986" y2= "1.28354" />
    <path id="_230408176" class="fil0 str0" d="M0.584986 1.28354c-0.00241682,0.00122993 -0.00491358,0.00239222 -0.00753948,0.00351761 -0.00343766,0.00156816 -0.00699216,0.00296414 -0.0107681,0.0044462"/>
    <line id="_230408104" class="fil0 str0" x1="0.566679" y1="1.2915" x2="0.565283" y2= "1.29203" />
    <path id="_230408032" class="fil0 str0" d="M0.565283 1.29203c-0.00250291,0.00103929 -0.00499967,0.00201094 -0.00750258,0.00294569 -0.00381279,0.00140212 -0.00762558,0.00252136 -0.0115675,0.00379434"/>
    <line id="_230407960" class="fil0 str0" x1="0.546213" y1="1.29877" x2="0.544054" y2= "1.29951" />
    <path id="_230407888" class="fil0 str0" d="M0.544054 1.29951c-0.00237377,0.000701061 -0.00474754,0.00144517 -0.00712131,0.00210318 -0.00347456,0.000971646 -0.00699216,0.0017957 -0.0104606,0.00266895"/>
    <line id="_230407816" class="fil0 str0" x1="0.526472" y1="1.30428" x2="0.521423" y2= "1.30543" />
    <path id="_230407744" class="fil0 str0" d="M0.521423 1.30543c-0.00207244,0.000528871 -0.00415102,0.00107619 -0.00622346,0.00150052 -0.00364675,0.000744109 -0.00750258,0.00148822 -0.0112293,0.00201709"/>
    <line id="_230407672" class="fil0 str0" x1="0.503971" y1="1.30894" x2="0.498209" y2= "1.3099" />
    <path id="_230407600" class="fil0 str0" d="M0.498209 1.3099c-0.00182645,0.000295184 -0.0036898,0.000676463 -0.00559619,0.000928599 -0.00432321,0.000596517 -0.00881246,0.000977796 -0.0131787,0.00131603"/>
    <line id="_230407528" class="fil0 str0" x1="0.479434" y1="1.31214" x2="0.473505" y2= "1.31282" />
    <path id="_230407456" class="fil0 str0" d="M0.473505 1.31282c-0.00140212,0.000129143 -0.00284114,0.000252136 -0.00419407,0.000381279 -0.00817905,0.000510422 -0.0161859,0.000805605 -0.0239837,0.000805605 -0.00779777,0 -0.0158477,-0.000295184 -0.0239406,-0.000805605 -0.00152512,-0.000129143 -0.00296414,-0.000252136 -0.00436626,-0.000381279"/>
    <line id="_230407384" class="fil0 str0" x1="0.417021" y1="1.31282" x2="0.413503" y2= "1.31239" />
    <path id="_230407312" class="fil0 str0" d="M0.413503 1.31239c-0.00517186,-0.000467374 -0.0103806,-0.000867102 -0.0154664,-0.00156816 -0.00186335,-0.000252136 -0.0036406,-0.000633415 -0.00538095,-0.000928599"/>
    <line id="_230407240" class="fil0 str0" x1="0.392656" y1="1.3099" x2="0.387066" y2= "1.30905" />
    <path id="_230407168" class="fil0 str0" d="M0.387066 1.30905c-0.00389888,-0.000633415 -0.00784082,-0.00137752 -0.0116536,-0.00212163 -0.00203554,-0.000424327 -0.00410797,-0.000971646 -0.00614351,-0.00150052"/>
    <line id="_230407096" class="fil0 str0" x1="0.369269" y1="1.30543" x2="0.365284" y2= "1.30447" />
    <path id="_230407024" class="fil0 str0" d="M0.365284 1.30447c-0.00394193,-0.000891701 -0.00784082,-0.00180185 -0.0116106,-0.00285959 -0.00233072,-0.000658014 -0.0045323,-0.00137752 -0.00677692,-0.00205399"/>
    <line id="_230406952" class="fil0 str0" x1="0.346896" y1="1.29956" x2="0.343594" y2= "1.29845" />
    <path id="_230406880" class="fil0 str0" d="M0.343594 1.29845c-0.0036037,-0.00107619 -0.0072074,-0.00226307 -0.0107681,-0.00351761 -0.00249676,-0.000891701 -0.00503657,-0.0018818 -0.00745339,-0.00290264"/>
    <line id="_230406808" class="fil0 str0" x1="0.325372" y1="1.29203" x2="0.323294" y2= "1.29127" />
    <path id="_230406736" class="fil0 str0" d="M0.323294 1.29127c-0.00347456,-0.00141442 -0.00686302,-0.0027489 -0.0101715,-0.00421252 -0.00275505,-0.00121148 -0.00550395,-0.00256441 -0.00851728,-0.00400343 -0.00338846,-0.00165426 -0.00677692,-0.00330852 -0.0100424,-0.00506732 -0.0027489,-0.00146362 -0.0053748,-0.00302563 -0.00800686,-0.00457535 -0.00313633,-0.00186335 -0.00618656,-0.00368365 -0.00919374,-0.00561464 -0.0026259,-0.00156816 -0.00504272,-0.00332697 -0.00745954,-0.00504272 -0.00283499,-0.00201094 -0.00563309,-0.00400343 -0.00834509,-0.00614351 -0.00241682,-0.0017588 -0.00466144,-0.0036406 -0.00686302,-0.0054855 -0.00258286,-0.00218313 -0.00508577,-0.00442775 -0.00750258,-0.00659244 -0.00207244,-0.00192484 -0.00410797,-0.00384969 -0.00614351,-0.00595287 -0.00224463,-0.00226307 -0.0044462,-0.00457535 -0.00661088,-0.00701061 -0.00177725,-0.00201094 -0.00359755,-0.00410797 -0.00529486,-0.00616196 -0.00203554,-0.00248446 -0.00389888,-0.00498122 -0.00614351,-0.008136 -0.00143902,-0.00188795 -0.00275505,-0.00383739 -0.00406492,-0.00589137 -0.00165426,-0.00254596 -0.00317937,-0.00523336 -0.00474754,-0.00784082"/>
    <line id="_230406664" class="fil0 str0" x1="0.214186" y1="1.20354" x2="0.213547" y2= "1.20233" />
    <path id="_230406592" class="fil0 str0" d="M0.213547 1.20233c-0.00105774,-0.00188795 -0.00207244,-0.0036652 -0.00296414,-0.00546705 -0.00130988,-0.00275505 -0.00249676,-0.0054855 -0.00368365,-0.00834509"/>
    <line id="_230406520" class="fil0 str0" x1="0.206899" y1="1.18852" x2="0.20618" y2= "1.18687" />
    <path id="_230406448" class="fil0 str0" d="M0.20618 1.18687c-0.000682612,-0.00180185 -0.00144517,-0.00343151 -0.00203554,-0.00517186 -0.000977796,-0.0026259 -0.00165426,-0.00544245 -0.00258286,-0.00872637"/>
    <line id="_230406376" class="fil0 str0" x1="0.201561" y1="1.17297" x2="0.200965" y2= "1.17096" />
    <path id="_230406304" class="fil0 str0" d="M0.200965 1.17096c-0.000510422,-0.00167271 -0.000928599,-0.00322242 -0.00131603,-0.00502427"/>
    <polyline id="_230406232" class="fil0 str0" points="0.199649,1.16593 0.199231,1.16445 0.196475,1.15138 0.184145,1.15649 "/>
    <path id="_230406160" class="fil0 str0" d="M0.184145 1.15649c-0.00461839,0.00190639 -0.00940898,0.00389888 -0.0139413,0.00590982"/>
    <line id="_230406088" class="fil0 str0" x1="0.170204" y1="1.1624" x2="0.169103" y2= "1.16293" />
    <path id="_230406016" class="fil0 str0" d="M0.169103 1.16293c-0.00453845,0.00205399 -0.00889856,0.00423712 -0.0131787,0.00642024"/>
    <line id="_230405944" class="fil0 str0" x1="0.155925" y1="1.16935" x2="0.150162" y2= "1.17233" />
    <path id="_230405872" class="fil0 str0" d="M0.150162 1.17233c-0.00258901,0.00141442 -0.00616811,0.00281654 -0.00904615,0.00446465 -0.0431829,0.0247278 -0.0778608,0.0961868 -0.0778608,0.0961868"/>
    <polyline id="_230405800" class="fil0 str0" points="0.0632554,1.27299 0.0632554,1.52767 0.790022,1.52767 "/>
    <path id="_230405728" class="fil0 str2" d="M0.213971 0.682465c-0.00520876,0.0152758 -0.00935978,0.0312895 -0.012367,0.0481764 -0.0225016,0.149683 -0.0450032,0.299384 -0.0675048,0.449128 0.0204661,-0.0121825 0.0444928,-0.0231166 0.0713115,-0.032544 0.00161736,-0.000485823 0.00317937,-0.00107619 0.00479058,-0.00169731 0.00398498,-0.00126683 0.00809295,-0.00266895 0.012164,-0.00396038 0.00156201,-0.00035668 0.00292109,-0.00091015 0.00440316,-0.00133448 0.00457535,-0.00137752 0.00919374,-0.00266895 0.0138552,-0.00397883 0.00106389,-0.000319782 0.00199249,-0.000553469 0.00301333,-0.000891701 0.00516571,-0.00140212 0.0104606,-0.00269355 0.0158046,-0.00396038 0.000461224,-0.000153741 0.000885551,-0.000233687 0.00135293,-0.00036283 0.0233441,-0.00567614 0.0541724,-0.0102084 0.0800624,-0.0135784 -0.000934748,-0.00680152 0.00442775,-0.0137506 0.00442775,-0.020915"/>
    <line id="_230405656" class="fil0 str2" x1="0.345285" y1="1.09655" x2="0.345285" y2= "1.00714" />
    <path id="_230405584" class="fil0 str2" d="M0.345285 1.00714c0.043392,0.0241928 0.0887703,0.0387306 0.13017,0.0387306 0.0415225,0 0.0867778,-0.0145378 0.130164,-0.0387306"/>
    <line id="_230405512" class="fil0 str2" x1="0.605618" y1="1.00714" x2="0.605618" y2= "1.09655" />
    <path id="_230405440" class="fil0 str2" d="M0.605618 1.09655c0,0.00716435 -0.0275197,0.0141135 -0.0285344,0.020915 0.0260131,0.00337001 0.037433,0.00798841 0.0608632,0.0136399 0.000301333,6.76463e-005 -0.00620501,0.000147592 -0.00590367,0.000147592 0.00550395,0.00137752 0.00764403,0.002712 0.013025,0.00424327 0.000676463,0.000209088 -0.000276735,0.000375129 0.000405878,0.000528871 0.00495663,0.00142057 0.0090892,0.00283499 0.0138736,0.00429861 0.00101469,0.000276735 0.00159276,0.000633415 0.00256441,0.00091015 0.0342352,0.0106328 0.0643008,0.023627 0.0893423,0.0385399 -0.0225447,-0.149744 -0.0451078,-0.299445 -0.0676032,-0.449128 -0.00297029,-0.016887 -0.0071828,-0.0329007 -0.0123977,-0.0481764"/>
    <path id="_230405368" class="fil0 str2" d="M0.690914 0.756088c-0.00127298,-0.00835124 -0.00436011,-0.0169485 -0.00554699,-0.0252567 -0.00305023,-0.0169239 -0.0072443,-0.0330483 -0.0125023,-0.0483671"/>
    <line id="_230405296" class="fil0 str2" x1="0.258507" y1="0.692421" x2="0.258507" y2= "0.871954" />
    <path id="_230405224" class="fil0 str2" d="M0.258507 0.871954c0,0.0960392 0.088346,0.173919 0.184404,0.173919 0.0960146,0 0.184404,-0.0778793 0.184404,-0.173919"/>
    <line id="_230405152" class="fil0 str2" x1="0.627314" y1="0.871954" x2="0.627314" y2= "0.670725" />
    <g>
     <path id="_230405080" class="fil0 str1" d="M1.09401 1.09752c-0.0779223,0.00923679 -0.156527,0.025023 -0.241313,0.0473278 -0.0414426,0.0111247 -0.073513,0.0447695 -0.073513,0.0816306"/>
     <polyline id="_230405008" class="fil0 str1" points="0.77918,1.22648 0.77918,1.52767 1.73374,1.52767 1.73374,1.22648 "/>
     <path id="_230404936" class="fil0 str1" d="M1.73374 1.22648c0,-0.0368611 -0.0306991,-0.074171 -0.0721786,-0.0852281 -0.0927123,-0.024451 -0.178316,-0.0391979 -0.263144,-0.0480104"/>
     <g>
      <path id="_230404864" class="fil0 str0" d="M1.49497 0.534307c-0.000971646,-0.0054855 -0.00224463,-0.0109894 -0.00380664,-0.0165241"/>
      <path id="_230404792" class="fil0 str0" d="M1.00964 0.517783c-0.0128405,0.0455321 -0.00520876,0.0914208 -0.00372669,0.113474 0.00288419,0.0248077 0.00576223,0.0493633 0.00856033,0.0742141 -0.00411412,-0.00233072 -0.00915684,-0.00347456 -0.0142365,-0.00290264 -0.0133509,0.00140212 -0.0232642,0.0133694 -0.0218251,0.0268064"/>
      <line id="_230404720" class="fil0 str0" x1="0.978411" y1="0.729374" x2="0.991842" y2= "0.859415" />
      <path id="_230404648" class="fil0 str0" d="M0.991842 0.859415c0.00131603,0.0134309 0.0133079,0.0232826 0.0269109,0.0219235 0.00605741,-0.000676463 0.0112723,-0.00359755 0.0152081,-0.00779777 0.00326547,0.0283069 0.00652479,0.0563555 0.00987635,0.0844902 0.00194944,0.0223356 0.0223725,0.0490681 0.0507162,0.0672711 0.00423712,0.0303178 0.00860337,0.122052 0.0127974,0.152475"/>
      <polyline id="_230404576" class="fil0 str0" points="1.10735,1.17778 1.23845,1.29409 1.39337,1.17778 "/>
      <path id="_230404504" class="fil0 str0" d="M1.39337 1.17778c0.00436626,-0.0303178 0.00864642,-0.122157 0.0130065,-0.152475 0.0282638,-0.018203 0.048773,-0.0449356 0.0505072,-0.0672711 0.00338846,-0.0281347 0.00669698,-0.0561833 0.00987635,-0.0844902 0.00398498,0.00420022 0.00923679,0.00712131 0.0153373,0.00779777 0.0134739,0.00135907 0.0255518,-0.00849268 0.0269048,-0.0219235"/>
      <line id="_230404432" class="fil0 str0" x1="1.509" y1="0.859415" x2="1.52247" y2= "0.729374" />
      <path id="_230404360" class="fil0 str0" d="M1.52247 0.729374c0.00135907,-0.013437 -0.00838814,-0.0254042 -0.021819,-0.0268064 -0.00508577,-0.000571918 -0.00999935,0.000571918 -0.0142795,0.00290264 0.00292109,-0.0248508 0.00580528,-0.0494064 0.00851728,-0.0742141 0.00135293,-0.0194083 0.00733039,-0.057241 7.99456e-005,-0.0969494"/>
      <polyline id="_230404312" class="fil0 str1" points="1.27633,1.05943 1.15099,1.04858 1.05938,0.950959 "/>
     </g>
    </g>
   </g>
  </g>
 </g>
</svg>
