<?xml version="1.0" encoding="UTF-8"?>
<!DOCTYPE svg PUBLIC "-//W3C//DTD SVG 1.1//EN" "http://www.w3.org/Graphics/SVG/1.1/DTD/svg11.dtd">
<!-- Creator: CorelDRAW -->
<svg xmlns="http://www.w3.org/2000/svg" xml:space="preserve" width="35px" height="35px" style="shape-rendering:geometricPrecision; text-rendering:geometricPrecision; image-rendering:optimizeQuality; fill-rule:evenodd; clip-rule:evenodd"
viewBox="0 0 0.282714 0.282714"
 xmlns:xlink="http://www.w3.org/1999/xlink">
 <defs>
  <style type="text/css">
   <![CDATA[
    .fil1 {fill:white;fill-rule:nonzero}
    .fil0 {fill:white;fill-rule:nonzero;fill-opacity:0.400000}
   ]]>
  </style>
 </defs>
 <g id="Layer_x0020_1">
  <metadata id="CorelCorpID_0Corel-Layer"/>
  <g id="_210240912">
   <path id="_210240936" class="fil0" d="M0.141357 0.282714c0.0780672,0 0.141357,-0.063285 0.141357,-0.141357 0,-0.0780627 -0.0632895,-0.141357 -0.141357,-0.141357 -0.0780741,0 -0.141357,0.0632941 -0.141357,0.141357 0,0.0780718 0.0632827,0.141357 0.141357,0.141357z"/>
   <path id="_210241008" class="fil1" d="M0.105008 0.121162l0.0161561 0 0 -0.0127696c0,-0.00608373 -0.00120667,-0.0154692 0.00321016,-0.0212919 0.00466182,-0.00615242 0.0103769,-0.0103334 0.021372,-0.0103334 0.0179146,0 0.0251203,0.0025553 0.0251203,0.0025553l-0.00371847 0.02104c0,0 -0.00584102,-0.00171269 -0.0113638,-0.00171269 -0.00552962,0 -0.0103884,0.00198059 -0.0103884,0.00750105l0 0.0150113 0.0242319 0 0 0.0242342 -0.0242319 0 0 0.0726979 -0.0242319 0 0 -0.0726979 -0.0161561 0 0 -0.0242342z"/>
  </g>
 </g>
</svg>
