<?xml version="1.0" encoding="UTF-8"?>
<!DOCTYPE svg PUBLIC "-//W3C//DTD SVG 1.1//EN" "http://www.w3.org/Graphics/SVG/1.1/DTD/svg11.dtd">
<!-- Creator: CorelDRAW -->
<svg xmlns="http://www.w3.org/2000/svg" xml:space="preserve" width="86px" height="61px" style="shape-rendering:geometricPrecision; text-rendering:geometricPrecision; image-rendering:optimizeQuality; fill-rule:evenodd; clip-rule:evenodd"
viewBox="0 0 1.61312 1.13533"
 xmlns:xlink="http://www.w3.org/1999/xlink">
 <defs>
  <style type="text/css">
   <![CDATA[
    .str2 {stroke:white;stroke-width:0.0597342}
    .str1 {stroke:white;stroke-width:0.0597342;stroke-linejoin:round}
    .str0 {stroke:white;stroke-width:0.0597342;stroke-linecap:round;stroke-linejoin:round}
    .fil0 {fill:none;fill-rule:nonzero}
   ]]>
  </style>
 </defs>
 <g id="Layer_x0020_1">
  <metadata id="CorelCorpID_0Corel-Layer"/>
  <g id="_230409976">
   <path id="_230411560" class="fil0 str0" d="M0.692805 0.773682c-0.0183949,-0.0125587 -0.0389065,-0.0240167 -0.0594802,-0.0324324 -0.0330195,0.208976 -0.434118,0.208372 -0.470677,0.00322857 -0.162873,0.0347636 -0.130085,0.360979 -0.130085,0.360979"/>
   <line id="_230411488" class="fil0 str0" x1="0.0325623" y1="1.10546" x2="0.776578" y2= "1.10546" />
   <path id="_230411416" class="fil0 str1" d="M0.167355 0.73372c0.00377043,-0.00124176 0.00765938,-0.00248916 0.0115088,-0.00369141 0.00143931,-0.00038946 0.00276573,-0.000897452 0.00420504,-0.00132078 0.00427277,-0.00128691 0.00870923,-0.00252867 0.0130667,-0.00373656 0.00101034,-0.000293506 0.00190215,-0.000564435 0.00287297,-0.000852297 0.00490494,-0.00132642 0.00987761,-0.00252867 0.014935,-0.00373656 0.000468481,-0.000158042 0.000818431,-0.000231418 0.0012474,-0.000366883 0.0221259,-0.00535084 0.0579844,-0.00966877 0.082526,-0.0128917 -0.000857941,-0.00638376 0.0109275,-0.0129143 0.0109275,-0.0196649"/>
   <line id="_230411344" class="fil0 str1" x1="0.308644" y1="0.687459" x2="0.308644" y2= "0.602896" />
   <path id="_230411272" class="fil0 str1" d="M0.308644 0.602896c0.0199133,0.0228878 0.0504831,0.0365585 0.0896041,0.0365585 0.0392395,0 0.0696908,-0.0136706 0.0896041,-0.0365585"/>
   <line id="_230411200" class="fil0 str1" x1="0.487853" y1="0.602896" x2="0.487853" y2= "0.687459" />
   <path id="_230411128" class="fil0 str1" d="M0.487853 0.687459c0,0.00675064 0.000699899,0.0132812 -0.000270929,0.0196649 0.0246545,0.00322292 0.0487841,0.00761987 0.0709156,0.0129481 0.000270929,7.90209e-005 0.000835364,0.000135464 0.0011458,0.000152397 0.00521538,0.00130384 0.0105211,0.00256818 0.0156123,0.00403007 0.000666033,0.000152397 0.00142238,0.000327372 0.00208277,0.000564435 0.0047469,0.00124176 0.00941478,0.00260205 0.0139641,0.00400184 0.00101034,0.000237063 0.00190215,0.000603946 0.00283911,0.000857941 0.0323591,0.01003 0.0610154,0.0223403 0.0847048,0.0364173 -0.0212736,-0.141577 -0.0425697,-0.283177 -0.0638037,-0.424743 -0.0239546,-0.134093 -0.126179,-0.216816 -0.227953,-0.216816 -0.1017,0 -0.203947,0.0827236 -0.227862,0.216816 -0.0212736,0.141566 -0.0425471,0.283166 -0.0638207,0.424743 0.0193658,-0.0115088 0.0420786,-0.0218549 0.0674331,-0.0307391 0.00151833,-0.000468481 0.00303666,-0.00101034 0.00451548,-0.00163686"/>
   <path id="_230411056" class="fil0 str1" d="M0.630739 0.356932c-0.0012474,-0.00789645 -0.00850039,-0.011808 -0.00962926,-0.0196198 -0.0239151,-0.134098 -0.129177,-0.214835 -0.23095,-0.214835 -0.101739,0 -0.205516,0.0756625 -0.229437,0.209761 -0.00120789,0.00785129 -0.00383251,0.0165662 -0.00503476,0.0165662 0.132462,0 0.421768,0 0.421768,0"/>
   <line id="_230410984" class="fil0 str1" x1="0.228997" y1="0.348804" x2="0.228997" y2= "0.475062" />
   <path id="_230410912" class="fil0 str1" d="M0.228997 0.475062c0,0.0908063 0.0784,0.164392 0.169251,0.164392 0.0907724,0 0.169251,-0.0735854 0.169251,-0.164392"/>
   <line id="_230410840" class="fil0 str1" x1="0.5675" y1="0.475062" x2="0.5675" y2= "0.348804" />
   <path id="_230410768" class="fil0 str1" d="M0.5675 0.348804c-0.119474,0 -0.219035,0 -0.338503,0"/>
   <g>
    <path id="_230410696" class="fil0 str2" d="M0.989776 0.688882c-0.0714462,0.00847781 -0.144795,0.0229443 -0.222534,0.0434389 -0.0380373,0.0102106 -0.0686805,0.0519393 -0.0686014,0.0858167 -0.00373656,0.0313826 -0.00073941,0.247499 0,0.28732"/>
    <line id="_230410624" class="fil0 str2" x1="0.698641" y1="1.10546" x2="1.58146" y2= "1.10546" />
    <path id="_230410552" class="fil0 str2" d="M1.58146 1.10546c0.000660389,-0.0398209 0.00369705,-0.255937 0,-0.28732 7.90209e-005,-0.0338774 -0.0305698,-0.0735064 -0.0686014,-0.083638 -0.0850547,-0.0224363 -0.164781,-0.038771 -0.242639,-0.0468255"/>
    <g>
     <path id="_230410480" class="fil0 str0" d="M1.26442 0.762501c0.00396798,-0.0277646 0.00793596,-0.112046 0.0119039,-0.139833 0.0259753,-0.0167411 0.0447597,-0.0412433 0.0463571,-0.0617548 0.00311004,-0.0258229 0.0061467,-0.0515894 0.00905918,-0.0774913 0.00365754,0.00380994 0.00847781,0.00649665 0.014077,0.00711753 0.0123724,0.00126433 0.0234128,-0.00779485 0.0246602,-0.0201052"/>
     <line id="_230410408" class="fil0 str0" x1="1.37048" y1="0.470434" x2="1.38288" y2= "0.351175" />
     <path id="_230410336" class="fil0 str0" d="M1.38288 0.351175c0.00124176,-0.0123498 -0.00769889,-0.0233733 -0.0200318,-0.0245981 -0.00470174,-0.000547502 -0.00921722,0.000507992 -0.0131005,0.00260205 0.00264156,-0.0227467 0.00528311,-0.0452846 0.00781178,-0.0680539 0.0020997,-0.0310947 0.0174636,-0.113954 -0.0423891,-0.167462 -0.0866464,-0.0850547 -0.27725,-0.0850547 -0.363824,0 -0.0598527,0.0535084 -0.0444888,0.136368 -0.0423891,0.167462 0.00260769,0.0227693 0.00528876,0.0453072 0.00785694,0.0680539 -0.00380994,-0.00209405 -0.00844395,-0.00314955 -0.0131062,-0.00260205 -0.0122144,0.00122482 -0.0213131,0.0122482 -0.0199923,0.0245981"/>
     <line id="_230410264" class="fil0 str0" x1="0.883719" y1="0.351175" x2="0.896046" y2= "0.470434" />
     <path id="_230410192" class="fil0 str0" d="M0.896046 0.470434c0.00120789,0.0123103 0.0122144,0.0213695 0.0246602,0.0201052 0.00555969,-0.000620879 0.0103856,-0.00330759 0.013998,-0.00711753 0.00295764,0.0259019 0.00598866,0.0516684 0.00906483,0.0774913 0.00174975,0.0205116 0.0204946,0.0450137 0.0465094,0.0617548 0.00388896,0.0277871 0.00789645,0.11199 0.0117459,0.139833"/>
     <polyline id="_230410120" class="fil0 str0" points="1.00202,0.762501 1.12232,0.869219 1.26442,0.762501 "/>
     <polyline id="_230410072" class="fil0 str2" points="1.17482,0.667394 1.08187,0.667394 0.97947,0.619908 "/>
    </g>
   </g>
  </g>
 </g>
</svg>
