<?xml version="1.0" encoding="UTF-8"?>
<!DOCTYPE svg PUBLIC "-//W3C//DTD SVG 1.1//EN" "http://www.w3.org/Graphics/SVG/1.1/DTD/svg11.dtd">
<!-- Creator: CorelDRAW -->
<svg xmlns="http://www.w3.org/2000/svg" xml:space="preserve" width="35px" height="35px" style="shape-rendering:geometricPrecision; text-rendering:geometricPrecision; image-rendering:optimizeQuality; fill-rule:evenodd; clip-rule:evenodd"
viewBox="0 0 0.297359 0.297359"
 xmlns:xlink="http://www.w3.org/1999/xlink">
 <defs>
  <style type="text/css">
   <![CDATA[
    .fil1 {fill:#161922;fill-rule:nonzero}
    .fil0 {fill:#DAE409;fill-rule:nonzero}
   ]]>
  </style>
 </defs>
 <g id="Layer_x0020_1">
  <metadata id="CorelCorpID_0Corel-Layer"/>
  <path class="fil0" d="M0.148679 0.297359c0.0821281,0 0.148679,-0.0665681 0.148679,-0.148679 0,-0.0821065 -0.0665512,-0.148679 -0.148679,-0.148679 -0.0821161,0 -0.148679,0.0665729 -0.148679,0.148679 0,0.0821113 0.0665632,0.148679 0.148679,0.148679z"/>
  <path class="fil1" d="M0.110447 0.212398l-0.0254871 0 0 -0.0849603 0.0254871 0 0 0.0849603zm-0.0124293 -0.101951l0 0 -0.000207115 0c-0.0101968,0 -0.0168004,-0.00610506 -0.0168004,-0.0148352 0,-0.00889388 0.00680347,-0.0152566 0.0172074,-0.0152566 0.010387,0 0.0167763,0.006146 0.0169762,0.0150399 0,0.00873012 -0.00658913,0.0150519 -0.0171761,0.0150519zm0.127491 0.102979l0 0 -0.0319438 0 0 -0.0466441c0,-0.0122125 -0.0049852,-0.0205429 -0.0159791,-0.0205429 -0.00839536,0 -0.0130675,0.00562581 -0.0152494,0.0110517 -0.000814008,0.0019411 -0.000681551,0.00464563 -0.000681551,0.00736702l0 0.0487682 -0.0316428 0c0,0 0.000414229,-0.0826194 0,-0.0901358l0.0316428 0 0 0.0141464c0.00186885,-0.00618213 0.0119741,-0.0150086 0.0281098,-0.0150086 0.020013,0 0.0357441,0.0129591 0.0357441,0.0408786l0 0.0501193z"/>
 </g>
</svg>
