<?xml version="1.0" encoding="UTF-8"?>
<!DOCTYPE svg PUBLIC "-//W3C//DTD SVG 1.1//EN" "http://www.w3.org/Graphics/SVG/1.1/DTD/svg11.dtd">
<!-- Creator: CorelDRAW -->
<svg xmlns="http://www.w3.org/2000/svg" xml:space="preserve" width="76px" height="89px" style="shape-rendering:geometricPrecision; text-rendering:geometricPrecision; image-rendering:optimizeQuality; fill-rule:evenodd; clip-rule:evenodd"
viewBox="0 0 1.25169 1.46324"
 xmlns:xlink="http://www.w3.org/1999/xlink">
 <defs>
  <style type="text/css">
   <![CDATA[
    .str0 {stroke:white;stroke-width:0.0528863}
    .str1 {stroke:white;stroke-width:0.0528863;stroke-linecap:round;stroke-linejoin:round}
    .fil0 {fill:none;fill-rule:nonzero}
   ]]>
  </style>
 </defs>
 <g id="Layer_x0020_1">
  <metadata id="CorelCorpID_0Corel-Layer"/>
  <g id="_227758912">
   <path id="_227760640" class="fil0 str0" d="M0.429547 1.18237c-8.49539e-005,-0.000394786 0.00816057,-0.113074 -0.0340715,-0.169373 -0.144961,-0.186584 -0.153966,-0.364082 -0.153966,-0.376601 0,-0.21238 0.171992,-0.384401 0.384316,-0.384401 0.21236,0 0.384386,0.172022 0.384386,0.384401 0,0.0125182 -0.00926497,0.190137 -0.154051,0.376601 -0.042387,0.0562994 -0.0351059,0.169013 -0.035016,0.169373"/>
   <g>
    <line id="_227760568" class="fil0 str0" x1="0.528988" y1="1.18077" x2="0.456852" y2= "0.735731" />
    <line id="_227760520" class="fil0 str0" x1="0.722768" y1="1.1808" x2="0.794874" y2= "0.735731" />
   </g>
   <polyline id="_227760400" class="fil0 str0" points="0.461445,0.755515 0.494761,0.783575 0.528073,0.755515 0.56142,0.783575 0.594697,0.755515 0.628014,0.783575 0.661361,0.755515 0.694723,0.783575 0.72809,0.755515 0.761507,0.783575 0.794924,0.755515 "/>
   <g>
    <line id="_227760328" class="fil0 str0" x1="0.608215" y1="0" x2="0.608215" y2= "0.123403" />
    <line id="_227760256" class="fil0 str0" x1="0.303695" y1="0.0838595" x2="0.368375" y2= "0.195884" />
    <line id="_227760184" class="fil0 str0" x1="0.077473" y1="0.317123" x2="0.189537" y2= "0.381768" />
    <line id="_227760112" class="fil0 str0" x1="-0" y1="0.62584" x2="0.123408" y2= "0.62584" />
    <line id="_227760040" class="fil0 str0" x1="1.25169" y1="0.60821" x2="1.12828" y2= "0.60821" />
    <line id="_227759968" class="fil0 str0" x1="1.16464" y1="0.300492" x2="1.05256" y2= "0.365157" />
    <line id="_227759896" class="fil0 str0" x1="0.931394" y1="0.0742347" x2="0.86668" y2= "0.186294" />
    <line id="_227759824" class="fil0 str0" x1="1.16943" y1="0.934578" x2="1.05737" y2= "0.869898" />
    <line id="_227759776" class="fil0 str0" x1="0.0822604" y1="0.951209" x2="0.19434" y2= "0.886509" />
   </g>
   <path id="_227759656" class="fil0 str1" d="M0.84688 1.28394c0,-0.0148719 -0.0101045,-0.0272502 -0.0238271,-0.0311431 0.0137226,-0.00382293 0.0238271,-0.0304385 0.0238271,-0.0453304 0,-0.0174905 -0.0138925,-0.033087 -0.031278,-0.033087"/>
   <polyline id="_227759584" class="fil0 str1" points="0.815602,1.17438 0.750313,1.15472 0.501373,1.15472 0.436088,1.17438 "/>
   <path id="_227759512" class="fil0 str1" d="M0.436088 1.17438c-0.0173706,0 -0.031283,0.0137226 -0.031283,0.0312131 0,0.0148719 0.0101045,0.0439511 0.0238271,0.0477741 -0.0137226,0.00388789 -0.0238271,0.0159913 -0.0238271,0.0308483 0,0.0148919 0.0101045,0.0271503 0.0238271,0.0309932 -0.0137226,0.0038729 -0.0259109,0.0162012 -0.0259109,0.0310731 0,0.0174755 0.0115687,0.0315579 0.0291992,0.0322825"/>
   <line id="_227759440" class="fil0 str1" x1="0.431921" y1="1.37857" x2="0.431921" y2= "1.38141" />
   <path id="_227759368" class="fil0 str1" d="M0.431921 1.38141c0,0.023932 0.0236572,0.0553849 0.0477091,0.0553849"/>
   <polyline id="_227759296" class="fil0 str1" points="0.47963,1.43679 0.544894,1.43679 0.706776,1.43679 0.772076,1.43679 "/>
   <path id="_227759224" class="fil0 str1" d="M0.772076 1.43679c0.024037,0 0.0476891,-0.0314529 0.0476891,-0.0553849"/>
   <line id="_227759152" class="fil0 str1" x1="0.819765" y1="1.38141" x2="0.819765" y2= "1.37857" />
   <path id="_227759080" class="fil0 str1" d="M0.819765 1.37857c0.0176304,-0.000724607 0.0291992,-0.0148769 0.0291992,-0.0323524 0,-0.0148719 -0.0111589,-0.0272702 -0.0248615,-0.0311431 0.0137026,-0.00383792 0.0227776,-0.0162512 0.0227776,-0.0311281"/>
   <line id="_227759008" class="fil0 str0" x1="0.423105" y1="1.24287" x2="0.740433" y2= "1.24287" />
   <line id="_227758960" class="fil0 str0" x1="0.423105" y1="1.31338" x2="0.740433" y2= "1.31338" />
  </g>
 </g>
</svg>
