<?xml version="1.0" encoding="UTF-8"?>
<!DOCTYPE svg PUBLIC "-//W3C//DTD SVG 1.1//EN" "http://www.w3.org/Graphics/SVG/1.1/DTD/svg11.dtd">
<!-- Creator: CorelDRAW -->
<svg xmlns="http://www.w3.org/2000/svg" xml:space="preserve" width="80px" height="92px" style="shape-rendering:geometricPrecision; text-rendering:geometricPrecision; image-rendering:optimizeQuality; fill-rule:evenodd; clip-rule:evenodd"
viewBox="0 0 2.05149 2.36204"
 xmlns:xlink="http://www.w3.org/1999/xlink">
 <defs>
  <style type="text/css">
   <![CDATA[
    .str0 {stroke:white;stroke-width:0.0853424;stroke-linejoin:round}
    .fil0 {fill:none;fill-rule:nonzero}
   ]]>
  </style>
 </defs>
 <g id="Layer_x0020_1">
  <metadata id="CorelCorpID_0Corel-Layer"/>
  <g id="_211313872">
   <line id="_211313896" class="fil0 str0" x1="0.828829" y1="2.08953" x2="0.335322" y2= "1.80458" />
   <line id="_211313968" class="fil0 str0" x1="1.72384" y1="1.80019" x2="1.23039" y2= "2.08509" />
   <line id="_211314040" class="fil0 str0" x1="1.87919" y1="0.91076" x2="1.87919" y2= "1.45128" />
   <line id="_211314112" class="fil0 str0" x1="1.23628" y1="0.280397" x2="1.701" y2= "0.548714" />
   <line id="_211314184" class="fil0 str0" x1="0.358264" y1="0.544238" x2="0.829772" y2= "0.27201" />
   <line id="_211314256" class="fil0 str0" x1="0.115397" y1="1.45128" x2="0.115397" y2= "0.91076" />
   <line id="_211314328" class="fil0 str0" x1="0.666756" y1="0.97374" x2="0.434663" y2= "0.83978" />
   <line id="_211314400" class="fil0 str0" x1="1.62405" y1="1.52643" x2="1.39891" y2= "1.39649" />
   <line id="_211314472" class="fil0 str0" x1="1.38802" y1="0.971878" x2="1.60883" y2= "0.844416" />
   <line id="_211314544" class="fil0 str0" x1="0.437607" y1="1.52065" x2="0.662748" y2= "1.39063" />
   <line id="_211314616" class="fil0 str0" x1="0.997296" y1="0.796967" x2="0.997296" y2= "0.512482" />
   <line id="_211314688" class="fil0 str0" x1="0.997296" y1="1.87801" x2="0.997296" y2= "1.59352" />
   <g>
    <polygon id="_211314784" class="fil0 str0" points="1.02486,0.77088 1.38257,0.975386 1.02247,1.18327 0.664748,0.978772 "/>
    <polygon id="_211314856" class="fil0 str0" points="1.38257,0.975386 1.38674,1.39091 1.02663,1.59883 1.02247,1.18327 "/>
    <polygon id="_211314928" class="fil0 str0" points="1.02247,1.18327 1.02663,1.59883 0.662748,1.39063 0.664748,0.978772 "/>
   </g>
   <g>
    <polygon id="_211315024" class="fil0 str0" points="1.80702,0.489781 2.00649,0.603832 1.80569,0.719762 1.60622,0.605743 "/>
    <polygon id="_211315096" class="fil0 str0" points="2.00649,0.603832 2.00882,0.835586 1.80802,0.951572 1.80569,0.719762 "/>
    <polygon id="_211315168" class="fil0 str0" points="1.80569,0.719762 1.80802,0.951572 1.60849,0.837473 1.60622,0.605743 "/>
   </g>
   <g>
    <polygon id="_211315264" class="fil0 str0" points="0.243471,0.489781 0.442945,0.603832 0.242141,0.719762 0.0426672,0.605743 "/>
    <polygon id="_211315336" class="fil0 str0" points="0.442945,0.603832 0.445276,0.835586 0.244471,0.951572 0.242141,0.719762 "/>
    <polygon id="_211315408" class="fil0 str0" points="0.242141,0.719762 0.244471,0.951572 0.0449412,0.837473 0.0426672,0.605743 "/>
   </g>
   <g>
    <polygon id="_211315504" class="fil0 str0" points="1.03008,0.0426672 1.22961,0.15671 1.0288,0.272647 0.829272,0.158597 "/>
    <polygon id="_211315576" class="fil0 str0" points="1.22961,0.15671 1.23194,0.38844 1.03108,0.504426 1.0288,0.272647 "/>
    <polygon id="_211315648" class="fil0 str0" points="1.0288,0.272647 1.03108,0.504426 0.831611,0.390359 0.829272,0.158597 "/>
   </g>
   <g>
    <polygon id="_211315744" class="fil0 str0" points="1.03008,1.85761 1.22961,1.97166 1.0288,2.08762 0.829272,1.97358 "/>
    <polygon id="_211315816" class="fil0 str0" points="1.22961,1.97166 1.23194,2.20344 1.03108,2.31937 1.0288,2.08762 "/>
    <polygon id="_211315888" class="fil0 str0" points="1.0288,2.08762 1.03108,2.31937 0.831611,2.20533 0.829272,1.97358 "/>
   </g>
   <g>
    <polygon id="_211315984" class="fil0 str0" points="1.80702,1.39314 2.00649,1.50715 1.80569,1.62311 1.60622,1.50907 "/>
    <polygon id="_211316056" class="fil0 str0" points="2.00649,1.50715 2.00882,1.73893 1.80802,1.85486 1.80569,1.62311 "/>
    <polygon id="_211316128" class="fil0 str0" points="1.80569,1.62311 1.80802,1.85486 1.60849,1.74085 1.60622,1.50907 "/>
   </g>
   <g>
    <polygon id="_211316224" class="fil0 str0" points="0.243471,1.39314 0.442945,1.50715 0.242141,1.62311 0.0426672,1.50907 "/>
    <polygon id="_211316296" class="fil0 str0" points="0.442945,1.50715 0.445276,1.73893 0.244471,1.85486 0.242141,1.62311 "/>
    <polygon id="_211316368" class="fil0 str0" points="0.242141,1.62311 0.244471,1.85486 0.0449412,1.74085 0.0426672,1.50907 "/>
   </g>
  </g>
 </g>
</svg>
