<?xml version="1.0" encoding="UTF-8"?>
<!DOCTYPE svg PUBLIC "-//W3C//DTD SVG 1.1//EN" "http://www.w3.org/Graphics/SVG/1.1/DTD/svg11.dtd">
<!-- Creator: CorelDRAW -->
<svg xmlns="http://www.w3.org/2000/svg" xml:space="preserve" width="40px" height="33px" style="shape-rendering:geometricPrecision; text-rendering:geometricPrecision; image-rendering:optimizeQuality; fill-rule:evenodd; clip-rule:evenodd"
viewBox="0 0 0.420317 0.344198"
 xmlns:xlink="http://www.w3.org/1999/xlink">
 <defs>
  <style type="text/css">
   <![CDATA[
    .fil0 {fill:#8D8C8E;fill-rule:nonzero}
   ]]>
  </style>
 </defs>
 <g id="Layer_x0020_1">
  <metadata id="CorelCorpID_0Corel-Layer"/>
  <g id="_210240024">
   <g>
    <g>
     <path id="_210240096" class="fil0" d="M0.41606 0.0647009l-0.0290671 0 0 -0.0592068c0,-0.00708776 0.000377851,-0.00528992 -0.00670686,-0.00528992l-0.322024 0c-0.0268,0 -0.0582622,0.0142639 -0.0582622,0.0410761l0 0.250457c0,0.0268031 0.0314622,0.0524604 0.0582622,0.0524604l0.357798 0c0.00708776,0 0.00318126,-0.00959559 0.00318126,-0.0166834l0 -0.250457c0,-0.00708471 0.00390649,-0.0123563 -0.00318126,-0.0123563zm-0.357798 -0.0429989l0 0 0.296482 0 0 0.0429989 -0.296482 0c-0.0126489,0 -0.0229362,-0.00830359 -0.0229362,-0.0209646 0,-0.0126397 0.0102873,-0.0220342 0.0229362,-0.0220342zm0.339481 0.290245l0 0 -0.339481 0c-0.0126489,0 -0.0367643,-0.00755702 -0.0367643,-0.0202089l0 -0.207614c0.0107505,0.00367186 0.0284699,0.0128287 0.0367643,0.0128287l0.339481 0 0 0.214994z"/>
    </g>
   </g>
   <g>
    <g>
     <path id="_210240216" class="fil0" d="M0.32661 0.17156c-0.0169332,0 -0.0307278,0.0137824 -0.0307278,0.0307156 0,0.0169545 0.0137946,0.030737 0.0307278,0.030737 0.0169424,0 0.0307278,-0.0137824 0.0307278,-0.030737 0,-0.0169332 -0.0137855,-0.0307156 -0.0307278,-0.0307156zm0 0.0357862l0 0c-0.00279427,0 -0.00506138,-0.00227625 -0.00506138,-0.00507052 0,-0.00278208 0.00226711,-0.00504919 0.00506138,-0.00504919 0.00279122,0 0.00505833,0.00226711 0.00505833,0.00504919 0,0.00279427 -0.00226711,0.00507052 -0.00505833,0.00507052z"/>
    </g>
   </g>
  </g>
 </g>
</svg>
