<?xml version="1.0" encoding="UTF-8"?>
<!DOCTYPE svg PUBLIC "-//W3C//DTD SVG 1.1//EN" "http://www.w3.org/Graphics/SVG/1.1/DTD/svg11.dtd">
<!-- Creator: CorelDRAW -->
<svg xmlns="http://www.w3.org/2000/svg" xml:space="preserve" width="80px" height="81px" style="shape-rendering:geometricPrecision; text-rendering:geometricPrecision; image-rendering:optimizeQuality; fill-rule:evenodd; clip-rule:evenodd"
viewBox="0 0 2.03866 2.05861"
 xmlns:xlink="http://www.w3.org/1999/xlink">
 <defs>
  <style type="text/css">
   <![CDATA[
    .str1 {stroke:white;stroke-width:0.0275207}
    .str0 {stroke:white;stroke-width:0.0825544}
    .fil0 {fill:none;fill-rule:nonzero}
   ]]>
  </style>
 </defs>
 <g id="Layer_x0020_1">
  <metadata id="CorelCorpID_0Corel-Layer"/>
  <g id="_210497896">
   <g>
    <g>
     <polyline id="_210497968" class="fil0 str0" points="0.137947,1.26766 0.329204,1.07662 0.520445,1.26766 "/>
    </g>
    <line id="_210498040" class="fil0 str0" x1="0.317596" y1="1.10103" x2="0.317596" y2= "1.60151" />
    <path id="_210498112" class="fil0 str0" d="M0.317596 1.60151c0,0.106463 0.0929839,0.173736 0.19951,0.173736"/>
    <path id="_210498184" class="fil0 str0" d="M0.517106 1.77524c0.106424,0 0.474702,0 0.474702,0"/>
   </g>
   <g>
    <g>
     <polyline id="_210498304" class="fil0 str0" points="1.90155,0.764839 1.71032,0.95594 1.51902,0.764839 "/>
    </g>
    <line id="_210498376" class="fil0 str0" x1="1.69355" y1="0.908395" x2="1.69355" y2= "0.431033" />
    <path id="_210498448" class="fil0 str0" d="M1.69355 0.431033c0,-0.106518 -0.0646597,-0.19685 -0.171139,-0.19685"/>
    <path id="_210498520" class="fil0 str0" d="M1.52241 0.234184c-0.106417,0 -0.47556,0 -0.47556,0"/>
   </g>
   <g>
    <path id="_210498616" class="fil0 str0" d="M0.831964 0.830248c-0.0877185,0.0880773 -0.204081,0.136465 -0.327838,0.136496 -0.255269,0.000156013 -0.462907,-0.207334 -0.462845,-0.462587 0,-0.123133 0.0479429,-0.239059 0.135115,-0.326567 0.0875624,-0.0879135 0.203925,-0.136309 0.327542,-0.136309 0.123461,-9.3608e-005 0.239582,0.0479663 0.327222,0.135646 0.0875,0.0874376 0.135708,0.203691 0.135817,0.327027 5.46046e-005,0.122993 -0.0478337,0.238849 -0.135014,0.326294"/>
    <g>
     <path id="_210498712" class="fil0" d="M0.831161 0.176927c-0.0876405,-0.0876795 -0.203761,-0.135739 -0.327222,-0.135646 -0.123617,0 -0.23998,0.0483953 -0.327542,0.136309 -0.0871724,0.0875078 -0.138641,0.203434 -0.138641,0.326567 -5.46046e-005,0.125676 0.0459303,0.239582 0.128485,0.323057 0,-0.0349392 0,-0.0752608 0,-0.133298 0,-0.0455481 0.0394246,-0.0985458 0.0849492,-0.11247 0.156895,-0.0467884 0.31691,-0.0467884 0.473859,0 0.0455793,0.0139242 0.0741297,0.0668127 0.0741297,0.11247 0,0.0673197 0,0.110886 0,0.149734 0,-0.00451658 0.019057,-0.00864314 0.0237296,-0.0134015 0.0871802,-0.0874454 0.139601,-0.203301 0.139546,-0.326294 -0.000109209,-0.123336 -0.0437929,-0.23959 -0.131293,-0.327027zm-0.335873 0.363807l0 0c-0.0903551,0 -0.163611,-0.0732872 -0.163611,-0.16358 0,-0.0903629 0.073256,-0.163611 0.163611,-0.163611 0.0903785,0 0.163611,0.0732482 0.163611,0.163611 0,0.0902927 -0.0732326,0.16358 -0.163611,0.16358z"/>
     <path id="_210498784" class="fil0 str1" d="M0.831161 0.176927c-0.0876405,-0.0876795 -0.203761,-0.135739 -0.327222,-0.135646 -0.123617,0 -0.23998,0.0483953 -0.327542,0.136309 -0.0871724,0.0875078 -0.138641,0.203434 -0.138641,0.326567 -5.46046e-005,0.125676 0.0459303,0.239582 0.128485,0.323057 0,-0.0349392 0,-0.0752608 0,-0.133298 0,-0.0455481 0.0394246,-0.0985458 0.0849492,-0.11247 0.156895,-0.0467884 0.31691,-0.0467884 0.473859,0 0.0455793,0.0139242 0.0741297,0.0668127 0.0741297,0.11247 0,0.0673197 0,0.110886 0,0.149734 0,-0.00451658 0.019057,-0.00864314 0.0237296,-0.0134015 0.0871802,-0.0874454 0.139601,-0.203301 0.139546,-0.326294 -0.000109209,-0.123336 -0.0437929,-0.23959 -0.131293,-0.327027zm-0.335873 0.363807l0 0c-0.0903551,0 -0.163611,-0.0732872 -0.163611,-0.16358 0,-0.0903629 0.073256,-0.163611 0.163611,-0.163611 0.0903785,0 0.163611,0.0732482 0.163611,0.163611 0,0.0902927 -0.0732326,0.16358 -0.163611,0.16358z"/>
    </g>
    <path id="_210498904" class="fil0 str0" d="M0.733684 0.581446c-0.156942,-0.0467884 -0.333572,-0.0467884 -0.490459,0 -0.0455247,0.0139242 -0.0907451,0.0669219 -0.0907451,0.11247 0,0.0580369 0,0.0983586 0,0.133298 0.0550415,0.0429193 0.110075,0.0777726 0.165117,0.101853"/>
    <polygon id="_210498976" class="fil0 str0" points="0.317596,0.929067 0.317596,0.721756 "/>
    <path id="_210499048" class="fil0 str0" d="M0.317596 0.929067c0.0550337,0.0242367 0.108983,0.0377006 0.173939,0.0376772 0.0574285,0 0.101253,-0.0108585 0.156286,-0.0308282"/>
    <polygon id="_210499120" class="fil0 str0" points="0.647822,0.935916 0.647822,0.721756 "/>
    <path id="_210499192" class="fil0 str0" d="M0.647822 0.935916c0.0550415,-0.020742 0.110075,-0.051851 0.165117,-0.0922662 0,-0.0388473 0,-0.082414 0,-0.149734 0,-0.0456573 -0.0336755,-0.0985458 -0.0792547,-0.11247"/>
    <path id="_210499264" class="fil0 str0" d="M0.495288 0.213543c-0.0903551,0 -0.163611,0.0732482 -0.163611,0.163611 0,0.0902927 0.073256,0.16358 0.163611,0.16358 0.0903785,0 0.163611,-0.0732872 0.163611,-0.16358 0,-0.0903629 -0.0732326,-0.163611 -0.163611,-0.163611"/>
   </g>
   <g>
    <path id="_210498880" class="fil0 str0" d="M1.86235 1.88083c-0.0877497,0.0880695 -0.204112,0.136465 -0.327838,0.136496 -0.255253,0.000187216 -0.462884,-0.207334 -0.462829,-0.462595 0,-0.123126 0.0479429,-0.239036 0.135123,-0.326559 0.0875078,-0.0879057 0.203894,-0.136309 0.327487,-0.136309 0.123516,-7.80066e-005 0.239613,0.0479585 0.327277,0.135646 0.0874688,0.087422 0.135685,0.203691 0.135817,0.327035 5.46046e-005,0.122985 -0.0478883,0.238841 -0.135037,0.326286"/>
    <g>
     <path id="_210499432" class="fil0" d="M1.86157 1.22751c-0.0876639,-0.0876873 -0.203761,-0.135724 -0.327277,-0.135646 -0.123594,0 -0.23998,0.0484031 -0.327487,0.136309 -0.0871802,0.0875234 -0.144741,0.203434 -0.144741,0.326559 -5.46046e-005,0.125676 0.0398302,0.239597 0.122385,0.32308 0,-0.0349548 0,-0.0752608 0,-0.133313 0,-0.0455403 0.0455247,-0.0985224 0.0909947,-0.11247 0.156949,-0.0467806 0.327698,-0.0467806 0.484616,0 0.0456105,0.0139476 0.0848478,0.0668127 0.0848478,0.11247 0,0.0673197 0,0.11091 0,0.149726 0,-0.00449318 0.0113656,-0.00863533 0.0160694,-0.0133937 0.087149,-0.0874454 0.135778,-0.203301 0.135724,-0.326286 -0.000132611,-0.123344 -0.0476621,-0.239613 -0.135131,-0.327035zm-0.335873 0.363807l0 0c-0.0903551,0 -0.163611,-0.0732716 -0.163611,-0.16358 0,-0.0903785 0.073256,-0.163596 0.163611,-0.163596 0.0903473,0 0.163603,0.073217 0.163603,0.163596 0,0.0903083 -0.073256,0.16358 -0.163603,0.16358z"/>
     <path id="_210499504" class="fil0 str1" d="M1.86157 1.22751c-0.0876639,-0.0876873 -0.203761,-0.135724 -0.327277,-0.135646 -0.123594,0 -0.23998,0.0484031 -0.327487,0.136309 -0.0871802,0.0875234 -0.144741,0.203434 -0.144741,0.326559 -5.46046e-005,0.125676 0.0398302,0.239597 0.122385,0.32308 0,-0.0349548 0,-0.0752608 0,-0.133313 0,-0.0455403 0.0455247,-0.0985224 0.0909947,-0.11247 0.156949,-0.0467806 0.327698,-0.0467806 0.484616,0 0.0456105,0.0139476 0.0848478,0.0668127 0.0848478,0.11247 0,0.0673197 0,0.11091 0,0.149726 0,-0.00449318 0.0113656,-0.00863533 0.0160694,-0.0133937 0.087149,-0.0874454 0.135778,-0.203301 0.135724,-0.326286 -0.000132611,-0.123344 -0.0476621,-0.239613 -0.135131,-0.327035zm-0.335873 0.363807l0 0c-0.0903551,0 -0.163611,-0.0732716 -0.163611,-0.16358 0,-0.0903785 0.073256,-0.163596 0.163611,-0.163596 0.0903473,0 0.163603,0.073217 0.163603,0.163596 0,0.0903083 -0.073256,0.16358 -0.163603,0.16358z"/>
    </g>
    <path id="_210499600" class="fil0 str0" d="M1.75799 1.63203c-0.156918,-0.0467806 -0.322846,-0.0467806 -0.479795,0 -0.0454701,0.0139476 -0.079988,0.0669297 -0.079988,0.11247 0,0.0580525 0,0.0983586 0,0.133313 0.0275207,0.0429036 0.0825544,0.077757 0.137596,0.101838"/>
    <polygon id="_210499672" class="fil0 str0" points="1.3358,1.97965 1.3358,1.77237 "/>
    <path id="_210499744" class="fil0 str0" d="M1.3358 1.97965c0.0550337,0.0242367 0.122736,0.0377162 0.187684,0.0376772 0.0574051,0 0.115021,-0.0108585 0.170062,-0.0308282"/>
    <polygon id="_210499816" class="fil0 str0" points="1.69355,1.9865 1.69355,1.77237 "/>
    <path id="_210499888" class="fil0 str0" d="M1.69355 1.9865c0.0550337,-0.020742 0.110075,-0.0518666 0.137596,-0.092274 0,-0.0388161 0,-0.0824062 0,-0.149726 0,-0.0456573 -0.0275519,-0.0985224 -0.0731546,-0.11247"/>
    <path id="_210499960" class="fil0 str0" d="M1.52569 1.26414c-0.0903551,0 -0.163611,0.073217 -0.163611,0.163596 0,0.0903083 0.073256,0.16358 0.163611,0.16358 0.0903473,0 0.163603,-0.0732716 0.163603,-0.16358 0,-0.0903785 -0.073256,-0.163596 -0.163603,-0.163596"/>
   </g>
  </g>
 </g>
</svg>
