<?xml version="1.0" encoding="UTF-8"?>
<!DOCTYPE svg PUBLIC "-//W3C//DTD SVG 1.1//EN" "http://www.w3.org/Graphics/SVG/1.1/DTD/svg11.dtd">
<!-- Creator: CorelDRAW -->
<svg xmlns="http://www.w3.org/2000/svg" xml:space="preserve" width="35px" height="35px" style="shape-rendering:geometricPrecision; text-rendering:geometricPrecision; image-rendering:optimizeQuality; fill-rule:evenodd; clip-rule:evenodd"
viewBox="0 0 0.289899 0.289899"
 xmlns:xlink="http://www.w3.org/1999/xlink">
 <defs>
  <style type="text/css">
   <![CDATA[
    .fil1 {fill:#161922;fill-rule:nonzero}
    .fil0 {fill:#DAE409;fill-rule:nonzero}
   ]]>
  </style>
 </defs>
 <g id="Layer_x0020_1">
  <metadata id="CorelCorpID_0Corel-Layer"/>
  <path class="fil0" d="M0.14495 0.289899c0.0800585,0 0.14495,-0.0648911 0.14495,-0.14495 0,-0.0800468 -0.0648911,-0.14495 -0.14495,-0.14495 -0.0800515,0 -0.14495,0.0649029 -0.14495,0.14495 0,0.0800585 0.0648982,0.14495 0.14495,0.14495z"/>
  <path class="fil1" d="M0.211682 0.112255c-0.00519355,0.00229624 -0.0107745,0.00385055 -0.0166301,0.00455257 0.00598479,-0.00358289 0.0105796,-0.00925306 0.0127303,-0.0160056 -0.00559504,0.00331523 -0.0117841,0.00571713 -0.0183934,0.00701316 -0.00526398,-0.00562321 -0.012796,-0.00914036 -0.0211264,-0.00914036 -0.0159845,0 -0.0289425,0.0129651 -0.0289425,0.0289496 0,0.00227276 0.000244181,0.00447978 0.000744283,0.00659054 -0.0240542,-0.00120447 -0.0453848,-0.0127232 -0.0596788,-0.0302503 -0.00249112,0.0042943 -0.00391394,0.0092601 -0.00391394,0.0145663 0,0.0100302 0.00511137,0.0188959 0.0128759,0.0240965 -0.0047404,-0.00014557 -0.00920375,-0.00146274 -0.01312,-0.00361576l0 0.00035688c0,0.0140334 0.00998325,0.0257376 0.0232324,0.0283908 -0.00242772,0.000678542 -0.00498458,0.00101899 -0.00762831,0.00101899 -0.00186892,0 -0.00367915,-0.000176092 -0.00544242,-0.000516537 0.00367915,0.0115023 0.0143644,0.0198726 0.0270384,0.0200909 -0.00990812,0.00777388 -0.0223966,0.0124016 -0.0359533,0.0124016 -0.0023385,0 -0.00464179,-0.000129134 -0.00690751,-0.000396794 0.0128125,0.0082012 0.0280362,0.012998 0.0443752,0.012998 0.0532644,0 0.0823759,-0.0441076 0.0823759,-0.0823665 0,-0.00126317 -2.58269e-005,-0.00251694 -8.21763e-005,-0.00375429 0.00566312,-0.00407595 0.0105796,-0.00918027 0.0144466,-0.0149796z"/>
 </g>
</svg>
