<?xml version="1.0" encoding="UTF-8"?>
<!DOCTYPE svg PUBLIC "-//W3C//DTD SVG 1.1//EN" "http://www.w3.org/Graphics/SVG/1.1/DTD/svg11.dtd">
<!-- Creator: CorelDRAW -->
<svg xmlns="http://www.w3.org/2000/svg" xml:space="preserve" width="214px" height="71px" style="shape-rendering:geometricPrecision; text-rendering:geometricPrecision; image-rendering:optimizeQuality; fill-rule:evenodd; clip-rule:evenodd"
viewBox="0 0 4.02451 1.33539"
 xmlns:xlink="http://www.w3.org/1999/xlink">
 <defs>
  <style type="text/css">
   <![CDATA[
    .fil5 {fill:#B8C14F}
    .fil1 {fill:#BEC3C8}
    .fil4 {fill:#BF353E}
    .fil3 {fill:#C8CCD2}
    .fil6 {fill:#CACE4C}
    .fil8 {fill:#CDDD52}
    .fil7 {fill:#DAE257}
    .fil2 {fill:#F1F1F3}
    .fil0 {fill:#FEFEFE}
   ]]>
  </style>
 </defs>
 <g id="Layer_x0020_1">
  <metadata id="CorelCorpID_0Corel-Layer"/>
  <path class="fil0" d="M1.94136 0.934671l-0.12766 -0.415986 -0.00317959 0c0.00456391,0.0846162 0.00681342,0.141222 0.00681342,0.16947l6.48897e-005 0.246516 -0.100525 0 0 -0.530343 0.15315 0 0.125324 0.40569 0.0023144 0 0.133154 -0.40569 0.152967 0 0 0.530343 -0.104905 0 0 -0.251015c0,-0.0118316 0.000129779,-0.0254584 0.000519118,-0.0409238 0.000432598,-0.0155519 0.0020981,-0.056454 0.00497488,-0.123226l-0.00317959 -0.000151409 -0.136831 0.415316 -0.103002 0z"/>
  <path class="fil0" d="M2.57359 0.600403c-0.0235225,0 -0.0420377,0.00744068 -0.0552103,0.0223221 -0.0132916,0.0147516 -0.020981,0.0358624 -0.0228844,0.0633323l0.155357 -0.000173039c-0.000605637,-0.02747 -0.00771106,-0.0482996 -0.0216407,-0.0631593 -0.0136485,-0.0149463 -0.0322285,-0.0223221 -0.0556213,-0.0223221zm0.0154546 0.341644c-0.0652358,0 -0.116239,-0.0181042 -0.153075,-0.0539882 -0.0368141,-0.0361436 -0.0551346,-0.0871685 -0.0551346,-0.153161 4.32598e-005,-0.0680477 0.0169903,-0.120392 0.0509384,-0.157595 0.0340022,-0.0369871 0.0808958,-0.055697 0.140984,-0.055697 0.0572327,-2.16299e-005 0.101877,0.0164171 0.133727,0.049035 0.0320988,0.0325097 0.0478778,0.0778244 0.0478778,0.135252l2.16299e-005 0.0536638 -0.261311 0c0.00111394,0.0314066 0.0104364,0.0560214 0.0277944,0.0735849 0.017358,0.0175635 0.0417781,0.0264966 0.0732496,0.0264966 0.0244526,0 0.0474884,-0.00246581 0.0692481,-0.00761372 0.0218246,-0.00508303 0.0444494,-0.0131726 0.0681125,-0.0242255l6.48897e-005 0.0855895c-0.0193155,0.00943064 -0.0399504,0.0168281 -0.062067,0.0216083 -0.0218895,0.00447739 -0.0488295,0.00705135 -0.0804308,0.00705135z"/>
  <path class="fil0" d="M3.06779 0.521583c0.0149354,0 0.0272645,0.00116801 0.0371926,0.00326611l-0.0081761 0.103715c-0.00893315,-0.00224951 -0.0198562,-0.0035473 -0.0326395,-0.0035473 -0.0354298,-6.48897e-005 -0.0629646,0.00917108 -0.0826046,0.0272753 -0.0196183,0.0179744 -0.0295681,0.0434977 -0.0295681,0.0761156l0 0.206263 -0.110572 0 0 -0.405517 0.0836969 0 0.0163955 0.0683288 0.00533177 0c0.0126102,-0.0226681 0.0295681,-0.0409454 0.0511223,-0.0548751 0.0214028,-0.0139729 0.0446333,-0.0210026 0.0698213,-0.0210243z"/>
  <polygon class="fil0" points="3.28206,0.714219 3.3303,0.652596 3.44379,0.529154 3.5686,0.529154 3.40756,0.705135 3.57831,0.934671 3.45065,0.934671 3.33391,0.770543 3.28644,0.808482 3.28644,0.934671 3.17578,0.934671 3.17578,0.370499 3.28644,0.370499 3.28644,0.622033 3.28051,0.714219 "/>
  <path class="fil0" d="M3.92056 0.934671l-0.0149354 -0.0518469 -0.00565622 0c-0.0118532,0.0188829 -0.0286812,0.0334831 -0.0504301,0.0437789 -0.021684,0.0102958 -0.0465475,0.0154437 -0.074396,0.0154437 -0.0476398,0 -0.0835671,-0.0127616 -0.107782,-0.0383282 -0.0239876,-0.0255449 -0.0362517,-0.062186 -0.0362517,-0.110075l7.57046e-005 -0.26449 0.110648 0 0 0.236912c0,0.0292004 0.00508303,0.0512412 0.0155627,0.0659063 0.0103715,0.0146218 0.0268968,0.0219327 0.0496082,0.0219327 0.030974,-8.65196e-005 0.0534042,-0.0102742 0.0671392,-0.0310822 0.0137999,-0.0206998 0.0206025,-0.0549183 0.0206025,-0.102807l6.48897e-005 -0.190862 0.110648 0 0 0.405517 -0.0848973 0z"/>
  <path class="fil0" d="M1.72125 1.1915l0 0.0724602 0.0465259 0c0.0129563,0 0.0232305,-0.00315797 0.0304765,-0.00943064 0.00746231,-0.00653223 0.0112475,-0.0154654 0.0112475,-0.0269076 8.65196e-005,-0.0105338 -0.00342834,-0.0192722 -0.0101012,-0.0259342 -0.00664038,-0.00692157 -0.0165901,-0.0101012 -0.0293842,-0.0101012l-0.0487646 -8.65196e-005zm0 -0.0123507l0.0405993 0c0.0127833,0 0.0224735,-0.00283352 0.0295248,-0.00837077 0.00713787,-0.00588333 0.0105121,-0.0139297 0.0105121,-0.0248095 5.40747e-005,-0.0111178 -0.00382849,-0.0194453 -0.0112692,-0.0251772 -0.00722439,-0.00568866 -0.018115,-0.0083924 -0.0324232,-0.0083924l-0.0369439 -4.32598e-005 0 0.0667931zm-0.0143406 0.0971831l0 -0.176327 0.0513277 0c0.0182989,0 0.0325746,0.00400153 0.0428705,0.0116369 0.0101877,0.00759209 0.0152707,0.0192506 0.0152707,0.0349107 6.48897e-005,0.00891152 -0.00248744,0.0167848 -0.00763535,0.0234468 -0.00508303,0.00674853 -0.0122101,0.0114638 -0.020981,0.0139297 0.0109123,0.00207647 0.0194561,0.00707298 0.0261289,0.0152707 0.00675934,0.00811121 0.010112,0.0175418 0.010112,0.0282486 0,0.0155735 -0.00515873,0.0278377 -0.0152599,0.0362301 -0.0102309,0.00834914 -0.023847,0.0127833 -0.0410103,0.0127833l-0.0608233 -0.000129779z"/>
  <path class="fil0" d="M1.87268 1.27634l-0.0142541 0 0 -0.131012 0.0142541 0 0 0.131012zm0 -0.168605l-0.0142541 0 0 -0.0204403 0.0142541 0 0 0.0204403z"/>
  <path class="fil0" d="M1.9217 1.21435c0,0.0157898 0.00322285,0.0285515 0.00951715,0.0380686 0.00653223,0.00932249 0.0162224,0.0141243 0.0290057,0.0141243 0.00937656,0 0.0171633,-0.0020981 0.0232521,-0.00646734 0.00638082,-0.00434761 0.0110745,-0.0103175 0.0145137,-0.0177581l2.16299e-005 -0.0609314c-0.00300656,-0.00754883 -0.00784084,-0.0138431 -0.0137674,-0.0187964 -0.00606719,-0.00488836 -0.0141135,-0.00724602 -0.023847,-0.00724602 -0.0127725,-4.32598e-005 -0.0224951,0.00514792 -0.0289841,0.0158331 -0.00644571,0.0103824 -0.00973345,0.0240308 -0.00973345,0.0408156l2.16299e-005 0.00235766zm-0.0146867 -0.00240092c0,-0.0209377 0.00456391,-0.0375279 0.0135187,-0.0501381 0.00880337,-0.0126967 0.0211757,-0.0188829 0.0372034,-0.0188829 0.00936575,0 0.017358,0.00211973 0.0240308,0.00612126 0.00688912,0.00382849 0.0124047,0.00990649 0.0167848,0.0173688l0.00177365 -0.0210892 0.0121993 0 0 0.129282c0,0.0168281 -0.00461798,0.0302819 -0.0139729,0.0400153 -0.00930086,0.00960367 -0.0223112,0.0146867 -0.0389122,0.0146867 -0.00627267,-0.000108149 -0.0129563,-0.000757046 -0.0200293,-0.00229277 -0.00718113,-0.00157898 -0.0133456,-0.00361219 -0.018699,-0.0062943l0.00388257 -0.0122858c0.00514792,0.00240092 0.0104364,0.00465043 0.0161575,0.00599148 0.00573192,0.00121127 0.0118207,0.00190343 0.0185044,0.00190343 0.0128049,0 0.0223112,-0.00361219 0.0288002,-0.0110529 0.00648897,-0.00731091 0.00973345,-0.0175635 0.00973345,-0.0305414l2.16299e-005 -0.0166118c-0.00436924,0.00670527 -0.00994975,0.0118532 -0.0168064,0.015487 -0.00679179,0.00339589 -0.0146867,0.00534258 -0.0236631,0.00534258 -0.0157574,-4.32598e-005 -0.028227,-0.00592659 -0.0370088,-0.0175635 -0.00887907,-0.0118532 -0.0135403,-0.0272753 -0.0135403,-0.0469152l2.16299e-005 -0.0025307z"/>
  <path class="fil0" d="M2.1296 1.11236l0 0.151604 0.0368357 0c0.0175851,0 0.0318392,-0.00601311 0.0430976,-0.0182124 0.0113233,-0.0123507 0.0167956,-0.0276646 0.0167956,-0.0461582l2.16299e-005 -0.0231873c0,-0.0183638 -0.00555888,-0.0334831 -0.0170011,-0.0456823 -0.0112475,-0.0123507 -0.0255665,-0.0183205 -0.0429137,-0.0183205l-0.0368357 -4.32598e-005zm-0.0142541 0.163976l0 -0.176327 0.0510898 0c0.0215434,0 0.0392907,0.00724602 0.0534042,0.021565 0.014146,0.014492 0.0211649,0.0327909 0.0211649,0.0553076l2.16299e-005 0.0227114c0,0.0226465 -0.00706216,0.0410103 -0.0211865,0.0553293 -0.0140919,0.0141892 -0.0318608,0.0215434 -0.0534042,0.0215434l-0.0510898 -0.000129779z"/>
  <path class="fil0" d="M2.30937 1.26602c0.0104689,0 0.0195859,-0.00233603 0.0275997,-0.00728928 0.00802469,-0.00488836 0.013735,-0.0110745 0.0173688,-0.0186882l0 -0.0274051 -0.0291787 0c-0.0131293,0 -0.0236739,0.00279026 -0.0316878,0.00850055 -0.00780839,0.00540747 -0.0118316,0.0125886 -0.0118316,0.020808 8.65196e-005,0.00709461 0.00248744,0.0129779 0.00744068,0.0173472 0.00482347,0.00449902 0.0116369,0.00685668 0.020224,0.00685668l6.48897e-005 -0.000129779zm0.047629 0.0103175c-0.000930086,-0.00447739 -0.00171958,-0.00826262 -0.0020981,-0.0115071 -0.000389338,-0.00326611 -0.000562377,-0.00648897 -0.000562377,-0.00973345 -0.00497488,0.00681342 -0.011453,0.0126102 -0.0194561,0.0169795 -0.00801388,0.00443413 -0.017185,0.00687831 -0.0272861,0.00687831 -0.01274,-4.32598e-005 -0.0227006,-0.00343915 -0.0297627,-0.0101228 -0.00700809,-0.00692157 -0.0104905,-0.0160278 -0.0104905,-0.0272753 4.32598e-005,-0.0122642 0.00514792,-0.0217597 0.0156384,-0.0291787 0.0105013,-0.00728928 0.0246148,-0.0108798 0.0423513,-0.0108798l0.0290057 -2.16299e-005 0 -0.0163089c0,-0.00927923 -0.00306063,-0.016482 -0.00914945,-0.0218246 -0.0058617,-0.00547236 -0.014319,-0.00800306 -0.0251988,-0.00800306 -0.0100255,-4.32598e-005 -0.0185044,0.00246581 -0.0251772,0.00761372 -0.00665119,0.00486673 -0.00991731,0.0112692 -0.00991731,0.0187099l-0.0133024 -0.000281189 -0.000173039 -0.000692157c-0.000594822,-0.00977671 0.00393664,-0.0184936 0.0132699,-0.0261289 0.00938738,-0.00785165 0.0213812,-0.0116369 0.0358732,-0.0116369 0.0145461,0 0.0261289,0.00363382 0.0349107,0.0110745 0.00883581,0.00713787 0.0131618,0.0179312 0.0131618,0.0314715l4.32598e-005 0.0644138c0,0.00465043 0.000346078,0.00921434 0.000713787,0.0136052 0.000584007,0.00426109 0.00153572,0.00858707 0.00268211,0.0129779l-0.015076 -0.000129779z"/>
  <path class="fil0" d="M2.43006 1.11169l0 0.0336345 0.0288327 0 0 0.0118532 -0.0288327 0 0 0.0853299c0,0.00858707 0.00153572,0.0146651 0.00457472,0.0182989 0.00332019,0.00350404 0.00725683,0.00534258 0.0125886,0.00534258 0.00232521,-0.000129779 0.00457472,0 0.00667282,-0.000194669 0.00233603,-0.000259559 0.00478021,-0.000562377 0.00783002,-0.00112475l0.00215217 0.0108149c-0.00249825,0.000865196 -0.00539666,0.00177365 -0.00883581,0.00235766 -0.00335263,0.000562377 -0.00705135,0.000951715 -0.0104797,0.000951715 -0.00909537,-4.32598e-005 -0.0164171,-0.00285515 -0.0213812,-0.00878174 -0.00514792,-0.0058617 -0.00781921,-0.015076 -0.00781921,-0.0276646l1.08149e-005 -0.0853299 -0.0224951 0 0 -0.0118532 0.0224951 0 0 -0.0336345 0.0146867 0z"/>
  <path class="fil0" d="M2.52509 1.26602c0.0103066,0 0.0196291,-0.00233603 0.0274483,-0.00728928 0.00800306,-0.00488836 0.0139188,-0.0110745 0.0173472,-0.0186882l2.16299e-005 -0.0274051 -0.0291895 0c-0.0131402,0 -0.0236631,0.00279026 -0.0314823,0.00850055 -0.0077435,0.00540747 -0.0118316,0.0125886 -0.0118316,0.020808 4.32598e-005,0.00709461 0.00248744,0.0129779 0.00725683,0.0173472 0.00498569,0.00449902 0.0116261,0.00685668 0.0204078,0.00685668l2.16299e-005 -0.000129779zm0.0475641 0.0103175c-0.00103824,-0.00447739 -0.0018061,-0.00826262 -0.00218462,-0.0115071 -0.000302819,-0.00326611 -0.000584007,-0.00648897 -0.000584007,-0.00973345 -0.0047045,0.00681342 -0.0112367,0.0126102 -0.0192506,0.0169795 -0.00819773,0.00443413 -0.0171741,0.00687831 -0.0272753,0.00687831 -0.0127725,-4.32598e-005 -0.0227114,-0.00343915 -0.0297627,-0.0101228 -0.00705135,-0.00692157 -0.0106852,-0.0160278 -0.0106852,-0.0272753 3.24448e-005,-0.0122642 0.00534258,-0.0217597 0.0158331,-0.0291787 0.0102958,-0.00728928 0.0244202,-0.0108798 0.0421567,-0.0108798l0.0290057 -2.16299e-005 0 -0.0163089c0,-0.00927923 -0.00306063,-0.016482 -0.00897641,-0.0218246 -0.00605637,-0.00547236 -0.014492,-0.00800306 -0.0251772,-0.00800306 -0.0100579,-4.32598e-005 -0.0185044,0.00246581 -0.0251772,0.00761372 -0.00668364,0.00486673 -0.0101228,0.0112692 -0.0101228,0.0187099l-0.0131293 -0.000281189 -0.000346078 -0.000692157c-0.000432598,-0.00977671 0.00393664,-0.0184936 0.0133024,-0.0261289 0.00953878,-0.00785165 0.0215434,-0.0116369 0.0360462,-0.0116369 0.0143514,0 0.0259451,0.00363382 0.0348998,0.0110745 0.00880337,0.00713787 0.0131618,0.0179312 0.0131618,0.0314715l2.16299e-005 0.0644138c0,0.00465043 0.000173039,0.00921434 0.000746231,0.0136052 0.000627267,0.00426109 0.00134105,0.00858707 0.00266048,0.0129779l-0.0151626 -0.000129779z"/>
  <polygon class="fil0" points="2.64072,1.27634 2.62406,1.27634 2.62406,1.25642 2.64072,1.25642 "/>
  <path class="fil0" d="M2.76089 1.1915l0 0.0724602 0.0465367 0c0.0129671,0 0.0232413,-0.00315797 0.030682,-0.00943064 0.00725683,-0.00653223 0.0110529,-0.0154654 0.0110529,-0.0269076 6.48897e-005,-0.0105338 -0.00342834,-0.0192722 -0.0101012,-0.0259342 -0.00666201,-0.00692157 -0.0165901,-0.0101012 -0.0293842,-0.0101012l-0.0487862 -8.65196e-005zm0 -0.0123507l0.0406101 0c0.0127941,0 0.0224843,-0.00283352 0.0295356,-0.00837077 0.00711624,-0.00588333 0.0105013,-0.0139297 0.0105013,-0.0248095 5.40747e-005,-0.0111178 -0.00381768,-0.0194453 -0.0110637,-0.0251772 -0.00741905,-0.00568866 -0.0182989,-0.0083924 -0.0326179,-0.0083924l-0.0369655 -4.32598e-005 0 0.0667931zm-0.0143298 0.0971831l0 -0.176327 0.0513386 0c0.0184503,0 0.0325746,0.00400153 0.0428705,0.0116369 0.0101769,0.00759209 0.0152707,0.0192506 0.0152707,0.0349107 6.48897e-005,0.00891152 -0.00248744,0.0167848 -0.00763535,0.0234468 -0.00510466,0.00674853 -0.0122101,0.0114638 -0.0209918,0.0139297 0.0109123,0.00207647 0.0194669,0.00707298 0.0261397,0.0152707 0.00692157,0.00811121 0.010112,0.0175418 0.010112,0.0282486 7.57046e-005,0.0155735 -0.00515873,0.0278377 -0.0152599,0.0362301 -0.0102526,0.00834914 -0.0238361,0.0127833 -0.0410103,0.0127833l-0.0608341 -0.000129779z"/>
  <path class="fil0" d="M2.91233 1.27634l-0.0142433 0 0 -0.131012 0.0142433 0 0 0.131012zm0 -0.168605l-0.0142433 0 0 -0.0204403 0.0142433 0 0 0.0204403z"/>
  <path class="fil0" d="M2.96134 1.21435c0,0.0157898 0.00324448,0.0285515 0.00973345,0.0380686 0.00632675,0.00932249 0.0160278,0.0141243 0.028811,0.0141243 0.00936575,0 0.0171525,-0.0020981 0.0232521,-0.00646734 0.00637,-0.00434761 0.0112692,-0.0103175 0.0145137,-0.0177581l1.08149e-005 -0.0609314c-0.00299574,-0.00754883 -0.00764617,-0.0138431 -0.0137566,-0.0187964 -0.00606719,-0.00488836 -0.0141135,-0.00724602 -0.023847,-0.00724602 -0.0126967,-4.32598e-005 -0.0224951,0.00514792 -0.0289841,0.0158331 -0.00646734,0.0103824 -0.00973345,0.0240308 -0.00973345,0.0408156l0 0.00235766zm-0.014492 -0.00240092c0,-0.0209377 0.00439087,-0.0375279 0.0133456,-0.0501381 0.00879255,-0.0126967 0.0213703,-0.0188829 0.0372034,-0.0188829 0.00936575,0 0.017358,0.00211973 0.0240308,0.00612126 0.00687831,0.00382849 0.0124047,0.00990649 0.0167848,0.0173688l0.00177365 -0.0210892 0.0121776 0 0 0.129282c0,0.0168281 -0.00459635,0.0302819 -0.0139513,0.0400153 -0.00930086,0.00960367 -0.0223112,0.0146867 -0.0389122,0.0146867 -0.00627267,-0.000108149 -0.0129779,-0.000757046 -0.0200293,-0.00229277 -0.00719194,-0.00157898 -0.0133456,-0.00361219 -0.0186882,-0.0062943l0.00385012 -0.0122858c0.00514792,0.00240092 0.0104581,0.00465043 0.0161792,0.00599148 0.00571029,0.00121127 0.0120154,0.00190343 0.0184936,0.00190343 0.0128049,0 0.0223221,-0.00361219 0.0288002,-0.0110529 0.0065863,-0.00731091 0.00974427,-0.0175635 0.00974427,-0.0305414l1.08149e-005 -0.0166118c-0.00438005,0.00670527 -0.00993894,0.0118532 -0.0167956,0.015487 -0.00664038,0.00339589 -0.0146975,0.00534258 -0.0236631,0.00534258 -0.0157682,-4.32598e-005 -0.0282378,-0.00592659 -0.0370088,-0.0175635 -0.00888989,-0.0118532 -0.0133456,-0.0272753 -0.0133456,-0.0469152l0 -0.0025307z"/>
  <path class="fil0" d="M3.25587 1.23306c0,-0.00977671 -0.00361219,-0.0174337 -0.010869,-0.023555 -0.0072352,-0.00614289 -0.0196508,-0.0114422 -0.0375819,-0.0160061 -0.0191857,-0.0050614 -0.0337643,-0.0112692 -0.0438654,-0.0188829 -0.00992812,-0.00798143 -0.0148814,-0.0183422 -0.0148814,-0.0314931 6.48897e-005,-0.0134105 0.00553725,-0.0244202 0.0167848,-0.0328126 0.0110961,-0.00858707 0.0253719,-0.0127833 0.0427299,-0.0127833 0.0181583,-8.65196e-005 0.0328126,0.00497488 0.0438654,0.015076 0.0112908,0.0100795 0.0166009,0.0225167 0.0164171,0.0370088l-0.000313634 0.000713787 -0.0133997 0c0,-0.0118532 -0.00421783,-0.0215217 -0.0126102,-0.0291355 -0.00833833,-0.00744068 -0.0196508,-0.0112475 -0.0339589,-0.0112475 -0.0140378,-0.000151409 -0.025188,0.00302819 -0.0331911,0.00934412 -0.00779758,0.00612126 -0.0118316,0.0141243 -0.0118316,0.0234468 8.65196e-005,0.00895478 0.00362301,0.0163955 0.0110745,0.0223221 0.00728928,0.0058617 0.0200185,0.0110745 0.0379497,0.0156384 0.0189586,0.00465043 0.0333857,0.0114638 0.0433139,0.0196616 0.00999301,0.00815447 0.0148814,0.0190776 0.0148814,0.0326395 0,0.0137999 -0.00573192,0.0251556 -0.0173688,0.033548 -0.011399,0.00806795 -0.0261289,0.0124156 -0.0440601,0.0124156 -0.0175527,-4.32598e-005 -0.0328126,-0.00439087 -0.0459852,-0.0133456 -0.0131077,-0.00884663 -0.0194561,-0.0217597 -0.0190776,-0.0385445l0.000216299 -0.000865196 0.0133889 0c0,0.013735 0.00509384,0.0239443 0.0154005,0.0304333 0.0101877,0.00664038 0.0223221,0.00990649 0.036057,0.00990649 0.0141243,0 0.0253719,-0.00304982 0.0339373,-0.00914945 0.0086087,-0.00612126 0.0129779,-0.0142974 0.0129779,-0.0242255l0 -0.000108149z"/>
  <path class="fil0" d="M3.34859 1.26654c0.00961449,0 0.018115,-0.00266048 0.0253827,-0.00819773 0.00749476,-0.00553725 0.0110529,-0.0129779 0.0110529,-0.0227114l0.0128373 0 0.000173039 0.000519118c0.000421783,0.0121993 -0.00442331,0.0223869 -0.0145461,0.0305847 -0.0101012,0.00804632 -0.021738,0.0122209 -0.0348998,0.0122209 -0.0178555,-4.32598e-005 -0.0316662,-0.00609963 -0.0413996,-0.0183205 -0.00967938,-0.0122858 -0.0146975,-0.0280323 -0.0146975,-0.0473262l4.32598e-005 -0.00497488c0,-0.0190559 0.00493162,-0.0346944 0.0146543,-0.0468936 0.0099822,-0.0125021 0.0234684,-0.0185152 0.0412158,-0.0185152 0.0143406,0 0.0263236,0.00421783 0.0358624,0.0128049 0.00956041,0.00830588 0.0142974,0.0196399 0.013908,0.0333533l-0.000140594 0.000713787 -0.0129671 0c0,-0.0104689 -0.00366627,-0.018818 -0.0107284,-0.0251339 -0.00704053,-0.0062943 -0.0156384,-0.00932249 -0.0259342,-0.00932249 -0.0140702,-4.32598e-005 -0.0244202,0.00495325 -0.0311038,0.0150544 -0.00683505,0.00977671 -0.010112,0.0227114 -0.010112,0.0379605l2.16299e-005 0.00495325c0,0.0154654 0.00321204,0.0282486 0.00989568,0.0383714 0.00675934,0.00988486 0.0171741,0.0148597 0.0314823,0.0148597z"/>
  <path class="fil0" d="M3.44473 1.27634l-0.0144163 0 0 -0.131012 0.0144163 0 0 0.131012zm0 -0.168605l-0.0144163 0 0 -0.0204403 0.0144163 0 0 0.0204403z"/>
  <path class="fil0" d="M3.53212 1.1553c-0.0106419,0 -0.0196508,0.00404479 -0.0271023,0.0122425 -0.0072352,0.0081761 -0.011453,0.0185152 -0.0125886,0.0307145l0.000205484 0.000475858 0.0769159 0 0 -0.00361219c0,-0.0113341 -0.00348241,-0.0206998 -0.0101661,-0.0283568 -0.00666201,-0.00770024 -0.0158331,-0.0114206 -0.0272645,-0.0114638zm0.00189262 0.123615c-0.0163955,0 -0.0301521,-0.00605637 -0.0410103,-0.0181042 -0.0108366,-0.0122858 -0.0162224,-0.02747 -0.0162224,-0.0461582l6.48897e-005 -0.00648897c0,-0.0188829 0.0052777,-0.0343266 0.0161575,-0.0467206 0.0107068,-0.0125021 0.023847,-0.0185152 0.039096,-0.0185152 0.0160818,0 0.0286272,0.00514792 0.0379713,0.0152707 0.00918189,0.00997138 0.013735,0.0236631 0.013735,0.0406209l0 0.0122642 -0.092457 0 0 0.00343915c0,0.0149463 0.00393664,0.0272104 0.0117558,0.0371602 0.00789491,0.00988486 0.0181259,0.0148597 0.0309091,0.0148597 0.00900885,0 0.0165901,-0.00114638 0.0230791,-0.00382849 0.00635919,-0.00250907 0.0118316,-0.00588333 0.0162224,-0.0106852l0.00635919 0.00988486c-0.00497488,0.00514792 -0.0113233,0.00940901 -0.0187639,0.0124372 -0.00758128,0.00300656 -0.0166009,0.00460717 -0.0268968,0.00456391z"/>
  <path class="fil0" d="M3.62543 1.14532l0.00128698 0.0228412c0.00420702,-0.00806795 0.00992812,-0.0141676 0.0169903,-0.0185585 0.00712705,-0.00445576 0.0156276,-0.00668364 0.0253611,-0.00668364 0.0141351,0 0.0249933,0.0044125 0.032434,0.0129779 0.0074515,0.00865196 0.0110637,0.0223004 0.0110637,0.0406426l0 0.0797927 -0.0144271 0 0 -0.079836c0,-0.0151193 -0.002747,-0.0257179 -0.00845729,-0.0318392 -0.00553725,-0.0062943 -0.0135403,-0.00932249 -0.023847,-0.00932249 -0.0101012,-4.32598e-005 -0.0185044,0.00268211 -0.0249933,0.00800306 -0.00622941,0.00534258 -0.0110637,0.0125886 -0.013735,0.0213703l4.32598e-005 0.0916242 -0.0145137 0 0 -0.131012 0.0127941 0z"/>
  <path class="fil0" d="M3.79917 1.26654c0.00953878,0 0.0179312,-0.00266048 0.0253719,-0.00819773 0.00751639,-0.00553725 0.0110637,-0.0129779 0.0110637,-0.0227114l0.0128482 0 0.000162224 0.000519118c0.000346078,0.0121993 -0.00442331,0.0223869 -0.0145353,0.0305847 -0.0101012,0.00804632 -0.0217489,0.0122209 -0.0349107,0.0122209 -0.0179312,-4.32598e-005 -0.0316662,-0.00609963 -0.0413888,-0.0183205 -0.00967938,-0.0122858 -0.0146975,-0.0280323 -0.0146975,-0.0473262l4.32598e-005 -0.00497488c0,-0.0190559 0.0049208,-0.0346944 0.0146543,-0.0468936 0.00972264,-0.0125021 0.0234576,-0.0185152 0.041205,-0.0185152 0.0143514,0 0.0263128,0.00421783 0.0358516,0.0128049 0.00958204,0.00830588 0.014319,0.0196399 0.0139297,0.0333533l-0.000151409 0.000713787 -0.0129563 0c0,-0.0104689 -0.00367708,-0.018818 -0.0107284,-0.0251339 -0.00704053,-0.0062943 -0.0156384,-0.00932249 -0.0259451,-0.00932249 -0.0140594,-4.32598e-005 -0.024431,0.00495325 -0.031093,0.0150544 -0.00683505,0.00977671 -0.010112,0.0227114 -0.010112,0.0379605l2.16299e-005 0.00495325c0,0.0154654 0.00321204,0.0282486 0.00989568,0.0383714 0.00674853,0.00988486 0.0171633,0.0148597 0.0314715,0.0148597z"/>
  <path class="fil0" d="M3.92649 1.1553c-0.0107284,0 -0.0199211,0.00404479 -0.0271563,0.0122425 -0.00718113,0.0081761 -0.011453,0.0185152 -0.0125994,0.0307145l0.000270374 0.000475858 0.0766564 0 0 -0.00361219c0,-0.0113341 -0.00327693,-0.0206998 -0.00996057,-0.0283568 -0.00660793,-0.00770024 -0.0158331,-0.0114206 -0.0272861,-0.0114206l7.57046e-005 -4.32598e-005zm0.00171958 0.123615c-0.016482,0 -0.0300331,-0.00605637 -0.0408913,-0.0181042 -0.0108798,-0.0122858 -0.0162224,-0.02747 -0.0162224,-0.0461582l2.16299e-005 -0.00648897c0,-0.0188829 0.00532095,-0.0343266 0.0162008,-0.0467206 0.0107501,-0.0125021 0.0236415,-0.0185152 0.039096,-0.0185152 0.0160386,0 0.0286164,0.00514792 0.0379713,0.0152707 0.00914945,0.00997138 0.013735,0.0236631 0.013735,0.0406209l4.32598e-005 0.0122642 -0.0925327 0 0 0.00343915c0,0.0149463 0.00377442,0.0272104 0.0115936,0.0371602 0.00806795,0.00988486 0.0183205,0.0148597 0.0309199,0.0148597 0.00916026,0 0.016774,-0.00114638 0.023263,-0.00382849 0.00633756,-0.00250907 0.0118316,-0.00588333 0.0162116,-0.0106852l0.00634837 0.00988486c-0.00498569,0.00514792 -0.0113124,0.00940901 -0.0187423,0.0124372 -0.00762454,0.00300656 -0.0166009,0.00460717 -0.0270806,0.00460717l6.48897e-005 -4.32598e-005z"/>
  <polygon class="fil0" points="4.02451,1.27634 4.00787,1.27634 4.00787,1.25642 4.02451,1.25642 "/>
  <polygon class="fil1" points="0.700052,0.738445 0.663054,0.756808 0.700052,0.738445 0.130223,0.41962 0.128936,0.424941 0.128936,1.01931 0.691638,1.31633 0.710791,0.744263 "/>
  <polygon class="fil2" points="1.27349,0.350923 1.27349,0.333771 0.68211,0 0.101639,0.327758 0.671468,0.685884 "/>
  <polygon class="fil3" points="0.671468,0.685884 0.68211,0.692589 0.68211,0.686749 0.68211,0.692589 0.733448,0.724861 0.68211,0.692589 0.68211,1.33539 1.28301,1.00146 1.28301,0.350923 "/>
  <polygon class="fil1" points="0.671468,0.685884 0.63447,0.706497 0.671468,0.685884 0.101639,0.327758 0.100265,0.333771 0.100265,1.00146 0.68211,1.33539 0.68211,0.692589 "/>
  <polygon class="fil4" points="0.68211,0.679893 0.686911,0.688307 0.696623,0.682813 0.710953,0.674399 0.672582,0.65225 0.672582,0.696548 0.686911,0.688307 0.68211,0.679893 0.691638,0.679893 0.691638,0.668732 0.68211,0.668732 0.677394,0.676973 0.687085,0.682467 0.691897,0.674399 0.687085,0.666158 0.677394,0.671652 0.68211,0.679893 0.691638,0.679893 "/>
  <polygon class="fil5" points="0.691897,0.674399 0.968316,0.515073 0.968316,0.50322 0.68211,0.338573 0.68211,0.668732 "/>
  <polygon class="fil6" points="0.691638,0.343375 0.395989,0.50322 0.386472,0.515073 0.691638,0.667693 "/>
  <polygon class="fil5" points="0.968316,0.515073 0.691897,0.674399 0.966943,0.833032 0.977844,0.832167 0.977844,0.515073 "/>
  <polygon class="fil7" points="0.407064,0.838526 0.68211,0.996662 0.68211,0.679893 "/>
  <polygon class="fil7" points="0.691897,0.674399 0.68211,0.679893 0.68211,0.996662 0.966943,0.833032 "/>
  <polygon class="fil6" points="0.68211,0.668732 0.405528,0.503566 0.405528,0.832167 0.407064,0.838526 0.68211,0.679893 "/>
  <polygon class="fil8" points="0.982571,0.523833 1.47952,0.24723 1.47015,0.230575 0.973205,0.507005 "/>
  <polygon class="fil8" points="1.45763,0.337881 1.4395,0.331889 1.46844,0.242428 1.3771,0.220106 1.38165,0.201396 1.49291,0.228866 "/>
  <polygon class="fil0" points="0.686911,0.688307 0.982571,0.523833 0.973205,0.507005 0.677567,0.671652 "/>
  <polygon class="fil0" points="0.691638,0.996662 0.691638,0.679893 0.672582,0.679893 0.672582,0.996662 "/>
  <polygon class="fil0" points="0.691638,0.996662 0.691638,0.679893 0.672582,0.679893 0.672582,0.996662 "/>
  <polygon class="fil8" points="0.395221,0.501165 0.0100471,0.259083 -0,0.275046 0.385088,0.517301 "/>
  <polygon class="fil0" points="0.67774,0.678681 0.395221,0.501165 0.385088,0.517301 0.667596,0.694817 "/>
 </g>
</svg>
