<?xml version="1.0" encoding="UTF-8"?>
<!DOCTYPE svg PUBLIC "-//W3C//DTD SVG 1.1//EN" "http://www.w3.org/Graphics/SVG/1.1/DTD/svg11.dtd">
<!-- Creator: CorelDRAW -->
<svg xmlns="http://www.w3.org/2000/svg" xml:space="preserve" width="160px" height="161px" style="shape-rendering:geometricPrecision; text-rendering:geometricPrecision; image-rendering:optimizeQuality; fill-rule:evenodd; clip-rule:evenodd"
viewBox="0 0 6.652 6.68853"
 xmlns:xlink="http://www.w3.org/1999/xlink">
 <defs>
  <style type="text/css">
   <![CDATA[
    .str0 {stroke:#DAE409;stroke-width:0.147872;stroke-linejoin:round}
    .fil0 {fill:none;fill-rule:nonzero}
   ]]>
  </style>
 </defs>
 <g id="Layer_x0020_1">
  <metadata id="CorelCorpID_0Corel-Layer"/>
  <g id="_230385616">
   <path id="_230386864" class="fil0 str0" d="M2.81249 3.32602c0,-0.283574 0.229947,-0.513479 0.513493,-0.513479 0.283602,0 0.513549,0.229905 0.513549,0.513479 0,0.283672 -0.229947,0.513521 -0.513549,0.513521 -0.283546,0 -0.513493,-0.229849 -0.513493,-0.513521"/>
   <path id="_230386792" class="fil0 str0" d="M2.1279 3.32602c0,-0.661686 0.536366,-1.19798 1.19808,-1.19798 0.661686,0 1.19807,0.536296 1.19807,1.19798 0,0.661784 -0.53638,1.19812 -1.19807,1.19812 -0.661714,0 -1.19808,-0.536338 -1.19808,-1.19812"/>
   <path id="_230386720" class="fil0 str0" d="M0.416299 2.98372c0,-0.283532 0.229849,-0.513423 0.513451,-0.513423 0.283546,0 0.513451,0.229891 0.513451,0.513423 0,0.283518 -0.229905,0.513423 -0.513451,0.513423 -0.283602,0 -0.513451,-0.229905 -0.513451,-0.513423"/>
   <path id="_230386648" class="fil0 str0" d="M0.073943 1.10098c0,-0.189035 0.153293,-0.342343 0.342356,-0.342343 0.189035,0 0.342329,0.153307 0.342329,0.342343 0,0.189035 -0.153293,0.342301 -0.342329,0.342301 -0.189063,0 -0.342356,-0.153265 -0.342356,-0.342301"/>
   <path id="_230386576" class="fil0 str0" d="M2.81249 0.58752c0,-0.28363 0.229947,-0.513577 0.513493,-0.513577 0.283602,0 0.513549,0.229947 0.513549,0.513577 0,0.283672 -0.229947,0.513465 -0.513549,0.513465 -0.283546,0 -0.513493,-0.229793 -0.513493,-0.513465"/>
   <path id="_230386504" class="fil0 str0" d="M5.55106 1.71637c0,-0.283518 0.229961,-0.513423 0.513451,-0.513423 0.283602,0 0.513549,0.260617 0.513549,0.544233 0,0.283532 -0.229947,0.482627 -0.513549,0.482627 -0.28349,0 -0.513451,-0.229905 -0.513451,-0.513437"/>
   <path id="_230386432" class="fil0 str0" d="M5.20872 4.4491c0,-0.378056 0.306573,-0.684643 0.684671,-0.684643 0.378098,0 0.684671,0.306587 0.684671,0.684643 0,0.378126 -0.306573,0.684699 -0.684671,0.684699 -0.378098,0 -0.684671,-0.306573 -0.684671,-0.684699"/>
   <path id="_230386360" class="fil0 str0" d="M4.39525 6.27234c0,-0.189175 0.153251,-0.342356 0.342259,-0.342356 0.189049,0 0.342343,0.153182 0.342343,0.342356 0,0.188937 -0.153293,0.342245 -0.342343,0.342245 -0.189007,0 -0.342259,-0.153307 -0.342259,-0.342245"/>
   <path id="_230386288" class="fil0 str0" d="M2.1279 5.55106c0,-0.283392 0.229947,-0.513339 0.513451,-0.513339 0.28356,0 0.513507,0.229947 0.513507,0.513339 0,0.283616 -0.229947,0.513563 -0.513507,0.513563 -0.283504,0 -0.513451,-0.229947 -0.513451,-0.513563"/>
   <path id="_230386216" class="fil0 str0" d="M0.416299 6.23576c0,-0.189035 0.153196,-0.342259 0.342329,-0.342259 0.188951,0 0.342245,0.153223 0.342245,0.342259 0,0.189035 -0.153293,0.342301 -0.342245,0.342301 -0.189133,0 -0.342329,-0.153265 -0.342329,-0.342301"/>
   <line id="_230386144" class="fil0 str0" x1="2.73878" y1="5.05034" x2="2.88748" y2= "4.49526" />
   <line id="_230386072" class="fil0 str0" x1="0.914422" y1="5.95689" x2="2.37596" y2= "4.05683" />
   <line id="_230386000" class="fil0 str0" x1="1.42595" y1="3.03373" x2="2.1279" y2= "3.10681" />
   <line id="_230385928" class="fil0 str0" x1="0.621962" y1="1.27982" x2="2.47019" y2= "2.64142" />
   <line id="_230385856" class="fil0 str0" x1="3.30133" y1="1.10791" x2="3.30133" y2= "2.09377" />
   <line id="_230385784" class="fil0 str0" x1="5.66455" y1="1.93757" x2="4.35291" y2= "2.64142" />
   <line id="_230385712" class="fil0 str0" x1="5.37994" y1="4.1819" x2="4.35291" y2= "3.83954" />
   <line id="_230385664" class="fil0 str0" x1="3.8375" y1="4.42224" x2="4.56253" y2= "5.95689" />
  </g>
 </g>
</svg>
