<?xml version="1.0" encoding="UTF-8"?>
<!DOCTYPE svg PUBLIC "-//W3C//DTD SVG 1.1//EN" "http://www.w3.org/Graphics/SVG/1.1/DTD/svg11.dtd">
<!-- Creator: CorelDRAW -->
<svg xmlns="http://www.w3.org/2000/svg" xml:space="preserve" width="160px" height="160px" style="shape-rendering:geometricPrecision; text-rendering:geometricPrecision; image-rendering:optimizeQuality; fill-rule:evenodd; clip-rule:evenodd"
viewBox="0 0 6.72348 6.72284"
 xmlns:xlink="http://www.w3.org/1999/xlink">
 <defs>
  <style type="text/css">
   <![CDATA[
    .str0 {stroke:#DAE409;stroke-width:0.0834268}
    .fil0 {fill:none;fill-rule:nonzero}
   ]]>
  </style>
 </defs>
 <g id="Layer_x0020_1">
  <metadata id="CorelCorpID_0Corel-Layer"/>
  <g id="_230098288">
   <g>
    <path id="_230099344" class="fil0 str0" d="M3.90376 0.704517c-0.428083,-0.427527 -0.996309,-0.662969 -1.59979,-0.662803 -0.605093,-0.000165529 -1.17424,0.236494 -1.60202,0.666066 -0.425706,0.427988 -0.660427,0.995482 -0.660237,1.59698 0.000461117,1.24733 1.0157,2.26277 2.26318,2.26192 0.605435,0 1.17468,-0.237026 1.60284,-0.666681 0.425872,-0.427905 0.65967,-0.994831 0.659859,-1.59621 -0.000366529,-0.603709 -0.235749,-1.17165 -0.663832,-1.59927"/>
    <path id="_230099272" class="fil0 str0" d="M4.38173 3.97665c-0.0946,-0.0973431 -0.189744,-0.195112 -0.284911,-0.292821 -0.0581599,0.0751858 -0.120919,0.147605 -0.189082,0.216169 -0.0696524,0.0697351 -0.143384,0.133972 -0.220036,0.193598 0.0952503,0.0977214 0.190382,0.195478 0.286106,0.293968"/>
    <polygon id="_230099200" class="fil0 str0" points="6.52491,5.87079 5.87142,6.52427 3.83208,4.48489 4.48545,3.83152 "/>
    <polygon id="_230099128" class="fil0 str0" points="4.72279,4.06883 4.0693,4.72223 3.83208,4.48489 4.48545,3.83152 "/>
    <path id="_230099080" class="fil0 str0" d="M6.68177 6.02781c0,0.360866 -0.292573,0.653321 -0.653593,0.653321 -0.0521772,-0.0522954 -0.104473,-0.104603 -0.156756,-0.156863 0.217919,-0.218038 0.435661,-0.435472 0.653486,-0.653474 0.0522009,0.0522954 0.104473,0.104555 0.156863,0.157016"/>
   </g>
   <path id="_230098960" class="fil0 str0" d="M3.52419 3.51747c-0.3264,0.327736 -0.759189,0.507572 -1.21938,0.507572 -0.949394,0.000780353 -1.72159,-0.771083 -1.72139,-1.72041 0,-0.457925 0.17837,-0.889082 0.502441,-1.21442 0.325644,-0.327204 0.758432,-0.507253 1.21811,-0.507336 0.459474,-0.000201 0.89134,0.178653 1.21717,0.504522 0.325454,0.325301 0.504841,0.757722 0.505207,1.2165 0.000189176,0.457429 -0.178003,0.888431 -0.502157,1.21357"/>
   <path id="_230098888" class="fil0 str0" d="M3.52114 1.08741c-0.325833,-0.325868 -0.757699,-0.504723 -1.21717,-0.504522 -0.459675,8.27647e-005 -0.892463,0.180131 -1.21811,0.507336 -0.324071,0.325336 -0.508412,0.756493 -0.508412,1.21442 -9.45882e-005,0.46762 0.19296,0.891766 0.48493,1.20216 0,-0.130059 0,-0.280076 0,-0.49621 0,-0.169656 0.139553,-0.366683 0.308878,-0.418494 0.583751,-0.174054 1.21483,-0.174054 1.79854,0 0.169538,0.0518107 0.31181,0.248306 0.31181,0.418494 0,0.251605 0,0.414013 0,0.559064 0,-0.0170259 0.0307766,-0.0343828 0.0485947,-0.0521772 0.324154,-0.325135 0.499355,-0.756138 0.499142,-1.21357 -0.000366529,-0.458776 -0.182744,-0.891198 -0.508199,-1.2165"/>
   <path id="_230098816" class="fil0 str0" d="M2.272 2.44078c-0.335977,0 -0.608592,-0.272509 -0.608592,-0.608391 0,-0.336096 0.272615,-0.608604 0.608592,-0.608604 0.33606,0 0.608592,0.272509 0.608592,0.608604 0,0.335883 -0.272532,0.608391 -0.608592,0.608391"/>
   <path id="_230098744" class="fil0 str0" d="M3.17278 2.59209c-0.583727,-0.174054 -1.21476,-0.174054 -1.79851,0 -0.169325,0.0518107 -0.311893,0.248838 -0.311893,0.418494 0,0.216134 0,0.366151 0,0.49621 0.166842,0.159594 0.333684,0.288967 0.542239,0.378577"/>
   <polygon id="_230098672" class="fil0 str0" points="1.60462,3.88538 1.60462,3.11421 "/>
   <path id="_230098600" class="fil0 str0" d="M1.60462 3.88538c0.208555,0.089977 0.458694,0.139955 0.700165,0.139671 0.213486,0 0.426025,-0.0391477 0.63458,-0.113317"/>
   <polygon id="_230098528" class="fil0 str0" points="2.93936,3.91173 2.93936,3.11421 "/>
   <path id="_230098456" class="fil0 str0" d="M2.93936 3.91173c0.166842,-0.0771485 0.375397,-0.192061 0.542239,-0.342078 0,-0.145051 0,-0.307459 0,-0.559064 0,-0.170188 -0.139305,-0.366683 -0.308819,-0.418494"/>
   <path id="_230098384" class="fil0 str0" d="M2.272 1.22378c-0.335977,0 -0.608592,0.272509 -0.608592,0.608604 0,0.335883 0.272615,0.608391 0.608592,0.608391 0.33606,0 0.608592,-0.272509 0.608592,-0.608391 0,-0.336096 -0.272532,-0.608604 -0.608592,-0.608604"/>
   <path id="_230098336" class="fil0 str0" d="M3.52419 3.51747c-0.3264,0.327736 -0.759189,0.507572 -1.21938,0.507572 -0.949394,0.000780353 -1.72159,-0.771083 -1.72139,-1.72041 0,-0.457925 0.17837,-0.889082 0.502441,-1.21442 0.325644,-0.327204 0.758432,-0.507253 1.21811,-0.507336 0.459474,-0.000201 0.89134,0.178653 1.21717,0.504522 0.325454,0.325301 0.504841,0.757722 0.505207,1.2165 0.000189176,0.457429 -0.178003,0.888431 -0.502157,1.21357"/>
  </g>
 </g>
</svg>
