<?xml version="1.0" encoding="UTF-8"?>
<!DOCTYPE svg PUBLIC "-//W3C//DTD SVG 1.1//EN" "http://www.w3.org/Graphics/SVG/1.1/DTD/svg11.dtd">
<!-- Creator: CorelDRAW -->
<svg xmlns="http://www.w3.org/2000/svg" xml:space="preserve" width="121px" height="150px" style="shape-rendering:geometricPrecision; text-rendering:geometricPrecision; image-rendering:optimizeQuality; fill-rule:evenodd; clip-rule:evenodd"
viewBox="0 0 3.78974 4.70893"
 xmlns:xlink="http://www.w3.org/1999/xlink">
 <defs>
  <style type="text/css">
   <![CDATA[
    .str1 {stroke:#DAE409;stroke-width:0.0622091}
    .str2 {stroke:#DAE409;stroke-width:0.0622091;stroke-linejoin:bevel}
    .str0 {stroke:#DAE409;stroke-width:0.0622091;stroke-linecap:round;stroke-linejoin:round}
    .fil0 {fill:none;fill-rule:nonzero}
   ]]>
  </style>
 </defs>
 <g id="Layer_x0020_1">
  <metadata id="CorelCorpID_0Corel-Layer"/>
  <g id="_230096488">
   <g>
    <g>
     <g>
      <path id="_230098216" class="fil0 str0" d="M2.09383 3.62563c0,0.569562 -0.46186,1.0314 -1.03135,1.03137 -0.569686,0 -1.03138,-0.46186 -1.03138,-1.03137 0,-0.5695 0.461692,-1.03136 1.03138,-1.03136 0.569492,0 1.03135,0.46186 1.03135,1.03136"/>
      <path id="_230098144" class="fil0 str0" d="M1.65889 3.62563c0,0.569562 -0.267139,1.0314 -0.596408,1.03137 -0.329445,0 -0.596637,-0.461807 -0.596637,-1.03137 0,-0.5695 0.267192,-1.03136 0.596637,-1.03136 0.329269,0 0.596408,0.46186 0.596408,1.03136"/>
      <path id="_230098072" class="fil0 str0" d="M1.07854 4.657c0.590951,2.64494e-005 1.03137,-0.461807 1.03137,-1.03137 0,-0.5695 -0.440418,-1.03136 -1.03137,-1.03136"/>
      <line id="_230098000" class="fil0 str0" x1="1.07854" y1="2.59427" x2="1.07854" y2= "4.657" />
      <path id="_230097928" class="fil0 str0" d="M0.0311045 3.60485c0,0.128148 0.0244481,0.264309 0.0670493,0.357614"/>
      <line id="_230097856" class="fil0 str0" x1="0.0981538" y1="3.96247" x2="2.0267" y2= "3.96247" />
      <path id="_230097784" class="fil0 str0" d="M2.0267 3.96247c0.0426541,-0.0933048 0.0671375,-0.22944 0.0671375,-0.357614 0,-0.128183 -0.0244834,-0.264433 -0.0671375,-0.357746"/>
      <line id="_230097712" class="fil0 str0" x1="2.0267" y1="3.24711" x2="0.0982596" y2= "3.24711" />
      <path id="_230097664" class="fil0 str0" d="M0.0982596 3.24711c-0.042707,0.0933136 -0.0671551,0.229599 -0.0671551,0.357746"/>
     </g>
    </g>
    <g>
     <path id="_230097520" class="fil0 str1" d="M2.24369 1.14262c0,0.230718 0.18705,0.417848 0.417698,0.417848 0.230745,0 0.417875,-0.18713 0.417875,-0.417848 0,-0.230745 -0.18713,-0.417786 -0.417875,-0.417786 -0.230648,0 -0.417698,0.187042 -0.417698,0.417786"/>
     <path id="_230097448" class="fil0 str1" d="M2.24369 1.14262c0,0.230718 0.18705,0.417848 0.417698,0.417848 0.230745,0 0.417875,-0.18713 0.417875,-0.417848 0,-0.230745 -0.18713,-0.417786 -0.417875,-0.417786 -0.230648,0 -0.417698,0.187042 -0.417698,0.417786"/>
     <polygon id="_230097376" class="fil0 str2" points="3.23372,1.56757 2.16712,1.56757 1.73793,2.22073 1.07854,2.22073 1.07854,2.56285 1.92167,2.56285 2.29153,2.02627 2.29153,4.67783 3.00689,4.67783 3.00689,1.90985 3.33722,2.32133 3.07334,2.79725 3.37595,2.96849 3.76282,2.30031 "/>
     <line id="_230097328" class="fil0 str2" x1="2.63367" y1="4.67783" x2="2.63367" y2= "3.02939" />
    </g>
   </g>
   <g>
    <g>
     <g>
      <polyline id="_230097184" class="fil0 str0" points="2.22536,0.628632 1.82513,0.405964 2.65631,0.0310957 3.51825,0.405293 3.0873,0.600781 "/>
      <path id="_230097112" class="fil0 str0" d="M3.45667 0.405964c0.0703026,0.0319509 0.0642104,0.189775 0.0638048,0.246421"/>
      <line id="_230097040" class="fil0 str1" x1="3.53564" y1="0.696696" x2="3.53564" y2= "0.710855" />
      <path id="_230096968" class="fil0 str1" d="M3.53564 0.710855c0,-0.0267845 -0.0326474,-0.0485347 -0.0622002,-0.0485347 -0.0295088,0 -0.0622091,0.0217503 -0.0622091,0.0485347"/>
      <polyline id="_230096896" class="fil0 str1" points="3.41123,0.710855 3.41123,0.696696 3.53564,0.696696 "/>
      <g>
       <path id="_230096824" class="fil0 str0" d="M2.68708 0.419938c-0.0687156,-0.0103858 -0.277049,0.0278248 -0.277049,0.0278248 -0.167434,0.0974309 -0.158309,0.121853 -0.159023,0.194994 -0.000317393,0.0436768 -0.000670052,0.249736 -0.00092573,0.293377 0,0 0.230595,-0.166411 0.406228,-0.168113 0.175651,-0.00182501 0.401361,0.0906334 0.401361,0.0906334"/>
       <path id="_230096776" class="fil0 str0" d="M3.05955 0.93869c0.000317393,-0.044197 0.00188673,-0.244181 0.00220412,-0.288219 0.000158697,-0.0729564 0.0156933,-0.133191 -0.159155,-0.202708 0,0 -0.15398,-0.0417989 -0.246288,-0.0278248"/>
      </g>
     </g>
    </g>
    <g>
     <g>
      <g>
       <path id="_230096632" class="fil0 str0" d="M3.0723 0.879126c-0.00166631,-0.00929257 -0.00380872,-0.018594 -0.00647129,-0.0278865"/>
      </g>
     </g>
    </g>
   </g>
  </g>
 </g>
</svg>
