<?xml version="1.0" encoding="UTF-8"?>
<!DOCTYPE svg PUBLIC "-//W3C//DTD SVG 1.1//EN" "http://www.w3.org/Graphics/SVG/1.1/DTD/svg11.dtd">
<!-- Creator: CorelDRAW -->
<svg xmlns="http://www.w3.org/2000/svg" xml:space="preserve" width="160px" height="155px" style="shape-rendering:geometricPrecision; text-rendering:geometricPrecision; image-rendering:optimizeQuality; fill-rule:evenodd; clip-rule:evenodd"
viewBox="0 0 5.60452 5.43979"
 xmlns:xlink="http://www.w3.org/1999/xlink">
 <defs>
  <style type="text/css">
   <![CDATA[
    .str0 {stroke:#DAE409;stroke-width:0.0727452}
    .fil0 {fill:none;fill-rule:nonzero}
   ]]>
  </style>
 </defs>
 <g id="Layer_x0020_1">
  <metadata id="CorelCorpID_0Corel-Layer"/>
  <g id="_230411632">
   <g>
    <g>
     <g>
      <line id="_231301832" class="fil0 str0" x1="1.822" y1="1.57051" x2="1.822" y2= "2.04332" />
      <g>
       <line id="_231301760" class="fil0 str0" x1="1.4036" y1="2.25443" x2="1.7975" y2= "2.02698" />
       <line id="_231301712" class="fil0 str0" x1="2.21771" y1="2.25443" x2="1.82382" y2= "2.02698" />
      </g>
     </g>
    </g>
    <g>
     <path id="_231301544" class="fil0 str0" d="M2.57516 0.806971c0,0.425656 -0.344983,0.770598 -0.770629,0.770598 -0.425574,0 -0.77066,-0.344942 -0.77066,-0.770598 0,-0.425574 0.345086,-0.770598 0.77066,-0.770598 0.425646,0 0.770629,0.345024 0.770629,0.770598"/>
     <g>
      <path id="_231301472" class="fil0 str0" d="M2.33119 1.35228c0,0 0,-0.12016 0,-0.226432 0,-0.0761165 -0.0615489,-0.164161 -0.137449,-0.187286 -0.261165,-0.0779619 -0.548259,-0.0779619 -0.809456,0 -0.0757247,0.0231247 -0.144202,0.111427 -0.144202,0.187286 0,0.0906119 0,0.226432 0,0.226432"/>
      <path id="_231301400" class="fil0 str0" d="M2.06381 0.598519c0,0.150388 -0.121964,0.272279 -0.27231,0.272279 -0.150388,0 -0.272248,-0.121892 -0.272248,-0.272279 0,-0.150377 0.121861,-0.272248 0.272248,-0.272248 0.150346,0 0.27231,0.121871 0.27231,0.272248"/>
      <path id="_231301328" class="fil0 str0" d="M2.06381 0.598519c0,0.150388 -0.121964,0.272279 -0.27231,0.272279 -0.150388,0 -0.272248,-0.121892 -0.272248,-0.272279 0,-0.150377 0.121861,-0.272248 0.272248,-0.272248 0.150346,0 0.27231,0.121871 0.27231,0.272248"/>
      <g>
       <line id="_231301256" class="fil0 str0" x1="1.49467" y1="1.17043" x2="1.49467" y2= "1.53413" />
       <line id="_231301208" class="fil0 str0" x1="2.0766" y1="1.17043" x2="2.0766" y2= "1.53413" />
      </g>
     </g>
    </g>
    <g>
     <path id="_231301040" class="fil0 str0" d="M1.5775 2.72458c0,0.425646 -0.344983,0.770629 -0.770526,0.770629 -0.425615,0 -0.770598,-0.344983 -0.770598,-0.770629 0,-0.425646 0.344983,-0.770598 0.770598,-0.770598 0.425543,0 0.770526,0.344952 0.770526,0.770598"/>
     <g>
      <path id="_230415184" class="fil0 str0" d="M1.31282 3.27991c0,0 0,-0.130211 0,-0.236515 0,-0.0761165 -0.0511567,-0.164161 -0.127098,-0.187245 -0.261165,-0.077931 -0.535269,-0.077931 -0.796403,0 -0.0757144,0.0230834 -0.131232,0.111376 -0.131232,0.187245 0,0.0906119 0,0.200142 0,0.200142"/>
      <path id="_230415112" class="fil0 str0" d="M1.06618 2.51613c0,0.150346 -0.121933,0.272248 -0.272341,0.272248 -0.150346,0 -0.272217,-0.121902 -0.272217,-0.272248 0,-0.15046 0.121871,-0.27232 0.272217,-0.27232 0.150408,0 0.272341,0.121861 0.272341,0.27232"/>
      <path id="_230415040" class="fil0 str0" d="M1.06618 2.51613c0,0.150346 -0.121933,0.272248 -0.272341,0.272248 -0.150346,0 -0.272217,-0.121902 -0.272217,-0.272248 0,-0.15046 0.121871,-0.27232 0.272217,-0.27232 0.150408,0 0.272341,0.121861 0.272341,0.27232"/>
      <g>
       <line id="_230414968" class="fil0 str0" x1="0.51267" y1="3.09805" x2="0.51267" y2= "3.46176" />
       <line id="_230414920" class="fil0 str0" x1="1.0946" y1="3.09805" x2="1.0946" y2= "3.46176" />
      </g>
     </g>
    </g>
    <g>
     <path id="_230414752" class="fil0 str0" d="M3.56675 2.72458c0,0.425646 -0.344921,0.770629 -0.770567,0.770629 -0.425574,0 -0.770588,-0.344983 -0.770588,-0.770629 0,-0.425646 0.345014,-0.770598 0.770588,-0.770598 0.425646,0 0.770567,0.344952 0.770567,0.770598"/>
     <g>
      <path id="_230414680" class="fil0 str0" d="M3.31319 3.27991c0,0 0,-0.130211 0,-0.236515 0,-0.0761165 -0.056724,-0.164161 -0.132624,-0.187245 -0.261196,-0.077931 -0.532506,-0.077931 -0.793661,0 -0.0756526,0.0230834 -0.128459,0.111376 -0.128459,0.187245 0,0.0906119 0,0.200142 0,0.200142"/>
      <path id="_230414608" class="fil0 str0" d="M3.05543 2.51613c0,0.150346 -0.121933,0.272248 -0.272351,0.272248 -0.150315,0 -0.272176,-0.121902 -0.272176,-0.272248 0,-0.15046 0.121861,-0.27232 0.272176,-0.27232 0.150418,0 0.272351,0.121861 0.272351,0.27232"/>
      <path id="_230414536" class="fil0 str0" d="M3.05543 2.51613c0,0.150346 -0.121933,0.272248 -0.272351,0.272248 -0.150315,0 -0.272176,-0.121902 -0.272176,-0.272248 0,-0.15046 0.121861,-0.27232 0.272176,-0.27232 0.150418,0 0.272351,0.121861 0.272351,0.27232"/>
      <g>
       <line id="_230414464" class="fil0 str0" x1="2.47667" y1="3.09805" x2="2.47667" y2= "3.46176" />
       <line id="_230414416" class="fil0 str0" x1="3.0586" y1="3.09805" x2="3.0586" y2= "3.46176" />
      </g>
     </g>
    </g>
   </g>
   <g>
    <g>
     <g>
      <line id="_230414224" class="fil0 str0" x1="2.804" y1="3.46176" x2="2.804" y2= "3.97094" />
      <g>
       <line id="_230414152" class="fil0 str0" x1="2.40279" y1="4.16263" x2="2.79668" y2= "3.93518" />
       <line id="_230414104" class="fil0 str0" x1="3.21686" y1="4.16263" x2="2.82293" y2= "3.93518" />
      </g>
     </g>
    </g>
    <g>
     <path id="_230413936" class="fil0 str0" d="M2.57669 4.63282c0,0.425615 -0.344993,0.770598 -0.770598,0.770598 -0.425615,0 -0.770598,-0.344983 -0.770598,-0.770598 0,-0.425605 0.344983,-0.770598 0.770598,-0.770598 0.425605,0 0.770598,0.344993 0.770598,0.770598"/>
     <g>
      <path id="_230413864" class="fil0 str0" d="M2.33119 5.20753c0,0 0,-0.149635 0,-0.255969 0,-0.0760134 -0.0607757,-0.164099 -0.136634,-0.187183 -0.261206,-0.0779619 -0.548682,-0.0779619 -0.809847,0 -0.0757247,0.0230834 -0.144624,0.111386 -0.144624,0.187183 0,0.0906325 0,0.219607 0,0.219607"/>
      <path id="_230413792" class="fil0 str0" d="M2.06533 4.42437c0,0.150346 -0.121892,0.272207 -0.27231,0.272207 -0.150346,0 -0.272248,-0.121861 -0.272248,-0.272207 0,-0.150418 0.121902,-0.272351 0.272248,-0.272351 0.150418,0 0.27231,0.121933 0.27231,0.272351"/>
      <path id="_230413720" class="fil0 str0" d="M2.06533 4.42437c0,0.150346 -0.121892,0.272207 -0.27231,0.272207 -0.150346,0 -0.272248,-0.121861 -0.272248,-0.272207 0,-0.150418 0.121902,-0.272351 0.272248,-0.272351 0.150418,0 0.27231,0.121933 0.27231,0.272351"/>
      <g>
       <line id="_230413648" class="fil0 str0" x1="1.50337" y1="4.99795" x2="1.50337" y2= "5.35384" />
       <line id="_230413600" class="fil0 str0" x1="2.08282" y1="4.99795" x2="2.08282" y2= "5.35384" />
      </g>
     </g>
    </g>
    <g>
     <path id="_230413432" class="fil0 str0" d="M4.56594 4.63282c0,0.425615 -0.344983,0.770598 -0.770598,0.770598 -0.425574,0 -0.770557,-0.344983 -0.770557,-0.770598 0,-0.425605 0.344983,-0.770598 0.770557,-0.770598 0.425615,0 0.770598,0.344993 0.770598,0.770598"/>
     <g>
      <path id="_230413360" class="fil0 str0" d="M4.33156 5.20753c0,0 0,-0.149635 0,-0.255969 0,-0.0760134 -0.0663532,-0.164099 -0.142212,-0.187183 -0.261165,-0.0779619 -0.545878,-0.0779619 -0.807115,0 -0.0756526,0.0230834 -0.141789,0.111386 -0.141789,0.187183 0,0.0906325 0,0.219607 0,0.219607"/>
      <path id="_230413288" class="fil0 str0" d="M4.05459 4.42437c0,0.150346 -0.121933,0.272207 -0.27231,0.272207 -0.150357,0 -0.272248,-0.121861 -0.272248,-0.272207 0,-0.150418 0.121892,-0.272351 0.272248,-0.272351 0.150377,0 0.27231,0.121933 0.27231,0.272351"/>
      <path id="_230413216" class="fil0 str0" d="M4.05459 4.42437c0,0.150346 -0.121933,0.272207 -0.27231,0.272207 -0.150357,0 -0.272248,-0.121861 -0.272248,-0.272207 0,-0.150418 0.121892,-0.272351 0.272248,-0.272351 0.150377,0 0.27231,0.121933 0.27231,0.272351"/>
      <g>
       <line id="_230413144" class="fil0 str0" x1="3.49263" y1="4.99795" x2="3.49263" y2= "5.35384" />
       <line id="_230413096" class="fil0 str0" x1="4.07209" y1="4.99795" x2="4.07209" y2= "5.35384" />
      </g>
     </g>
    </g>
   </g>
   <g>
    <g>
     <g>
      <line id="_230412904" class="fil0 str0" x1="3.82237" y1="1.57051" x2="3.82237" y2= "2.07968" />
      <g>
       <line id="_230412832" class="fil0 str0" x1="3.40493" y1="2.2805" x2="3.79886" y2= "2.05305" />
       <line id="_230412784" class="fil0 str0" x1="4.21907" y1="2.2805" x2="3.82514" y2= "2.05305" />
      </g>
     </g>
    </g>
    <g>
     <path id="_230412616" class="fil0 str0" d="M4.57648 0.833013c0,0.425677 -0.344983,0.770629 -0.770629,0.770629 -0.425543,0 -0.770557,-0.344952 -0.770557,-0.770629 0,-0.425574 0.345014,-0.770598 0.770557,-0.770598 0.425646,0 0.770629,0.345024 0.770629,0.770598"/>
     <g>
      <path id="_230412544" class="fil0 str0" d="M4.33156 1.38865c0,0 0,-0.130531 0,-0.236803 0,-0.0760753 -0.0610231,-0.164089 -0.136923,-0.187245 -0.261237,-0.0779619 -0.548507,-0.0779619 -0.809775,0 -0.0757247,0.0231556 -0.144418,0.111417 -0.144418,0.187245 0,0.0906429 0,0.200431 0,0.200431"/>
      <path id="_230412472" class="fil0 str0" d="M4.06518 0.624551c0,0.150388 -0.121974,0.272279 -0.272351,0.272279 -0.150357,0 -0.272217,-0.121892 -0.272217,-0.272279 0,-0.150377 0.121861,-0.272279 0.272217,-0.272279 0.150377,0 0.272351,0.121902 0.272351,0.272279"/>
      <path id="_230412400" class="fil0 str0" d="M4.06518 0.624551c0,0.150388 -0.121974,0.272279 -0.272351,0.272279 -0.150357,0 -0.272217,-0.121892 -0.272217,-0.272279 0,-0.150377 0.121861,-0.272279 0.272217,-0.272279 0.150377,0 0.272351,0.121902 0.272351,0.272279"/>
      <g>
       <line id="_230412328" class="fil0 str0" x1="3.49504" y1="1.2068" x2="3.49504" y2= "1.57051" />
       <line id="_230412280" class="fil0 str0" x1="4.07696" y1="1.2068" x2="4.07696" y2= "1.57051" />
      </g>
     </g>
    </g>
    <g>
     <path id="_230412112" class="fil0 str0" d="M5.56814 2.75066c0,0.425646 -0.344983,0.770588 -0.770557,0.770588 -0.425615,0 -0.770598,-0.344942 -0.770598,-0.770588 0,-0.425687 0.344983,-0.77067 0.770598,-0.77067 0.425574,0 0.770557,0.344983 0.770557,0.77067"/>
     <g>
      <path id="_230412040" class="fil0 str0" d="M5.31356 3.31628c0,0 0,-0.140542 0,-0.246886 0,-0.0760753 -0.0562291,-0.164058 -0.132129,-0.187214 -0.261165,-0.0779619 -0.532754,-0.0779619 -0.79395,0 -0.0756526,0.0231556 -0.128665,0.111386 -0.128665,0.187214 0,0.0906738 0,0.210514 0,0.210514"/>
      <path id="_230411968" class="fil0 str0" d="M5.05679 2.54217c0,0.150346 -0.121933,0.272248 -0.27231,0.272248 -0.150388,0 -0.272279,-0.121902 -0.272279,-0.272248 0,-0.150449 0.121892,-0.27232 0.272279,-0.27232 0.150377,0 0.27231,0.121871 0.27231,0.27232"/>
      <path id="_230411896" class="fil0 str0" d="M5.05679 2.54217c0,0.150346 -0.121933,0.272248 -0.27231,0.272248 -0.150388,0 -0.272279,-0.121902 -0.272279,-0.272248 0,-0.150449 0.121892,-0.27232 0.272279,-0.27232 0.150377,0 0.27231,0.121871 0.27231,0.27232"/>
      <g>
       <line id="_230411824" class="fil0 str0" x1="4.47704" y1="3.09805" x2="4.47704" y2= "3.46176" />
       <line id="_230411776" class="fil0 str0" x1="5.05896" y1="3.09805" x2="5.05896" y2= "3.46176" />
      </g>
     </g>
    </g>
   </g>
  </g>
 </g>
</svg>
