<?xml version="1.0" encoding="UTF-8"?>
<!DOCTYPE svg PUBLIC "-//W3C//DTD SVG 1.1//EN" "http://www.w3.org/Graphics/SVG/1.1/DTD/svg11.dtd">
<!-- Creator: CorelDRAW -->
<svg xmlns="http://www.w3.org/2000/svg" xml:space="preserve" width="175px" height="160px" style="shape-rendering:geometricPrecision; text-rendering:geometricPrecision; image-rendering:optimizeQuality; fill-rule:evenodd; clip-rule:evenodd"
viewBox="0 0 6.88557 6.30875"
 xmlns:xlink="http://www.w3.org/1999/xlink">
 <defs>
  <style type="text/css">
   <![CDATA[
    .str0 {stroke:#DAE409;stroke-width:0.0800702}
    .fil0 {fill:none;fill-rule:nonzero}
   ]]>
  </style>
 </defs>
 <g id="Layer_x0020_1">
  <metadata id="CorelCorpID_0Corel-Layer"/>
  <g id="_230393752">
   <g>
    <g>
     <path id="_230394832" class="fil0 str0" d="M4.23947 0.661827c-0.401577,-0.4011 -0.934663,-0.621985 -1.50075,-0.621792 -0.567697,-0.000192913 -1.10168,0.221748 -1.50298,0.624879 -0.399228,0.401384 -0.619489,0.933778 -0.619409,1.49814 0.000431217,1.1701 0.952842,2.1227 2.12326,2.12196 0.567913,0 1.10199,-0.222372 1.50368,-0.625469 0.399432,-0.401304 0.618831,-0.933142 0.618944,-1.49736 -0.000113478,-0.566313 -0.221158,-1.09917 -0.622734,-1.50036"/>
     <path id="_230394760" class="fil0 str0" d="M3.96241 3.37947c-0.327305,0.328587 -0.761325,0.509052 -1.22299,0.509165 -0.95223,0.00062413 -1.7266,-0.773524 -1.72641,-1.72558 0,-0.45928 0.178864,-0.89178 0.503854,-1.21822 0.326636,-0.327918 0.760815,-0.508575 1.22185,-0.508609 0.460755,-0.000192913 0.893924,0.179046 1.22056,0.506113 0.326477,0.326046 0.506351,0.759873 0.506737,1.21994 0.000124826,0.458894 -0.178535,0.891042 -0.503605,1.2172"/>
     <path id="_230394688" class="fil0 str0" d="M4.68792 3.73144c-0.0887853,-0.0913159 -0.178161,-0.182915 -0.267445,-0.274595 -0.0545717,0.0705267 -0.113297,0.138398 -0.177219,0.202706 -0.0653975,0.0656017 -0.134517,0.125688 -0.206496,0.181667 0.08933,0.0917585 0.178547,0.183358 0.268308,0.275775"/>
     <polygon id="_230394616" class="fil0 str0" points="6.69838,5.50851 6.08535,6.12147 4.17218,4.2084 4.78526,3.59532 "/>
     <polygon id="_230394544" class="fil0 str0" points="5.00771,3.818 4.39475,4.43107 4.17218,4.2084 4.78526,3.59532 "/>
     <path id="_230394496" class="fil0 str0" d="M6.84554 5.65579c0,0.338392 -0.274368,0.612794 -0.613089,0.612918 -0.0489772,-0.0490339 -0.0979998,-0.0980905 -0.147102,-0.147238 0.204499,-0.204386 0.408839,-0.408567 0.613032,-0.612952 0.0489885,0.0488978 0.0980905,0.0980452 0.147159,0.147272"/>
    </g>
    <polyline id="_230394376" class="fil0 str0" points="4.82354,2.42315 5.4815,2.50865 6.68466,1.10489 "/>
    <line id="_230394304" class="fil0 str0" x1="2.98188" y1="2.18393" x2="4.42302" y2= "2.37112" />
    <line id="_230394232" class="fil0 str0" x1="1.69872" y1="3.58953" x2="2.51377" y2= "2.34852" />
    <polyline id="_230394160" class="fil0 str0" points="0.100235,3.94591 1.06954,4.54741 1.4884,3.90979 "/>
    <path id="_230394088" class="fil0 str0" d="M2.9818 2.1335c0,0.146398 -0.118846,0.265448 -0.265448,0.265448 -0.146602,0 -0.265448,-0.11905 -0.265448,-0.265448 0,-0.146489 0.118846,-0.26538 0.265448,-0.26538 0.146602,0 0.265448,0.118891 0.265448,0.26538"/>
    <path id="_230394016" class="fil0" d="M1.23667 4.54741c0,0.0923032 -0.0748275,0.16721 -0.167131,0.16721 -0.0922578,0 -0.167131,-0.074907 -0.167131,-0.16721 0,-0.0922237 0.0748729,-0.167085 0.167131,-0.167085 0.0923032,0 0.167131,0.0748616 0.167131,0.167085z"/>
    <path id="_230393944" class="fil0" d="M0.334216 3.97926c0,0.0923032 -0.0747821,0.167165 -0.167131,0.167165 -0.0923032,0 -0.167085,-0.0748616 -0.167085,-0.167165 0,-0.0922578 0.0747821,-0.167097 0.167085,-0.167097 0.0923485,0 0.167131,0.0748389 0.167131,0.167097z"/>
    <path id="_230393872" class="fil0" d="M5.64858 2.50865c0,0.0922578 -0.0748275,0.167131 -0.167085,0.167131 -0.0923485,0 -0.167165,-0.0748729 -0.167165,-0.167131 0,-0.0922691 0.0748162,-0.167085 0.167165,-0.167085 0.0922578,0 0.167085,0.0748162 0.167085,0.167085z"/>
    <path id="_230393824" class="fil0" d="M6.8184 1.16341c0,0.0922237 -0.0747935,0.167085 -0.167131,0.167085 -0.0923032,0 -0.167097,-0.0748616 -0.167097,-0.167085 0,-0.0923372 0.0747935,-0.167165 0.167097,-0.167165 0.0923372,0 0.167131,0.0748275 0.167131,0.167165z"/>
   </g>
  </g>
 </g>
</svg>
