<?xml version="1.0" encoding="UTF-8"?>
<!DOCTYPE svg PUBLIC "-//W3C//DTD SVG 1.1//EN" "http://www.w3.org/Graphics/SVG/1.1/DTD/svg11.dtd">
<!-- Creator: CorelDRAW -->
<svg xmlns="http://www.w3.org/2000/svg" xml:space="preserve" width="175px" height="122px" style="shape-rendering:geometricPrecision; text-rendering:geometricPrecision; image-rendering:optimizeQuality; fill-rule:evenodd; clip-rule:evenodd"
viewBox="0 0 8.50777 5.94755"
 xmlns:xlink="http://www.w3.org/1999/xlink">
 <defs>
  <style type="text/css">
   <![CDATA[
    .str1 {stroke:#DAE409;stroke-width:0.0393903}
    .str0 {stroke:#DAE409;stroke-width:0.0787806}
    .fil0 {fill:none;fill-rule:nonzero}
    .fil2 {fill:#2F00F9;fill-rule:nonzero}
    .fil1 {fill:#413F42;fill-rule:nonzero}
   ]]>
  </style>
 </defs>
 <g id="Layer_x0020_1">
  <metadata id="CorelCorpID_0Corel-Layer"/>
  <g id="_231306056">
   <g>
    <g>
     <line id="_231311744" class="fil0 str0" x1="7.24735" y1="3.07224" x2="7.24735" y2= "0.19598" />
     <path id="_231311672" class="fil0 str0" d="M7.24735 0.19598c0,-0.0994359 -0.0741136,-0.15659 -0.173628,-0.15659"/>
     <line id="_231311600" class="fil0 str0" x1="7.07373" y1="0.0393903" x2="0.843341" y2= "0.0393903" />
     <path id="_231311528" class="fil0 str0" d="M0.843341 0.0393903c-0.0995922,0 -0.21313,0.0571539 -0.21313,0.15659"/>
     <line id="_231311456" class="fil0 str0" x1="0.630211" y1="0.19598" x2="0.630211" y2= "3.62367" />
     <line id="_231311384" class="fil0 str0" x1="1.45735" y1="4.05694" x2="4.49021" y2= "4.05694" />
     <polyline id="_231311312" class="fil0 str0" points="6.89286,3.11163 6.89286,0.35449 0.945311,0.35449 0.945311,3.62367 "/>
     <line id="_231311240" class="fil0 str0" x1="1.41796" y1="3.74184" x2="4.5296" y2= "3.74184" />
     <line id="_231311168" class="fil0 str0" x1="4.49021" y1="4.05694" x2="1.45735" y2= "4.05694" />
     <line id="_231311096" class="fil0 str0" x1="1.41796" y1="4.84469" x2="4.5296" y2= "4.84469" />
     <line id="_231311024" class="fil0 str0" x1="4.5296" y1="4.84469" x2="3.22873" y2= "4.84469" />
     <path id="_231310952" class="fil0 str0" d="M3.22873 4.84469c0,0 0.0132306,0.436386 -0.0165466,0.586556 -0.0272315,0.137464 -0.046268,0.141282 -0.119243,0.181745 -0.0411544,0.0225422 -0.110735,0.0469602 -0.168938,0.072048"/>
     <line id="_231310904" class="fil0 str0" x1="2.75715" y1="5.71123" x2="4.56898" y2= "5.71123" />
    </g>
    <g>
     <path id="_231310784" class="fil0 str0" d="M1.41796 5.797c0,0.0396582 -0.0321553,0.0717801 -0.0717801,0.0717801"/>
     <line id="_231310712" class="fil0 str0" x1="1.34618" y1="5.86878" x2="0.11117" y2= "5.86878" />
     <path id="_231310640" class="fil0 str0" d="M0.11117 5.86878c-0.0396247,0 -0.0717801,-0.0321218 -0.0717801,-0.0717801"/>
     <line id="_231310568" class="fil0 str0" x1="0.0393903" y1="5.797" x2="0.0393903" y2= "3.69545" />
     <path id="_231310496" class="fil0 str0" d="M0.0393903 3.69545c0,-0.0396582 0.0321553,-0.0717801 0.0717801,-0.0717801"/>
     <line id="_231310424" class="fil0 str0" x1="0.11117" y1="3.62367" x2="1.34618" y2= "3.62367" />
     <path id="_231310352" class="fil0 str0" d="M1.34618 3.62367c0.0396247,0 0.0717801,0.0321218 0.0717801,0.0717801"/>
     <line id="_231310280" class="fil0 str0" x1="1.41796" y1="3.69545" x2="1.41796" y2= "5.797" />
     <polygon id="_231310208" class="fil0 str1" points="1.28011,3.95847 0.177245,3.95847 0.177245,5.53399 1.28011,5.53399 "/>
     <g>
      <polygon id="_231310160" class="fil1 str0" points="0.51204,3.82061 0.984701,3.82061 "/>
     </g>
     <g>
      <polygon id="_231310064" class="fil1 str0" points="0.66959,5.67184 0.82714,5.67184 "/>
     </g>
     <g>
      <polygon id="_231309944" class="fil0 str1" points="0.580125,4.6915 0.528509,4.78562 0.990853,4.78562 0.939226,4.6915 0.883189,4.58868 0.636173,4.58868 "/>
      <polygon id="_231309872" class="fil0 str1" points="0.858078,4.5099 0.759681,4.31697 0.661283,4.5099 "/>
      <polygon id="_231309800" class="fil0 str1" points="0.503354,4.86439 0.400535,5.06133 0.759681,5.06133 1.11883,5.06133 1.01601,4.86439 "/>
      <polyline id="_231309728" class="fil0 str1" points="0.972085,4.70473 1.04651,4.62807 1.18163,4.62807 "/>
      <polyline id="_231309656" class="fil0 str1" points="0.674938,4.42901 0.593277,4.35235 0.393881,4.35235 "/>
      <polyline id="_231309584" class="fil0 str1" points="0.44361,4.94101 0.36695,4.86439 0.275721,4.86439 "/>
      <line id="_231309536" class="fil0 str1" x1="0.275721" y1="4.78562" x2="0.35449" y2= "4.78562" />
     </g>
    </g>
    <g>
     <polyline id="_231309392" class="fil0 str1" points="1.3985,1.97473 1.83173,1.56989 2.17195,1.58678 2.52578,1.21564 2.87958,1.41804 3.16534,1.97473 3.58725,1.941 3.98186,1.51924 4.48537,1.95789 5.07972,1.70482 "/>
     <polyline id="_231309320" class="fil0 str1" points="1.3985,2.98685 1.87247,2.91939 2.07663,2.36272 2.55298,2.44704 2.81154,2.78437 3.24695,2.76757 3.65526,2.95312 4.06356,3.0037 4.33578,2.86877 4.62138,2.39647 5.07972,2.81819 "/>
     <line id="_231309248" class="fil0 str1" x1="4.92602" y1="1.90911" x2="5.07972" y2= "2.05909" />
     <polyline id="_231309176" class="fil0 str1" points="4.35612,1.64286 4.4172,1.51924 4.71661,1.70482 "/>
     <polyline id="_231309104" class="fil0 str1" points="2.63783,2.31961 2.83866,2.09282 3.27412,2.31211 3.75042,2.7001 3.94097,2.24464 4.15872,2.04224 4.21542,1.92758 "/>
     <polyline id="_231309032" class="fil0 str1" points="2.1618,2.67095 2.28227,2.78437 2.49556,2.55782 "/>
     <line id="_231308960" class="fil0 str1" x1="1.40223" y1="2.64948" x2="1.90612" y2= "2.4302" />
     <line id="_231308888" class="fil0 str1" x1="5.79" y1="0.768055" x2="6.4596" y2= "0.768055" />
     <line id="_231308816" class="fil0 str1" x1="5.67184" y1="0.768055" x2="5.51429" y2= "0.768055" />
     <line id="_231308744" class="fil0 str1" x1="5.79" y1="1.04378" x2="6.61715" y2= "1.04378" />
     <line id="_231308672" class="fil0 str1" x1="5.79" y1="1.28011" x2="6.61715" y2= "1.28011" />
     <line id="_231308600" class="fil0 str1" x1="5.79" y1="1.91031" x2="6.4596" y2= "1.91031" />
     <line id="_231308528" class="fil0 str1" x1="5.67184" y1="1.91031" x2="5.51429" y2= "1.91031" />
     <line id="_231308456" class="fil0 str1" x1="5.79" y1="2.18602" x2="6.61715" y2= "2.18602" />
     <line id="_231308384" class="fil0 str1" x1="5.79" y1="2.42235" x2="6.61715" y2= "2.42235" />
     <line id="_231308312" class="fil0 str1" x1="4.42897" y1="0.768055" x2="3.66388" y2= "0.768055" />
     <path id="_231308240" class="fil0 str1" d="M3.66388 0.768055c-0.0306927,0 -0.0992796,-0.015765 -0.0992796,0.014816"/>
     <line id="_231308168" class="fil0 str1" x1="3.5646" y1="0.782871" x2="3.5646" y2= "1.10074" />
     <path id="_231308096" class="fil0 str1" d="M3.5646 1.10074c0,0.0306927 0.0685869,0.100586 0.0992796,0.100586"/>
     <polyline id="_231308024" class="fil0 str1" points="3.66388,1.20133 3.97086,1.20133 3.99114,1.2139 4.04634,1.29818 4.10157,1.2196 4.1218,1.20133 4.42897,1.20133 "/>
     <path id="_231307952" class="fil0 str1" d="M4.42897 1.20133c0.0305029,0 0.00215485,-0.0698932 0.00215485,-0.100586"/>
     <line id="_231307880" class="fil0 str1" x1="4.43113" y1="1.10074" x2="4.43113" y2= "0.782871" />
     <path id="_231307808" class="fil0 str1" d="M4.43113 0.782871c0,-0.0305811 0.0283481,-0.014816 -0.00215485,-0.014816"/>
     <line id="_231307736" class="fil0 str1" x1="3.82062" y1="0.964995" x2="4.25388" y2= "0.964995" />
     <g>
      <g>
       <polyline id="_231307664" class="fil0 str1" points="1.3195,0.78775 1.3195,3.44643 4.5296,3.44643 "/>
       <g>
        <polygon id="_231307616" class="fil2" points="1.25865,0.84841 1.27307,0.861841 1.33917,0.79072 1.40529,0.861841 1.41971,0.84841 1.33917,0.761791 "/>
       </g>
      </g>
     </g>
    </g>
    <g>
     <g>
      <path id="_231307424" class="fil0 str0" d="M4.71673 5.90816c-0.081583,0 -0.187126,-0.0920446 -0.187126,-0.173661"/>
      <line id="_231307352" class="fil0 str0" x1="4.5296" y1="5.7345" x2="4.5296" y2= "3.25345" />
      <path id="_231307280" class="fil0 str0" d="M4.5296 3.25345c0,-0.0815383 0.105543,-0.141818 0.187126,-0.141818"/>
      <line id="_231307208" class="fil0 str0" x1="4.71673" y1="3.11163" x2="8.33329" y2= "3.11163" />
      <path id="_231307136" class="fil0 str0" d="M8.33329 3.11163c0.0815048,0 0.135086,0.0602801 0.135086,0.141818"/>
      <line id="_231307064" class="fil0 str0" x1="8.46838" y1="3.25345" x2="8.46838" y2= "5.7345" />
      <path id="_231306992" class="fil0 str0" d="M8.46838 5.7345c0,0.0816165 -0.0535811,0.173661 -0.135086,0.173661"/>
      <line id="_231306920" class="fil0 str0" x1="8.33329" y1="5.90816" x2="4.71673" y2= "5.90816" />
      <polygon id="_231306848" class="fil0 str0" points="7.99573,3.42673 7.99573,5.59306 5.00225,5.59306 5.00225,3.42673 "/>
      <polygon id="_231306776" class="fil1 str0" points="4.76592,4.37204 4.76592,4.64776 "/>
      <polygon id="_231306728" class="fil1 str0" points="8.27143,4.41143 8.27143,4.56898 "/>
     </g>
     <g>
      <g>
       <polygon id="_231306608" class="fil0 str1" points="6.60119,4.46686 6.75743,4.92166 6.91356,5.37643 6.60119,5.37643 6.28882,5.37643 6.44502,4.92166 "/>
       <polygon id="_231306536" class="fil0 str1" points="7.06588,4.00797 7.29982,4.69211 7.53377,5.37643 7.06588,5.37643 6.5982,5.37643 6.83206,4.69211 "/>
       <polygon id="_231306488" class="fil0 str1" points="7.49972,4.34346 7.67677,4.85989 7.85386,5.37643 7.49972,5.37643 7.14551,5.37643 7.32263,4.85989 "/>
      </g>
      <line id="_231306368" class="fil0 str1" x1="5.19919" y1="3.76154" x2="6.34143" y2= "3.76154" />
      <line id="_231306296" class="fil0 str1" x1="5.19919" y1="4.47052" x2="6.30205" y2= "4.47052" />
      <line id="_231306224" class="fil0 str1" x1="5.19919" y1="4.70684" x2="6.30205" y2= "4.70684" />
      <line id="_231306176" class="fil0 str1" x1="5.19919" y1="4.90378" x2="6.02633" y2= "4.90378" />
     </g>
    </g>
   </g>
  </g>
 </g>
</svg>
