<?xml version="1.0" encoding="UTF-8"?>
<!DOCTYPE svg PUBLIC "-//W3C//DTD SVG 1.1//EN" "http://www.w3.org/Graphics/SVG/1.1/DTD/svg11.dtd">
<!-- Creator: CorelDRAW -->
<svg xmlns="http://www.w3.org/2000/svg" xml:space="preserve" width="160px" height="181px" style="shape-rendering:geometricPrecision; text-rendering:geometricPrecision; image-rendering:optimizeQuality; fill-rule:evenodd; clip-rule:evenodd"
viewBox="0 0 8.22017 9.27695"
 xmlns:xlink="http://www.w3.org/1999/xlink">
 <defs>
  <style type="text/css">
   <![CDATA[
    .str3 {stroke:#DAE409;stroke-width:0.0587193}
    .str1 {stroke:#DAE409;stroke-width:0.176141}
    .str0 {stroke:#DAE409;stroke-width:0.176141;stroke-linejoin:round}
    .str2 {stroke:#DAE409;stroke-width:0.176141;stroke-linejoin:bevel}
    .fil0 {fill:none;fill-rule:nonzero}
   ]]>
  </style>
 </defs>
 <g id="Layer_x0020_1">
  <metadata id="CorelCorpID_0Corel-Layer"/>
  <g id="_230386936">
   <g>
    <path id="_230388952" class="fil0 str0" d="M3.58747 1.49583c0.259643,-0.580103 0.728915,-1.02419 1.32068,-1.25045 0.593617,-0.226672 1.24064,-0.207864 1.82155,0.0528108 0.578039,0.260375 1.02088,0.728998 1.2461,1.31927 0.467408,1.22344 -0.14768,2.60004 -1.37178,3.06748 -0.593867,0.226489 -1.24134,0.207448 -1.82231,-0.0532102 -0.578006,-0.260159 -1.0201,-0.728266 -1.24572,-1.31852 -0.225989,-0.591986 -0.208031,-1.23797 0.0514792,-1.81739"/>
    <path id="_230388880" class="fil0 str0" d="M4.96336 4.22617c0.473949,0.212841 0.99931,0.228436 1.48246,0.0440894 0.995582,-0.380044 1.49609,-1.49902 1.11545,-2.49439 -0.183548,-0.480273 -0.543403,-0.861067 -1.01364,-1.07224 -0.472867,-0.212325 -0.99901,-0.22792 -1.48071,-0.0434569 -0.482254,0.183764 -0.863214,0.544252 -1.07419,1.01662 -0.21116,0.471336 -0.225989,0.99713 -0.042475,1.47833 0.183465,0.47999 0.542987,0.860251 1.01311,1.07104"/>
    <path id="_230388808" class="fil0 str0" d="M4.34541 4.88425c0.0561894,-0.130853 0.113144,-0.262106 0.170016,-0.393526 0.0852329,0.0518288 0.173745,0.0993634 0.266284,0.141006 0.0948197,0.0422586 0.191004,0.0777432 0.288337,0.107569 -0.0565057,0.131469 -0.113311,0.262905 -0.170333,0.39529"/>
    <line id="_230388736" class="fil0 str0" x1="3.29404" y1="9.16241" x2="3.64527" y2= "8.37662" />
    <line id="_230388664" class="fil0 str0" x1="2.60136" y1="8.33396" x2="2.40806" y2= "8.76677" />
    <polyline id="_230388592" class="fil0 str1" points="4.95709,5.44583 5.07537,5.17703 4.18923,4.78121 3.92163,5.33327 "/>
    <path id="_230388520" class="fil0 str0" d="M2.41643 8.74796c0.135381,0.353731 0.532019,0.530904 0.886182,0.395523 0.0316232,-0.0707528 0.0633296,-0.141506 0.0948363,-0.212491 -0.295327,-0.131952 -0.590755,-0.263654 -0.885749,-0.395873 -0.0317896,0.0708693 -0.0635626,0.141739 -0.0952691,0.212841"/>
    <line id="_230388448" class="fil0 str1" x1="7.64361" y1="2.0245" x2="6.05594" y2= "2.63157" />
    <line id="_230388400" class="fil0 str1" x1="7.4422" y1="1.55358" x2="4.64645" y2= "2.62245" />
   </g>
   <path id="_230388280" class="fil0 str1" d="M3.56761 4.65512c0,0.000981984 0.830276,0.00154787 0.829959,0.00154787"/>
   <polyline id="_230388208" class="fil0 str1" points="4.39757,4.65667 3.23547,4.65667 2.02916,5.69164 "/>
   <path id="_230388136" class="fil0 str1" d="M2.02916 5.69164c-0.113561,0.120251 -0.196147,0.256764 -0.236691,0.432922"/>
   <line id="_230388064" class="fil0 str1" x1="1.79247" y1="6.12457" x2="1.76148" y2= "6.12457" />
   <line id="_230387992" class="fil0 str2" x1="1.82018" y1="7.94475" x2="1.95631" y2= "7.94475" />
   <path id="_230387920" class="fil0 str2" d="M1.95631 7.94475c0.175692,0.234861 0.454725,0.352282 0.770291,0.352282"/>
   <polyline id="_230387848" class="fil0 str2" points="2.7266,8.29703 4.39766,8.29703 4.76678,8.28729 "/>
   <path id="_230387776" class="fil0 str2" d="M4.76678 8.28729c0.197895,0 0.358374,-0.149544 0.358374,-0.346956 0,-0.197878 -0.0708526,-0.347889 -0.268681,-0.347889"/>
   <line id="_230387704" class="fil0 str2" x1="4.85648" y1="7.59245" x2="4.94605" y2= "7.59245" />
   <path id="_230387632" class="fil0 str2" d="M4.94605 7.59245c0.197728,0 0.357991,-0.154821 0.357991,-0.352516 0,-0.197246 -0.160263,-0.352066 -0.357991,-0.352066"/>
   <line id="_230387560" class="fil0 str2" x1="4.94605" y1="6.88787" x2="5.12516" y2= "6.88787" />
   <path id="_230387488" class="fil0 str2" d="M5.12516 6.88787c0.197329,0 0.357991,-0.183714 0.357991,-0.381659 0,-0.197811 -0.160663,-0.381642 -0.357991,-0.381642"/>
   <line id="_230387416" class="fil0 str2" x1="5.12516" y1="6.12457" x2="4.92343" y2= "6.12457" />
   <path id="_230387344" class="fil0 str2" d="M4.92343 6.12457c0.168918,0 0.344959,-0.149777 0.344959,-0.35413 0,-0.204935 -0.166554,-0.350468 -0.370541,-0.350468"/>
   <line id="_230387272" class="fil0 str2" x1="4.89785" y1="5.41997" x2="3.3468" y2= "5.41997" />
   <g>
    <polyline id="_230387200" class="fil0 str1" points="0.117439,5.88971 1.73212,5.88971 1.73212,8.53191 1.29174,8.53191 "/>
    <polyline id="_230387128" class="fil0 str3" points="-0,5.88971 1.26238,5.88971 1.26238,8.88419 -0,8.88419 "/>
    <path id="_230387056" class="fil0 str3" d="M0.697625 8.0284c-0.114826,0 -0.20823,0.0932385 -0.20823,0.208547 0,0.114676 0.093405,0.208547 0.20823,0.208547 0.115391,0 0.208463,-0.093871 0.208463,-0.208547 0,-0.115308 -0.0930721,-0.208547 -0.208463,-0.208547"/>
    <polyline id="_230387008" class="fil0 str1" points="-0,5.88971 1.26238,5.88971 1.26238,8.88419 -0,8.88419 "/>
   </g>
  </g>
 </g>
</svg>
