<?xml version="1.0" encoding="UTF-8"?>
<!DOCTYPE svg PUBLIC "-//W3C//DTD SVG 1.1//EN" "http://www.w3.org/Graphics/SVG/1.1/DTD/svg11.dtd">
<!-- Creator: CorelDRAW -->
<svg xmlns="http://www.w3.org/2000/svg" xml:space="preserve" width="175px" height="170px" style="shape-rendering:geometricPrecision; text-rendering:geometricPrecision; image-rendering:optimizeQuality; fill-rule:evenodd; clip-rule:evenodd"
viewBox="0 0 7.16185 6.97582"
 xmlns:xlink="http://www.w3.org/1999/xlink">
 <defs>
  <style type="text/css">
   <![CDATA[
    .str0 {stroke:#DAE409;stroke-width:0.0930168}
    .fil0 {fill:none;fill-rule:nonzero}
   ]]>
  </style>
 </defs>
 <g id="Layer_x0020_1">
  <metadata id="CorelCorpID_0Corel-Layer"/>
  <g id="_230389024">
   <g>
    <g>
     <line id="_230393680" class="fil0 str0" x1="1.67421" y1="1.02312" x2="1.67421" y2= "0.517683" />
     <path id="_230393608" class="fil0 str0" d="M1.67421 0.517683c0,-0.26041 -0.204806,-0.471174 -0.46515,-0.471174 -0.260239,0 -0.464965,0.210764 -0.464965,0.471174"/>
     <polyline id="_230393536" class="fil0 str0" points="0.744094,0.517683 0.744094,1.02312 1.67421,1.02312 "/>
     <g>
      <polyline id="_230393464" class="fil0 str0" points="6.07723,6.10893 6.09222,6.19521 6.09222,0.517683 "/>
      <path id="_230393392" class="fil0 str0" d="M6.09222 0.517683c0,-0.241836 -0.189487,-0.440656 -0.423967,-0.467733 -0.128122,0 -4.18826,0.000909603 -4.39778,0 0.234361,0.0270772 0.403745,0.225898 0.403745,0.467733"/>
      <line id="_230393320" class="fil0 str0" x1="1.67421" y1="0.517683" x2="1.67421" y2= "2.37178" />
      <path id="_230393248" class="fil0 str0" d="M3.32451 6.92749c3.04212,-0.00367796 2.99171,-0.00367796 3.19662,-0.00367796 0.234453,-0.027209 0.408187,-0.229984 0.408187,-0.471636"/>
      <polyline id="_230393200" class="fil0 str0" points="6.92931,6.45218 6.92931,6.23173 3.34841,6.23173 "/>
     </g>
    </g>
   </g>
   <line id="_230393032" class="fil0 str0" x1="2.32527" y1="0.837098" x2="4.04598" y2= "0.837098" />
   <line id="_230392960" class="fil0 str0" x1="2.32527" y1="1.25565" x2="3.02286" y2= "1.25565" />
   <g>
    <g>
     <polyline id="_230392888" class="fil0 str0" points="6.60378,0.146736 6.60378,0.465057 7.11535,0.465057 7.11535,0.146736 "/>
     <path id="_230392816" class="fil0 str0" d="M7.11535 0.146736c0,-0.0222128 -0.0292523,-0.0537325 -0.0596119,-0.0537325"/>
     <line id="_230392744" class="fil0 str0" x1="7.05573" y1="0.0930036" x2="6.66714" y2= "0.0930036" />
     <path id="_230392672" class="fil0 str0" d="M6.66714 0.0930036c-0.0303596,0 -0.0633558,0.0315197 -0.0633558,0.0537325"/>
     <polygon id="_230392624" class="fil0 str0" points="7.11535,4.83657 7.11535,0.465057 6.60378,0.465057 6.60378,4.83657 "/>
    </g>
    <path id="_230392504" class="fil0 str0" d="M6.86154 4.81573c-0.0887192,0 -0.172679,0.0128926 -0.248902,0.03587"/>
    <polyline id="_230392432" class="fil0 str0" points="6.61264,4.8516 6.86161,5.49777 7.1101,4.8516 "/>
    <path id="_230392360" class="fil0 str0" d="M7.1101 4.8516c-0.0760507,-0.0229774 -0.15984,-0.03587 -0.248559,-0.03587"/>
    <g>
     <polygon id="_230392312" class="fil0 str0" points="6.60378,0.883606 7.11535,0.883606 7.11535,0.465057 6.60378,0.465057 "/>
    </g>
    <path id="_230392192" class="fil0 str0" d="M6.9425 5.28641c-0.0251129,-0.00195103 -0.0504632,-0.00377024 -0.0766175,-0.00377024 -0.02916,0 -0.0577927,0.00181921 -0.0857267,0.00490394"/>
    <polyline id="_230392144" class="fil0 str0" points="6.78015,5.28755 6.86154,5.49777 6.9425,5.28641 "/>
   </g>
   <g>
    <line id="_230392024" class="fil0 str0" x1="3.62743" y1="4.04598" x2="5.67367" y2= "4.04598" />
    <line id="_230391952" class="fil0 str0" x1="3.62743" y1="4.51102" x2="5.67367" y2= "4.51102" />
    <line id="_230391904" class="fil0 str0" x1="3.62743" y1="4.92957" x2="5.44115" y2= "4.92957" />
   </g>
   <g>
    <path id="_230391784" class="fil0 str0" d="M3.34841 6.86714c0,0.0290546 -0.0385592,0.0621694 -0.0676006,0.0621694"/>
    <line id="_230391712" class="fil0 str0" x1="3.2808" y1="6.92931" x2="0.0945196" y2= "6.92931" />
    <path id="_230391640" class="fil0 str0" d="M0.0945196 6.92931c-0.0288832,0 -0.0480112,-0.0331148 -0.0480112,-0.0621694"/>
    <line id="_230391568" class="fil0 str0" x1="0.0465084" y1="6.86714" x2="0.0465084" y2= "2.45117" />
    <path id="_230391496" class="fil0 str0" d="M0.0465084 2.45117c0,-0.0288964 0.019128,-0.0328907 0.0480112,-0.0328907"/>
    <line id="_230391424" class="fil0 str0" x1="0.0945196" y1="2.41828" x2="3.2808" y2= "2.41828" />
    <path id="_230391352" class="fil0 str0" d="M3.2808 2.41828c0.0290414,0 0.0676006,0.00399434 0.0676006,0.0328907"/>
    <line id="_230391280" class="fil0 str0" x1="3.34841" y1="2.45117" x2="3.34841" y2= "6.86714" />
    <line id="_230391208" class="fil0 str0" x1="3.34841" y1="2.97635" x2="3.34841" y2= "6.49351" />
    <path id="_230391136" class="fil0 str0" d="M3.34841 6.49351c0,0.029015 -0.0385592,0.0637645 -0.0676006,0.0637645"/>
    <line id="_230391064" class="fil0 str0" x1="3.2808" y1="6.55727" x2="0.0945196" y2= "6.55727" />
    <path id="_230390992" class="fil0 str0" d="M0.0945196 6.55727c-0.0288832,0 -0.0480112,-0.0347495 -0.0480112,-0.0637645"/>
    <line id="_230390920" class="fil0 str0" x1="0.0465084" y1="6.49351" x2="0.0465084" y2= "2.97635" />
    <polygon id="_230390848" class="fil0 str0" points="0.511566,3.62743 0.511566,3.06936 2.88335,3.06936 2.88335,3.62743 "/>
    <g>
     <line id="_230390776" class="fil0 str0" x1="0.372054" y1="4.18549" x2="0.883606" y2= "4.18549" />
     <line id="_230390704" class="fil0 str0" x1="1.06963" y1="4.18549" x2="1.58119" y2= "4.18549" />
     <line id="_230390632" class="fil0 str0" x1="1.76721" y1="4.18549" x2="2.27878" y2= "4.18549" />
     <line id="_230390584" class="fil0 str0" x1="2.51131" y1="4.18549" x2="2.97635" y2= "4.18549" />
    </g>
    <g>
     <line id="_230390464" class="fil0 str0" x1="0.372054" y1="4.60404" x2="0.883606" y2= "4.60404" />
     <line id="_230390392" class="fil0 str0" x1="1.06963" y1="4.60404" x2="1.58119" y2= "4.60404" />
     <line id="_230390320" class="fil0 str0" x1="1.76721" y1="4.60404" x2="2.27878" y2= "4.60404" />
     <line id="_230390272" class="fil0 str0" x1="2.51131" y1="4.60404" x2="2.97635" y2= "4.60404" />
    </g>
    <g>
     <line id="_230390152" class="fil0 str0" x1="0.372054" y1="5.0691" x2="0.883606" y2= "5.0691" />
     <line id="_230390080" class="fil0 str0" x1="1.06963" y1="5.0691" x2="1.58119" y2= "5.0691" />
     <line id="_230390008" class="fil0 str0" x1="1.76721" y1="5.0691" x2="2.27878" y2= "5.0691" />
     <line id="_230389960" class="fil0 str0" x1="2.51131" y1="5.0691" x2="2.97635" y2= "5.0691" />
    </g>
    <g>
     <line id="_230389840" class="fil0 str0" x1="0.372054" y1="5.48765" x2="0.883606" y2= "5.48765" />
     <line id="_230389768" class="fil0 str0" x1="1.06963" y1="5.48765" x2="1.58119" y2= "5.48765" />
     <line id="_230389696" class="fil0 str0" x1="1.76721" y1="5.48765" x2="2.27878" y2= "5.48765" />
     <line id="_230389648" class="fil0 str0" x1="2.51131" y1="5.48765" x2="2.97635" y2= "5.48765" />
    </g>
    <g>
     <line id="_230389528" class="fil0 str0" x1="0.372054" y1="5.95269" x2="0.883606" y2= "5.95269" />
     <line id="_230389456" class="fil0 str0" x1="1.06963" y1="5.95269" x2="1.58119" y2= "5.95269" />
     <line id="_230389384" class="fil0 str0" x1="1.76721" y1="5.95269" x2="2.27878" y2= "5.95269" />
     <line id="_230389336" class="fil0 str0" x1="2.51131" y1="5.95269" x2="2.97635" y2= "5.95269" />
    </g>
   </g>
   <polygon id="_230389192" class="fil0 str0" points="5.0226,1.6742 5.53415,1.6742 5.53415,3.53441 5.0226,3.53441 "/>
   <polygon id="_230389120" class="fil0 str0" points="4.60405,2.37178 4.139,2.37178 4.139,3.53441 4.60405,3.53441 "/>
   <line id="_230389072" class="fil0 str0" x1="3.76695" y1="3.62743" x2="3.76695" y2= "2.92984" />
  </g>
 </g>
</svg>
