<?xml version="1.0" encoding="UTF-8"?>
<!DOCTYPE svg PUBLIC "-//W3C//DTD SVG 1.1//EN" "http://www.w3.org/Graphics/SVG/1.1/DTD/svg11.dtd">
<!-- Creator: CorelDRAW -->
<svg xmlns="http://www.w3.org/2000/svg" xml:space="preserve" width="99px" height="175px" style="shape-rendering:geometricPrecision; text-rendering:geometricPrecision; image-rendering:optimizeQuality; fill-rule:evenodd; clip-rule:evenodd"
viewBox="0 0 2.49817 4.41833"
 xmlns:xlink="http://www.w3.org/1999/xlink">
 <defs>
  <style type="text/css">
   <![CDATA[
    .str0 {stroke:#DAE409;stroke-width:0.0589148;stroke-linejoin:round}
    .fil0 {fill:none;fill-rule:nonzero}
   ]]>
  </style>
 </defs>
 <g id="Layer_x0020_1">
  <metadata id="CorelCorpID_0Corel-Layer"/>
  <g id="_230099416">
   <g>
    <polyline id="_230385544" class="fil0 str0" points="1.44332,3.79977 1.44332,3.61087 1.87221,3.19262 "/>
    <path id="_230385472" class="fil0 str0" d="M1.87221 3.19262c0.0248901,-0.0248818 0.0406041,-0.0511162 0.0579629,-0.0798806"/>
    <line id="_230385400" class="fil0 str0" x1="2.11715" y1="1.02617" x2="2.26078" y2= "0.969505" />
    <path id="_230385328" class="fil0 str0" d="M2.26078 0.969505c0.0781021,-0.0308351 0.166516,0.00756473 0.197301,0.085717"/>
    <path id="_230385256" class="fil0 str0" d="M2.45808 1.05522c0.0309102,0.0780437 -0.00753134,0.166466 -0.085742,0.197184"/>
    <line id="_230385184" class="fil0 str0" x1="2.37234" y1="1.25241" x2="2.10531" y2= "1.35774" />
    <g>
     <line id="_230385112" class="fil0 str0" x1="2.09134" y1="2.56263" x2="2.09134" y2= "3.01275" />
     <path id="_230385040" class="fil0 str0" d="M2.09134 3.01275c0,0.0544811 -0.0395771,0.109538 -0.0941501,0.109538"/>
     <line id="_230384968" class="fil0 str0" x1="1.99719" y1="3.12229" x2="0.942578" y2= "3.12229" />
     <line id="_230384896" class="fil0 str0" x1="0.500742" y1="1.79679" x2="0.500742" y2= "0.0987507" />
     <path id="_230384824" class="fil0 str0" d="M0.500742 0.0987507c0,-0.0545062 0.0590233,-0.0692933 0.113596,-0.0692933"/>
     <line id="_230384752" class="fil0 str0" x1="0.614338" y1="0.0294574" x2="1.99719" y2= "0.0294574" />
     <path id="_230384680" class="fil0 str0" d="M1.99719 0.0294574c0.054573,0 0.0941501,0.0147871 0.0941501,0.0692933"/>
     <line id="_230384608" class="fil0 str0" x1="2.09134" y1="0.0987507" x2="2.09134" y2= "1.41387" />
     <line id="_230384536" class="fil0 str0" x1="0.706935" y1="2.651" x2="0.706935" y2= "2.23862" />
     <polyline id="_230384464" class="fil0 str0" points="0.706935,1.79679 0.706935,0.441836 1.8557,0.441836 1.8557,2.68045 0.795299,2.68045 "/>
     <g>
      <line id="_230384416" class="fil0 str0" x1="1.03094" y1="0.235642" x2="1.56114" y2= "0.235642" />
     </g>
     <line id="_230384320" class="fil0 str0" x1="1.23713" y1="2.85719" x2="1.44332" y2= "2.85719" />
    </g>
    <path id="_230384200" class="fil0 str0" d="M2.36818 1.48908c0.0308601,0.0781606 -0.00758143,0.166524 -0.0857671,0.197359"/>
    <line id="_230384128" class="fil0 str0" x1="2.28241" y1="1.68644" x2="2.17401" y2= "1.72105" />
    <path id="_230384056" class="fil0 str0" d="M2.17401 1.72105c-0.0780687,0.0308351 -0.166458,-0.00765658 -0.197234,-0.0856919"/>
    <path id="_230383984" class="fil0 str0" d="M1.97678 1.63536c-0.0308852,-0.0781272 0.00747289,-0.166549 0.085717,-0.197268"/>
    <line id="_230383912" class="fil0 str0" x1="2.06249" y1="1.43809" x2="2.17085" y2= "1.40343" />
    <path id="_230383840" class="fil0 str0" d="M2.17085 1.40343c0.0780604,-0.0308351 0.166449,0.00756473 0.197334,0.0856585"/>
    <path id="_230383768" class="fil0 str0" d="M2.30677 2.31917c0.0308351,0.0782357 -0.00753969,0.166691 -0.0856669,0.197301"/>
    <line id="_230383696" class="fil0 str0" x1="2.2211" y1="2.51647" x2="2.11274" y2= "2.55113" />
    <path id="_230383624" class="fil0 str0" d="M2.11274 2.55113c-0.0781522,0.03081 -0.166449,-0.00758978 -0.197326,-0.0856084"/>
    <path id="_230383552" class="fil0 str0" d="M1.91541 2.46552c-0.0308935,-0.0781522 0.00756473,-0.166549 0.085717,-0.197268"/>
    <line id="_230383480" class="fil0 str0" x1="2.00113" y1="2.26825" x2="2.10949" y2= "2.23362" />
    <path id="_230383408" class="fil0 str0" d="M2.10949 2.23362c0.0780854,-0.0308351 0.166533,0.00753134 0.197276,0.08555"/>
    <path id="_230383336" class="fil0 str0" d="M2.3397 1.89517c0.0308768,0.0781522 -0.00748124,0.166491 -0.0856335,0.197326"/>
    <line id="_230383264" class="fil0 str0" x1="2.25407" y1="2.09249" x2="2.14562" y2= "2.12713" />
    <path id="_230383192" class="fil0 str0" d="M2.14562 2.12713c-0.078052,0.03081 -0.166449,-0.00758978 -0.197326,-0.0857754"/>
    <path id="_230383120" class="fil0 str0" d="M1.94829 2.04135c-0.030785,-0.0780687 0.00753134,-0.166374 0.085717,-0.197217"/>
    <line id="_230383048" class="fil0 str0" x1="2.03401" y1="1.84413" x2="2.14246" y2= "1.8095" />
    <path id="_230382976" class="fil0 str0" d="M2.14246 1.8095c0.0780687,-0.0308351 0.166466,0.00753969 0.197243,0.0856669"/>
    <path id="_230382904" class="fil0 str0" d="M0.76676 3.78567c0.097707,-0.146444 0.162066,-0.337883 0.162007,-0.548209 5.84472e-005,-0.311757 -0.127974,-0.583303 -0.320842,-0.725689"/>
    <polyline id="_230382832" class="fil0 str0" points="0.607926,2.51178 0.704155,2.22671 0.771995,2.22898 "/>
    <path id="_230382760" class="fil0 str0" d="M0.771995 2.22898c0.169347,0.00262177 0.309361,-0.132458 0.312091,-0.302005"/>
    <line id="_230382688" class="fil0 str0" x1="1.08409" y1="1.92698" x2="1.08594" y2= "1.82486" />
    <path id="_230382616" class="fil0 str0" d="M1.08594 1.82486c8.3496e-005,-0.00436684 -0.000317285,-0.00857504 -0.000459228,-0.0129419"/>
    <polyline id="_230382568" class="fil0 str0" points="1.08548,1.81192 0.470984,1.80254 0.468955,1.80726 0.467085,1.80611 0.38161,1.99961 0.284588,2.21325 0.287159,2.21331 0.184785,2.42228 0.176736,2.42284 0.176736,3.79977 "/>
   </g>
   <polyline id="_230099512" class="fil0 str0" points="0.117821,3.9765 0.117821,3.82922 1.67896,3.82922 1.67896,3.9765 "/>
   <polyline id="_230099464" class="fil0 str0" points="0.0294574,4.41833 0.0294574,4.00595 1.73788,4.00595 1.73788,4.41833 "/>
  </g>
 </g>
</svg>
